<mxfile host="app.diagrams.net" modified="2023-05-01T10:36:29.475Z" agent="Mozilla/5.0 (Windows NT 10.0; Win64; x64) AppleWebKit/537.36 (KHTML, like Gecko) Chrome/111.0.0.0 Safari/537.36" etag="Uv67HAiB8KrJQLFjrUWT" version="21.2.3" type="device">
  <diagram name="Page-1" id="gNgUdGXHjtJKQ3GOtGnm">
    <mxGraphModel dx="1034" dy="1631" grid="1" gridSize="10" guides="1" tooltips="1" connect="1" arrows="1" fold="1" page="1" pageScale="1" pageWidth="827" pageHeight="1169" math="0" shadow="0">
      <root>
        <mxCell id="0" />
        <mxCell id="1" parent="0" />
        <mxCell id="kzYyy0ZkJ250GvS2o3Kc-1" value="User1" style="shape=umlActor;verticalLabelPosition=bottom;verticalAlign=top;html=1;outlineConnect=0;" vertex="1" parent="1">
          <mxGeometry x="120" y="80" width="30" height="60" as="geometry" />
        </mxCell>
        <mxCell id="kzYyy0ZkJ250GvS2o3Kc-2" value="User2" style="shape=umlActor;verticalLabelPosition=bottom;verticalAlign=top;html=1;outlineConnect=0;" vertex="1" parent="1">
          <mxGeometry x="120" y="200" width="30" height="60" as="geometry" />
        </mxCell>
        <mxCell id="kzYyy0ZkJ250GvS2o3Kc-3" value="" style="endArrow=none;dashed=1;html=1;dashPattern=1 3;strokeWidth=2;rounded=0;" edge="1" parent="1">
          <mxGeometry width="50" height="50" relative="1" as="geometry">
            <mxPoint x="140" y="360" as="sourcePoint" />
            <mxPoint x="140" y="290" as="targetPoint" />
            <Array as="points">
              <mxPoint x="140" y="320" />
            </Array>
          </mxGeometry>
        </mxCell>
        <mxCell id="kzYyy0ZkJ250GvS2o3Kc-4" value="UserN" style="shape=umlActor;verticalLabelPosition=bottom;verticalAlign=top;html=1;outlineConnect=0;" vertex="1" parent="1">
          <mxGeometry x="120" y="380" width="30" height="60" as="geometry" />
        </mxCell>
        <mxCell id="kzYyy0ZkJ250GvS2o3Kc-5" value="" style="shape=flexArrow;endArrow=classic;html=1;rounded=0;" edge="1" parent="1">
          <mxGeometry width="50" height="50" relative="1" as="geometry">
            <mxPoint x="180" y="250" as="sourcePoint" />
            <mxPoint x="260" y="250" as="targetPoint" />
          </mxGeometry>
        </mxCell>
        <mxCell id="kzYyy0ZkJ250GvS2o3Kc-6" value="" style="shape=image;verticalLabelPosition=bottom;verticalAlign=top;imageAspect=0;image=data:image/png,iVBORw0KGgoAAAANSUhEUgAAAnoAAAJ5CAYAAAA5Pp2iAAAAAXNSR0IArs4c6QAAAARnQU1BAACxjwv8YQUAAAAJcEhZcwAAFiUAABYlAUlSJPAAAP+lSURBVHhe7P0HkCXHld8Ln+vbd0+P995hBpgZeA8ChCEJ0K24u1q/4hpqd+NJL54UISn0Ir6VQt8nE5LiSXrSrna55C65lgZLAxoQlnAk/AADjPfetrfX9Xf+52RWZd2+PbcHJEhO9/nVZFXmyZNZeaunbv87szIrNcGQYRiGYRiGMeNIu6NhGIZhGIYxwzChZxiGYRiGMUMxoWcYhmEYhjFDMaFnGIZhGIYxQzGhZxiGYRiGMUMxoWcYhmEYhjFDMaFnGIZhGIYxQzGhZxiGYRiGMUMxoWcYhmEYhjFDMaFnGIZhGIYxQzGhZxiGYRiGMUMxoWcYhmEYhjFDMaFnGIZhGIYxQzGhZxiGYRiGMUMxoWcYhmEYhjFDMaFnGIZhGIYxQ0lNMC5u1GGib5gm+kdcypgJpDpbKNXV6lKGYRiGMXMxodeA0tdfo9I3XuMr5Qx1mODNkwocvdVb4BfHY79k1eGPI6wrrk2tzpLiFEciT0TCKgDScVWTmG3tz33sRg43qdEwDMMwZjAm9BpQ/MJzHJ4NpERILCEiYJJknby6RAWuAFfGn4JJTaRqTqt1Xr4VdXJd1Y1KxkQFrgBXxp+C+Um2v/Dr91Ceg2EYhmHMdOwZvYZof9EkuSBG3kmIDtHR56nNGdXkcAYJQI9ReR/3CSaqh3c4RPm8861UH8Ql5awaEoiRdxKiQ3T0eWpzRjU5nEEC0GNU3sd9gvnZar9hGIZhzHxM6E0DLw4mawRVDyonoqQEn+MLO7OSUBtxjggSibjgkGT9LMaLoagVTJxCubBsEliCkpqU4HN8YWdWfIVCnHPVtN8wDMMwZgkm9KaFEwwcIGYkyBaLh6TFx0O8h+a46hJBQST09ZnegS2JgmJySY3g4O1RJMpzQTbnIsfQ4uMh3kNzXHWJoCAS+vpM78CWREExuaRGcPD2KBLluSCbc5FjaPHxEO8xOccwDMMwZiom9BqgsoD3fIiCWHwaec7o7N5BTb4Gjft9sq5k/TDiINTYotr8wYUIsUuNElWS9YsLgqSR54zO7h3UpPX4uN8n60rWDyMOQo0tqs0fXIgQu9QoUSVZv7ggSBp5zujs3kFNWo+PG4ZhGMZswoReIyAYRB8EIgHReprB2aMsESE4uiCEBg4+6iI1yYiEjQM8g+zArkHB+V0bAmuNU4yzR1kztv2GYRiGMTswoXcFqDip3ZyOEFGhqXhzeX7PhyhIGYTQT41qc0c4acptga+zeH+fI3veSYCbQ71qN/W5/Lncng9hvRoP/dTo23P5OoGzOX+fI3veSYCbQ71qN/W5/Lncng8akDYMwzCMmY8JvQaIRPDioCbg4DSEAzbkSXZMwtdlwqYGl3b5oc0RnxuJOOAQgbQLsQ8M7uAzg4BD5CvMkvYbhmEYxizBhN408JKmHl4/hPvIV0RHlGLiuI8lLXoeHyaTtE5UNXhzXC6M+a0+yTJhmpnB7TcMwzCM2YAJvUYEykGivIv0QxwJ3SK7HnBUqRLFvbMroNEaO4eoHJJIR34aAoumXYhzwoiL8s6HIBK6RXY9aN2y+bh3dgU0WmPnEJVDEunIT0Ng0bQLcU4YcVHe+RBEQrfIrgetWzYXNwzDMIzZggm9BjiJ4ESCionIxptaHMgXH28PPFA+svrAm9SLEKc9Pi0B6Xinae9Tu3GGc4s9UAfsNWWck4J88fH2wAPlI6sPvEm9CHHa49MSkI53mvY+tRtnOLfYA3XAXlPGOSnIFx9vDzxQ3lulcsMwDMOY+ZjQuyIi2RChwsFFAuqYAoJcH02YdKtH7BYUCAnMkz2msEw21/EMCXJ9NGH6WW+/YRiGYcwOTOhNAwiJSExwJI6rPeq10oTYwvzYb3I6xGXFIUhE53B2H2JnFwSOOIfJvpPbN+vabxiGYRizBBN600AFhEsILCbcphkTVGWfpNhwceeHDXafB3uUV+Pr/SR4mw9iC5Na1iU5BDFfHkdEI+Clm/edTe1H1DAMwzBmAyb0pgmEQrWBRnhP+iEo5HRJFHAIJqUqPt/hk4GcSegZBGDtNwzDMIzZhwm9RkTqBbDc4LQGzfJBfZxQCQPvolDPHtgU1KH1CC4zOm9gDLycSRzjnHSKUtk0pfIZSmX4mEI250mI3CXwXoLug8C7KNSzBzZFzx6lXeaVt199xCZxwFZfj8vyQX2iUnHgXRQCu2EYhmHMBkzoNUBEgagD3jm1gENSPehRon5TJ7VwPNzUmWNB8L4uS21BiKK8VV2YSLEBYi7HQq45T6mOFkrNbaf0wi7KLJtL2dXzKbN2EWXXcVi7kDIr51FmaTelF3RSqruNUu3NRE15IhaBcl5trW44mbfg/MGmzhwLgvd1WWoLQhTlLWq/2yIfV0sccUiad1qBHMJ0ZBdXt6mTWjgebmo3DMMwjJlPin8J2m+9yzDy+adp+HNPu5Rnglheufg0ZUPsznCJqFAiI0GYU/cc6TSlCllKz2unDIs7CDiEzEI+zu+g9Jw2onyWK+Kaqiythsep2jdM1fP9Eipn+Xi2lypneqnaM+QqnYL3o/21+AINnX+069/6j+6jFg6GYRiGMdMxodeAUOjJheLLBd1Uq0p07+SHv6Tq6Aj9cOF9xB0RYZv2OCEZShnAOZyVymQo3VKg9LJuyix3PXTdbZRGb15Hs/TSpXFsa6IU+2HI1jNRLNPESJGqgyM0MThGEwMjVO0fEaFXOX6RyscuUPVcv9gno+2Kmh1F3HG67fdWdffROvia4nok/WO4/q2f/qCIPcMwDMOY6ZjQawCE3tDnnvI6IQYaYppXLiE3rqBcBMpgiLaQp3RXK2WWzKHctlWU276ashsWUwrDr/CpcMWVCk1UqkRlDnycqGI6BGdD8LmQymY0nubA5aq9wyz0LlDx1YNU3n2SKhB8g6NEEIZcx4+l/YwKPQ1SD2hU11R+UolGG+GrADivCT3DMAxjtmBCrwEi9P6MhV4ALph0Fk3jyoUuoeDwNMoHcr7WJsptWkL5WzdQ/vo1MiwrvXaFnBYcL7M4G6Nq3xBNYHjWBfTgYbpqqrNZRKIPKRzxjB5EH4Z1IeqGx6ly8hKV95yksWfekbgIPseP0n6P+mhvnca9JWaqejxSFk5hoSmoV68IvU+b0DMMwzBmPib0GoBhWxV6NZeJVQOGL8XqFQQn/GhhdFV9HiL1LvUkxRIVEFLpFGVWLaTcluWUu24F5TYskYkWlMvI8GvlfB+Vj56nKp636xkUYTcxMi6hyoFKFRF61JyndEteh3MxcYOFY7qzlevqpsyKeZRZPEd6BqXc+X4qsdgr7TxCpXdOUPlcn9Zzpe2fdBE4nfx4cdHALgOwXFazgrIhbH6v17/ttyD0PihxwzAMw5jJmNBrAIZtvdCDZtB9oB9EasSpyTTKTxLpExRhMZfp7qDCXddQ031bKbNukfTgTRRLNDEwKs/UlfaepOIrB/X5up6hxJmSP9ia9rOATLc1U3bzUsrvWE25rSsps6iLUp0t2ktYqVLx9UM0/v13+HiYKpeGiMZLUvZyRO2Xfe1nn+JaQNQ5hVbrHfPju/4m9AzDMIzZQvykvnEZkpIDaH/TZHsC7wItPZWejnzg4vycL3rcmj6ygwpe5DWxyBseo/KhczTypZdo+C+eodFHf0jlvadool8nULiqJMQkUwDP7lWHRqn0znEaefRlGvzjx2n0m69Sed9ponJFnuHLXbuCmj92M+Vv2SAisC7BCWvbr+BK+c2BiCSiSOIQWB3JFNDaJtsTeJdJbTIMwzCM2YEJvengBINoBd5B0Ih28FmRrSbERaf2C/JDMDwLgZW/YS1lV86XCRSV0700/uI+Gv36KzT+8gEqHzhDlQsDMkQ7AXHG9dUPXKGLYqfn5ijEHgvHyvl+Kh88q3V/9w0a/d5OPlePzPDN8LmbPrBF2pFeNEee6ZtO+6Nz1GSKDUdsUVxy+N9UIc7GLqpbzS5dJ/j8Wj+OG4ZhGMZswIReI1gVQBqwPlC1IGgENgm1cZdGLEo7W+wXbzCoCGGnVIpSLXnKblpGhXu2UHbdYklXe4eo+NZRGn3qLRZjO6l0+CxVhka1jAs+KiAd2VzdYSb2yJcwIWKxuP+0TMIY+earVHzzCFXO9lEql6XcjtWUv3U95bYuJ2pvpol0Wut0GyqJ2h+AZBRcvpYItsDJRwWkI1vgJ2hE8hFq4y6NWJR2NrEjGIZhGMYswITedBBhIHJDNsELhnqiwdskn0tMUhfJuNapNgzP5jYulR60/HUrZeJE9dIgFd8+SiPfeIWPx2iiUlZ/V8yXrg1ClNDz6LkkGeTFQPCVD5+n4b99kcae3y0CE8u25LesoOaP3EDZVQso3Vpw3sDXWVORUHuSmrSLhtYwCFHCt97leLtLJvA2yecSpu4MwzCMWYoJvYbUCIRIM/gIh0hIJOOBLFETdsj3B7EpEs1lKD2vg/J3bKbcNctE5OGZPIi70ad2yezaiaGxqCzKxGfxRk4hBFsC5xpHOKCcj2PtPRZ7WFpl/JUDNIplVlhooi3ZNQupCb2M6xezIk3+19HSvPnzo86gWknWxDWpW5jxI7U/iCdKS8Tli49hGIZhzHxM6DUAkkC0QRj3IdpcnoTAFhk57YPLU7v6+DTebJFZs4DyN6+n7PJ5NDFeohKLu7FXD9LYD/bJOnmRgPIgLvU6XDoO0aFOVtyeOPA2UaVqqUTFPSdZYL5NpQOnqcoCM93ZQk13bpIZupidiwWXfd2yS6VoIsM2vHYNM3dxRDrF2e4Eka9H7NoGwaXjEB3qZPnN5UkIbJGR0z64PMMwDMOYDZjQmy6sDlRcaPB74G3JkBQUYV6CwJhbt5ia7t5Cmblt/JNJUaVnkEa//QYVdx7VBY0jocIFpDFBYW+KLUkm5cde3pYME1QdLVL5xCUa/Q634d3jRNk0pee2U37LMircsJaopRAXYFIs7DBTOLtsrgzxYn0+PNNHWRZ8jK/3J9V+HD1hnmEYhmHMFjJ/yLi4UYfiG4c5HHKp98Ll1nhjoDwyLKA6W6hw6wZqvvsaysxpo8r5ASph8sX335UZsLpgsRbxR6nZVX85AdOgBVMDZVXGzNxRyrS3UGZ+h7xNI5XPiRBFTx+O2SXdlL9pHTXdsoEKmCm8fRXlt66Q4ef85uWUXb2QMgs6RAiivomxkjT4fW+/MLl04fq1HNa4lGEYhmHMXEzoNQAib/x1L/RSdQUJrGqPX8Cv0kX9fSks9uvzw3owAQM9YE23b1IBkmIRteuYiDwsiDwxNC5+yT4qT1yj5taeI3GmKWq4TPvxerShMUrlMvJWjezSbsp0t8kze6Uj5ynN8fy1K6n5we3UdOdmarppLeU3LpU3eOQ3sdDjvNyaBZRZ2KVCr8LnYqGHHkp5Y0fE+9T+aA+L5qM30oSeYRiGMRuwodsG+BFGP2x4eSA4/KapeK9IPDQwaRZQEB7ZFfMlE5MhSgfO0PhrB6kyPCY1BO4RvppkdRqL0hz5cbS/ePAcjb2wlyo9Q1JRZkEntf3CHdTx2w9Q2y/eIeIu3dGMSjg/eaZ0F4vBLcup9ZO3UNuv3EWtj9zAArFVn93jfB8UjUVpjvw42u/LhnHDMAzDmOmY0LsSWG3oZAgN0QP+sSkJ0mFGFA9COkWp1gLlNi2l7KIu6e0qHjgtkzAqfcMy1ClIWY0CiUoVsMdiRkO8JYCf8/fx6bYfb9Eon7xEpX2nqHJxQN6Lm1u7iHKrF1B6TqtM1ii+c5yGv/0GDfzVczTIYehrL9PYD/dR+dQlqSvd3S6CEMO7TXdsjoQtgpwqCvGWAH7O38en235Nu/gkR8MwDMOYmZjQmwYiOPSfS+mmlpo4i4gohDm885ZoY2MqnxGhBNEjgmm0KMuplE5coIlKhSaq6hdtrm6O4p87YhcHzXdxt7l/UiCyuZCIu/ISwpxSRYTnOLetLG/NSMvzejJp5NIQi7xjNPL0Lhr66g9o8C+eoYEvPEtDX3qRRr67k8XeflmMucrlMfyLYd3me6+l/DXLKdVckDp8exHel/bzLrYYhmEYxuzAhF4DQpGgqQZ4tzquCbNLpLraZCmVdHOefxr840CP3t5TVD7TV7eOGK1A2uXqSoSAH1v7x4o0vvuECD1P+Wwfjb28jwb/5jkaeWInlQ6dkdeqVQdHqHz8Io2+sJsG//o56v+T77Hffqpc6Jfn+/Jbl1N+x2rKbVxCVMgmz1tz7h/39a+TZRiGYRgzEhN6DVFpIHu/U+UR403O7ORXbBM7LErsxz+AzhbKLJ5DhJmsxTJV+odFPFUHRyOfRD21wftI8GeODOKjOS4eFvR4kzP7WiKb2HlD+8700vibh2nkybdp9MU9NPr0LhrBWnuHzskbPNAjOYFFlzFbd7zEn4cFH3+e0v7TXOYt6RGEEMTQb37TUplpnMJr1eR5PX9maYQEnFtzXDxuUIw3ObOvJbKJHRbDMAzDmF2Y0GuEKIY44pMSWEH4IUKoCZ8b7kVl+KMPPo+ByMnM66BUNs0iaVwmO1QGRkQkxb6+BG9hPWEIgF+VbTKpVfLVqjk+xoHzrqT9GEqushAdf/MIDX39FRr+zhs0zOJt7JUD8oyeb5scuFRYtsL5oz/cT2OvHZSePiwGjZ7MpuvX6OfHjFwHzv1+tD8KkmcYhmEYMx8TetPF6wSNJnSDt0eZDtg1UhMiJijdlKN0R4uspVcdYqF3cYAmSmXOco5SZlLBaRKU4ahvpwSf9sH5aESBXSPJUD7fT+O7jsrbOvBaNpkwws6+rjii/ppGL1+ZirtP0Mgzu2RyB5aVwQLMmNSBV79NxtUBXJVSHYJP++B8NKLArpGaYBiGYRizBBN600D7ipxCiMSCjzi7I85Su/fwpjhAGHEkmxHBk0qnpJdrYnhc3jcLpIyEqFCNHcFtUp+6ODeXH/sI3hhFnN0RZ6nde3iThGJZhBqGmatjxSi/Fm+Xc6NgdYLK5/rk1WqVCyxouR55h+6yuZTpao3rR6GoLMKPt/3qZBiGYRgzHxN6DUiKBJYbCN4qtigzypNNTDgGIcpDcGWxgi8mYSDCAq9aSr7qLPSFe2Tzm89zEfXX4Lx5i30kqEX/xZlRnmxiwjEIUR6CKwt8fhjq+MIdw9KlU5dE8MmzermMLKaMZxXlXbm+PApEtbjyPk8t+i/OjPJkExOOQXCbYRiGYcwWTOhNh1ptoLoiMuMYuSQSjZHlU8p4vRkXYqGTEtGHDBdCIhvvpAFJB58dWScZHJz+sbXfhUnUy3A2DE1jUsdE/wilMiz05rZTqquVqClHE+jZVO+4jsjgQB0IcTJ2SSQMwzAMY3ZjQm8aeE0V6wdVE7KP7GqLndUKNOl7kyYo3dYk6+Y13baRmravlteKUT5LqQKHVreuHLxRRsp5tHyc9hbF1y/x4Hx6fp8DnB37yK622FmtQJNxfbFNg4+EGxvY5IKUAM7O4laGfEsV+cy5FfOo9b5rqeNX76G2j95EzTevl4kaqWZ9p66rfnI92Ed2tcXOagWahD9sYXsMwzAMY2ZjQq8RIhhcgFiQ4M2hHQcvJVwQO2ycQm9dLiuTDnLrFlETi5m2D19PTbdsoNyyuZIHHwlSVg6Kr4dtYndHjfs8GDRPMzSuUZcR+Tq77pwdBz7G3poWm7P7NIfIS/I15ZLx0ePKwCahUpVlVzATF2QWzaHmu7aI0Ov41O3U+sB2arppHV+nxZSZ36GCD9elph63c3Yc+KgWDWKHzdldmnecMgzDMIyZjwm9BnjR0Bj18v6+TFQ2n5Weu/ZP3kpdv/0gdf3mfdSM14CxyKNMhoWMzmYtHjxDVbz03xULievV2FRptSm16alRL+/vy9SWre+VZKqcqNTwGI29cYiKe05QpWeQP3hFPn8ar1VbvZBa7t1Knb9xL3X/nx+j1o/dLLZUE1+jy6JnjM4hqfjoCfMMwzAMY6aT+UPGxY06jL1+iEZfP+hS6G0LZIJEa2zS84SI2jCbFosDN21bRa33b6PmWzdQfu0iynS3ac8Wi7vSgdM09uZhGv3BPhp764jMSKUKix9Q7xyNcL2CigpA5crbH6N11loFf7owM2GrOQdHZeh2cEzeslE6ct4tEj3G14sFX2sTZea0yUzcTEcrpee0cLNSumDz4KhW4OqZVPc02t984zoJhmEYhjHTSU3IWJYxFb3/+3Hq+ePvutTl0MvIsk6OHrzaLLtiHrU9cpMM1UK4yGSEvmEqn7xExcNnqchCD6F0soeqvYOuJGpM1qWWWLDU5oZc+Q+1fvthl3OJAuOQSct7bhEoC5vzx3t5sZ4eh4kqH/F2DFnxOGRy+1PZDKW72ym/aoEMaUME51ZyfMkcSrPQw0LKEICjP9xHw8++Q6NYnHlwRM+V4PLt17Mp3f/4QzTnMw+5lGEYhmHMXEzoNaD3j6cQegk9EV/ChNBgIZRdOpc6f+Uear5hLeVWzBdhNP7OcRp5YQ+NvLSPKpcG5B2ysoZesRz35DFJoefP4W216WSTohZN9dMNnQOnsP1q1T0EV6qloL1sXW2U6WwVIYYFn/HMW6VvhKosXiv9QyJi8Qq36khRyir+HJPbD7GXKuRkYgbqyy6cQ/nNy6jtIzey6JsvturwuPR6Dj/3Lg1jwWU+R0zj9oeo0PuQSxmGYRjGzMWEXgNU6H0nlguIOC0RiwrX64Uods45v24xNd+6kdo/ehPlls8TW3H/aRp+YTeNvLiHikfOE42V2Fr/R+CtsXTxxCfBO2JBykcigjYx0RkCY6P2p/F6toWdlF+ziHKLu3UZlJY8pZsLEiD8sA4ehB5E3cTouITqyDhVBkZlCLp4+ByVTl2UN37oO81AfJJ67U+3saBksYfXo7XcuoGatq0WgVm5NEhj756gwa+/TON4vu881ynUb38t3jwXQo+DYRiGYcx0TOg1oPePv0uX0KPX4CqJ0PCihSPoAWt7aAe1f/wWKmxaKm/AKJ/qocHHXhWRN77vpDqrPGG4hkj16CE6Z5SWs8RpRi3OjioQQz7iqXioVDIugy8nzxRidjCLPPSmFbYsp5bbNlF+7WLKLuh0zm44FMLN//fBsC7Ku4tQGR6j8pleGn15v/TE4fNWeodpAhNNMPnCIed1exwkhircs41tH9hKbR+6ngpbV1Cmo0UWXB5+6i0aeuJtGn3tYNSGqJwHBgCbv26O7t/7kPTqGYZhGMZMh387Gw3xomESyPAhiLLIy61ZKOIEIg+CBc/jjeA5s++/S0W8HzYiKF9bT0iUjjM0piIHej3MkZRkuFCXGgc+oK1Yw679526jOb/1AHX9ygeocO0qmRyRAG/xYDFXZeGFkHg/LyMzaJfNE5HW9en7ac5vPyhrBqaDetS7fvupyvWPFvma7af+v31eekLx2rUMC9DWu7dS07UrZD1CPDroa9KKXBA4ErTJMAzDMGYbNuu2Aeg1Gn31gGqHsMdoCuCS6Wyh1g9speab1lNu6VyaGGfB8sp+GnpiJxUPnZXhTVBPgtTrlLpSapuZgt6RiCTrk81Ij10Lt7n1gW1y9LODIbqw9Ms4Zge/c1xmIkO0jr7C1+aNQzS68wiNv32MxlmMlY5foPLFfnnmUF5vxtcCPXEQitm57ZRuKUgvHJ7hw4LJ9UAzpb0Qf3h2kQUfJnbguUCsOYgJLhjGLZ/rp0rvUKKeqOxlwGezWbeGYRjGbMCEXgMg8kZeO8CxqVSSyopo4kQmTdlFXdT5yduosGEJpzNUOt1Lw0+/TUMcJsbL6ic9WFxG/kGJ1dTvk4FqURc1xM+0OQc/bilJtU2wTa1Ie/9aOC+XFSHWvH01tT24ndof2M6fYY4UwXBr6fhFGt91VK4FhmLxjOHwC3tk2ZnRtyDyOO/NI9LrJkKPBZgIuXJFZ+jmtX4Rjl2t0lY8vycCDj2BYIr2y3UqlkVook2FjUtlaBnLs1SHxmTW8sTIOJcIP59eW7VwXb5uqTdlQs8wDMOYNdjQ7bRR8dEIeb3Zom6ZbZvuaJHhTSwNUjxwRhcGlqFEP0zJe03KTjdniuyKc4mC94xMPuIOEoVIkgxJuONksnMh8lZR5y/eKSIoldeZtOh9xDOFF//bY9Tzuado6PE3ZJ2/8tle6aWU5VNQLY7VCpV7BmmMxd4QC8G+v32eLv2/36beLzzDgvCQzJqFH8ReGwvJtg/toPz6RVFbL9f+iTILvUuDIiIRIPyyC7qosH6JzNYNCaphaisEca5hGIZhzHRM6E0DrxMgqyZvTjpAqXBAzxVm2ELwoXcPM1BH3zlGxVOXRBiJcJECKIOg6djmE96XgzuLbC5bghTQOHbeX2wuAB93NcQbJjy0FKjp2lXU9iALr3WLKN1akLdVDD35Fg089hoNPbNLZriWuP3lniGqDI1SFcOpIvI0yKHKgYUseteqvcNUPtdHxSNnaeTl/TTwrddo4Bsvc/qciL3ckm5quXMzNd+wTmcj57KuHg1hm4HUD7GHOg+fY6FXkp5BvGlErnNWZ/5KQCk5uHaJxW1IS4DVMAzDMGY+JvQaIJLAiYMw8A7/4uC8IUDk3bX5jAgfvMlhnAVO+eKAlEuExObrcZvka73eXxKC5vhtUlwPHHjn4tE5XYANz9BBaOFZwpY7NlOmrUXWwxvbc5KF2Ss0+PibNPrWUf4MI1oG692xMEzjubvudnl+L93ZLEuuEJZZSWEQ2m3sXx0vU/HYBRp+dhf1P/oDEX0QjFg3r7BpGZ93nSydArEG0YlyaBhOpVHeuTjqK18aoOLRcyI0ZSFqbkO6s5UonxM35+iLaBCT1qlHWA3DMAxjdmBCbxqodKhPnKNeKRYt8iJ+FjMTQ2NUOd8nw7fhkiIAvslaJ1smU5OPl0MgBGaNxnWhVVO1HyKp/cPXU9OONbrwMfuNvHGI+r70Ao3uPkHlviGxAczGzczvpKbNy6j1zmuo/eEbqO2RG6mF4xBtmXntRDXDqJ5qkQUfC7y+L79IQy/skXpxPZo2r6AOPj96+NKFrPherv2V/mFZsoX85AtM9pjXob16zks9PZMthmEYhjGbMKHXiFqt4NK+hwgRL0UQUs0siNpbomHbMtaOY6Hje5O0TFAPDjjWy4NNNmcT4Ie8wAS8zdl9iCMOl053t1Fh4xJqum415RbPkdmto5hU8doBGnv3uIgqzLbFenoQgp0fvYm6f/1e6vzUHdTx8I3Udv82aufQ8fBN1PXzd1D3b3yQOj9xi7wBBL1+OEfUfhxHi1Q6eZFGX9lPw99/R5ZkQd351Qup5ZYN8taQRu3Hc35yPSusblMpmeiBGb0pFqlhGX8ttT4Xx+bihmEYhjFbMKHXACcRnEjwYkI3n9IDjhMyHAqxh4WDq2OlaPap5DsSMdSLTepAMq7Z56uPj0pMcoErLZtPqaMknYU31BGZJ+T5tmYWcHm8YoyFGQTU8It7aGTnESpjRiy3GT1++fVLqO2D17HAu43m/NJd1PGRG2QB5eatqzispNbbN4nwm/PLd1P7h66npmtWyBp6OI82QAMOGMqFiBx66i0ZwsWMW6yr13rHZiqsW0IpvDsXE2TjhvI/t7EN17MyNKZCD6TSMoSLWb3+PBJQ0AXsBbEreg0NwzAMY+ZjQm8aJGVDA5GApTzkLRF8rFZZlCSHbIGTLlpTUKWPBrkRcZ4n9krkRZGYON/FuGmFtYuolQUbhj0xtFw8dp6GX9obL+acSVPLzRuo+x/dT+0P7GBBuFA/E1MdL8rwKyZnVN2agACvOcPziJVi0Z0rxrehPDAiPsMv76fi8QsiCps2LaPcuoUs+lr12iWLRmUn+HpSOViYGc2BOExru2qpqcYwDMMwZh0m9KZDpDSgMVjCSEDcB5/mIws7zBCVXiNMXkBvEwskzdeg9biA+qcgWcYnQlud4KPs4NuVyGdhlJnXKUOlmIiBpVSKJy7KEiils70i3NAj2bxtNbXctI6at66g3IJO6eEbP3SWBh5/g3r/+jm69Lkn6dLnn6SeLzxDvX/3PA189w0afmW/+OA1Z8C3U9ugkYlylcq9QzIxA2vggVRrE+WXz9c18vwwLHwlIOECRKD0+nlhh/r4eldYUEv16u8DdrU2BMMwDMOYLZjQa4DqBSc4HGKr3URF8L/xsjybh2VE0oUcpduapcfJ+/igFYp1UlriHCbZwyD5OGgcNr9JPmLw8UeYGAhPCLzc4m55Rg69YsUj52n41YPyijGkMau2FcufsNjDzFo8Y4ilUYZe3EN9X3mJev/yWer5i6ep54vP0CUcv/As9X31JRr+wT4qnroo/jjhVO3Hq81Gdx2Tnj30JsInt2SuDPti0of3q20/hsVlqNb34PE1xsLJGALWc6GY99cygGNBPQhqNwzDMIyZjgm9aaMC4XIaAXkQefJaLjzjxkIqO79TevbqggKuQom6tJwntGs04RNSawrLxziBk89Rfu1CbleHOE0UK1Q800NjB05RZaxEqUKecovm6CvQVsyX5+LG9p+i/sdeZXH3FI28dVSGbF2VNDE8TsXTPWLHzFqxBefHwUU1jl0Z78kdp9KpHhF7mAiSnddBhdWL+PzZRPmYCUo1Fyjd1SbDymKpVKkyMCptlLQLhmEYhmEoJvQaIYojDmGvUCLLRfAMWulsnwq9phxl5rRSBu94ZZHivSI4IfVo1KEp2SPPZ3JEzutyfSwKcsAxsIk9mcayL7lF3fLeWBlGvdgvz9Zh0ghVKiy42uXtFdl5ndK7BjuWRMGyK/hclXCpGK6yymKrWiypHT157jyy5118erYhuNwJvEkD6+IdvyDLr2D2bG5RlxvqZifnGbY/3cHCGT45iEGug8thfULpifT+iRjjE84Q2Q3DMAxjFmBCbxpAa2jADobY6O0uKc+fFU9elF4q9ORBwORXLJA3Zmh5+LrgK4M9ivtkbAvrD0rFcckLfHzwfpGNd9k0Zed2ULq1SYY88V7acp8uWYLsDOdhyRM8K4fJJBXOw8SJ8aPntTwHPVd0dq08ivtkbEu0TTbNKfcPU+lMr86+xbI0Xa0y3I1n8dTXBRfHq9rQywgxCJGHGbjlS0MsMscT9Ys3J6INcRfECfmGYRiGMQswoXcFxBIhFAtJ0YDeMbz6CyKEWDxBwDRvWyVvy4jx5YOyHBUd4pK1RHZEXIh0i8NnAYnXyZclSVoL2nMmQ58jNDFWlHyApVayLLiwRh2epZPXnvUOJmbXutpdcHD0StuP+nF+tEN68ficmAiChZDFhXdR+zk/u7ibmq5ZLjN1K30qqCvDbvkaj6tboq68r8IwDMMwZhsm9K4UVg5eS0hvETbYnB2v58IL+McPn5Ujhmybr12lvWR4VZhMzFABIhGtIbKFdfkcn3IOEpUgaEKTPh4e6wBBhQkNnC0TGTBz1Z1T8tzrzGR5GJcPMaY+6odmaIGk7Uraj6Fj9MzBX86H4JemkVJw5CQLu8LGZdS0cSnlWezh9XLoCRzbfVwEaPKcHFxacdbIR/0MwzAMYzZgQq8BCeEgQkEOyeD8JJ8FUXlwVN4ygckJmFyANeuaNiyhPF7gj540cmJPi7jgLQ7U5fOQdAGgFdISl6lFA//IhiPsGmD05ZANB2fRNOwQdCzAxMKiS0RfltvsJkAAqQpHH5fgLQ7U5fOQdAEkzirlHCgDcenKIhuiDhNH2m7bpIsxt7dI+8aPnZeZu5URFnrqqnWhrEuH9eBgGIZhGLMNE3rTIBIOkpoaERVMdWSMhl49IL16KIQ3PrRsX0Odj9wkw6KeqE4fkUQdavIgZSLx5piqKPDFxQe7Ku9QNpXitkHEoQdNTVjuBM8ZQkxh2BnP82GCBma8qpMeAKKS9JEgL0FNnm+/nB9vEpEePLazDRMzwqHY7EKdAdyBt25sWCo9jJjlO7bnJI2+ix69eNg5uBwJEqdPJAzDMAxjZmNCrxFQDzVBREoQT2yclpf4n7hAo7uPS8ACwnhxf+tNG6j9vm3Sw5eE64pq8Cns9Bxq0Lh6qEmOsEV+PkhG3YAeM5khO16WXjpMFkk3FaRebKUL/TR+6AxN4Jm8dEpmDbfdeQ0V1i+mCRZk/lzROQUcfQ0+hR3vJcRx9VATxCPOj3bIEDGLNllsGSITb8y4Zjl14PVrLPIKKxdI7175fB8NPLmTRt46Er0OzZ9ZNmmTO7q4BiTjfMMwDMOYDZjQa4DKgnBTYrnA+zihURYqlf4RGn3nuCwyXLrYr8+ZrVtMnR++nlpv2UDZhVhKRNfX0+Jad9WJEQnO5iuXNEe9VnEH569xRcuJf3R0W6Ui77XFkCeWWpGlX9qaKJXS/woQelg3r4i3ZLBPpr2Z2u/ZKu+1TbUWRPz580jd0s74XFfSftSdXcDXgduBhY/LfM1whPCDvZ0FZseDO6jt9s36Pt4LAzTyzjEa+N6bNLr3pJxDKnIHINEgjoSeU9vig2EYhmHMBkzovWcaS4axA6ep/4mdNPLmEemJkl6qzctlCHfuP7yLsou6ZbkTVSI4yE5DhMgj2SJ8tMYXMTxdhz6u2CkJehtLZ3pYiA7LsCkWR8ZixRimhYjDZJLimV4afG43jR08K7Nz8Wwh3kfbtG4JpbD8SYicinf459sTtAkZU7U/yyIzv2qB1FnuG5Eh2WqpTNklc1gMu+HajcukvsrgKA0+/y5d/MtnaQyLLMtM4fA8dfBNmdQmwzAMw5gdZP6QcXGjDnh/69DL+3UNXyaUC94G6skIPGuGtzbgLRBYrgTrxGGoMouerDntKnSW6evIEEfPGsQgfDIdze6I0ErZTj52cvkwoD4syNzVxvVpGkfUjfJYSgXP46GH0bc1JRMsstS0eqE885bKYAZrD4usS9LTJ7NgKzq8m8FSK3x+9E4Ov3mYwyFdjoXzL0e9a+VJIRfXgj9P2x2bpdcu09ok6/QNv35QnrvDMC7O23rjekqz0MSkloGndtLg99/R5/Iw9MxtaHT9kz+hmLabN1LbLRtcyjAMwzBmLib0GoDFggdf2cdKwokGObCsiNLoq+J4rQLkNA7+eT08GwfhlGlX8ZZbOIeaNi2lwtrFKvbmd4rYE/G3dK4GtiMU3FHiy/mId9VyKKxAfD4f51Oe48hDHAH1TZQgNItUwfN2vr0T+n7YJj5vC94tm03LEG11pKjvnmXfKpfDEK58AvYfP3GRhljwjr59TNe88x9OgI/886k4T3rRNKFXieP8D2IWw9gQea071khPIp65G3phN5/rgghLYpGcX7lQeh5Hdh2jvkd/QKN7TlAV6xNOcBumc/292TWDXYW2W0zoGYZhGLOD1IQ+6GRMwbn/8Rid+e/fcCkVD4IIDb10GvUZMZEHR9DDVlixgDof2E7td22h5i0rOJNFCosq9KLJbNNSWQTOZFzdk08R2JKZeDVY79dfpqEf7KXRA6eclb3gls1S9z+4neb+8j3UtGqhCL+Rt4/Qmf/ydRrDRAxuC0DPo/QMshiE+Kr0sQAT+FOFp+OkXgmRcgFqBVGMHXILumjuL91NHR+4jpo3L5PPffGLz9CFzz/lZvxWKNNc0Fm2eKbw0iCVewa5XSWuyNU07evv/DmRcj6L/slHaeH/8YjEDcMwDGMmYz16DRh6ZZ8M3dYFGsLrC69kavSGN0OkoDcKPVTliyxczveJgIEdz6hhqBJBhmRxnG5AD6EEFmVBAKP7T9H48QtUlt65gGqV0oU84V28hdUL5LwYwq0MDHMY5XYNqBsLPrx5ojI0KkPQIrL8B5oO4fVx4HnAFha5XR++kZrWLJLePdQ7tvcUh5NyLhG7GD7GK85YsJb7VPxNOndYv8+b4vpHZja037JBevUMwzAMY6ZjQq8BGLIc/GFS6MXaIpQRLu4y0belnU/OzgeZCHG2Vxb7HTt0VoZHIawwsWCiWJHn4vAMHMRgIvSxOOSA137FcT72ajwZhiTgzRGju46y0DvPwm1I2+CQ1roeRAzfZrva9NnA1oL0qEEc4rm+Cb/enj+6sthrKolehTAn6OHjCJ4NbNm8XHo022+/hnJz230Wfx4Wv/0jKn7HWRSzsMPEEPR41p7M13lF19+BbB26NaFnGIZhzHxs6LYBZ//HN+nMf/umS4WEly0pNKIcjjjdkSSTYdGTkRf4Q2ChZy3d2iQ9azhGo5CoCD8eqdDV6kWXs0U/Phw4LkkciyUqnesTQYiX/teCZ/NyS7tp3i/dQx0svDCjFkO4/U+9Rb3feJmGXj8oM13rtv8y1lqh58HnzS/skiHj7p+7nbLzO2WihW8/hobHDpyii3/zHA2/cUjeY6vUP5d+YI+e2UejHI7UK734n3xMhm8NwzAMY6ZjQq8BZ/87C73gGb1aeVGPKX18RmiEDQ/OZdIq+gp4RRqb4YM8X0YVnLN5YwDEnXNRP07j+T9MnqjGs2TDkpjt2nLtSprz0Vuo64HtMhRcxMSLNw9R3xNv0ui7J6h0uoc9XSlfuKb9CbPLC88DAZtfMZ867t7KYQu1blstnxk9h6XzfdS8YRll2pukR3P49UPU//RbNPjCbs7r1+cWA8J6w2aETOnjMhb/UxN6hmEYxuzAhm4bMPjyPhr84T6XCqlROxHeDlsYnwr4cD7e8Vosyyu9ZObriM6WxRsqxDYWhPESVTCsiSHOIKAXT4ZkZVi2QlWIPMxQrQufl0UUev3Qi4gJElieBbN184vnyCLGqAe9etI2LNMSCMYY134h+LxYxiWfpWxnKzWtX0Ltt26k7k/cSk3rFotH+WI/Db60h4Z+sE+fNcRSLnNaqbByviwBg/OWeof0c8lM31r8uUB4fYM2JOIxbdyWdhu6NQzDMGYBJvQaMMQizwu9aMatkEhE1JE8AtKR3Eg41c5UdYSzSJ1fvJ8ayeeySWmj1Gs/BByeC8RzfZgc4UVXfkm3LtOyuFsnY4yMs/B075WdRvsx2SPPZbse3E7dj9xMnfdvpxzeBsICEiLv0qMvUd/3dtLQzsM0fuyCvPmigMWTOR/v1sXyMqVLg/rM4gCLTebHdf0hOk3oGYZhGLMBE3oNGEKPHodpE+oPURZOXkCleKXxI1JX4tQqm+nC/tXxsog5ec8stzPbhRnArTLkmp3bQflFXVRYuVDeN4t1+3ILOnWmLp4xRECP4JK5sghz86ZlsjYees067twioqp503Ipg0swuuck9T31FvU/s0veqVvpHRIxJ0O0ExMyK1cWh8bs4bZmwntvMckEbWu0ULMwjesPkYd2GYZhGMZMx4ReA2To9uW9ugabiAhWCxAMTlCEWgI2ZxaiPLEjxztOLheXVGOU4qTvyUJO7OV60sRBTIk6fRkg5S7TfnmDx9AYjR07L8uaQGBh2BWzcDGk27xxqYb1S2QtQPTUZed3yFIwORZm6H1r2bKSWrexwLtpPbXfsZlF3jXUdvN6WcQZ6/HhTJjJO/iDvdT72Cuy+LEMC/P5MFRd7hmSHjypu50FZlcrNbGwxBAw/CAIIUip6mbh1vnMsDmzEOWJHTnq2H7rJhN6hmEYxqzAhF4Dap/R80JCJEOoKhx1TEqovIAXJ6BeoSnyEW1UFITiMCzg/cUU1otn8PBGjDM90uuGpVzS+ZwIOQynIo5hXcycLaxeJGvhtd+0gTpud6LuxvViwwLMGKJFj1wqm5WGpFxjUpkUFbG8zMmLNH7qEgu3YtSEarEkPXt4zy4miWB9P3kXL3oUl3SzCBygMudX3TBubfs9dUxKcP1N6BmGYRizBRN6DUBv3uAP93LMCwWvmjg9paqAT5wpqdCXDUEtAWwVw+SKkzXWh6WaHCc/NReWDs5c68ZiD5M99Jm9YZkRi/fMQmRhQggEG3r7Mq3N+r5eDO3i/bpY5JnT6ea8iDkslYIZtSO7j9PwziNSFv5YRw+iMdOUkyVfMNEEiyJH5y6V3TBuRdLxMK4O5WLoFs8Soo2yzMyUFyR5tSQV+JrQMwzDMGYLJvQagN68AfToTRIVMHjRxCS1heDfrTqpbD0727wYkXe3SgRGRLwjp33ZSbCPdwPiB4MrEOYJQR5A1PlgKLd0cYDGD5+l0X0nJY6FmyHY8CydvOFjYFSHVBGw0HHvoCx2XDzdQyN7Tsg6fIMvsUh+aY/MDs7OaWOR2CQ9hLlFc3AWnVnLdWNxZMLjdxN+GBevPBuSnjz0IsowLiZqpFPSqyevScMM4/CZvaD9nqmufweLPIg9wzAMw5jp2Dp6DTj9/3ydTnEAcqGcaND3puqlm6QnfKTRlY2raEzDOtkhUjZMHT8xuXqm1X6O4NVo6KmTRZ0l5HWiRCcmbLRQKp/jCiao3McCTF6hNiIzdPHKNCyNgiVcMBEDa+ct+M0HqHndYqmvzMJx4Nld1PPt12nwlf36vJ5rfyqTluf/WraupHmfuJW6HrpeJn2UWVxCeF74q2dpCIsqn7ok/lO232fUsPT//Dgt4WAYhmEYMx3r0WsAevR06BZEUkJifqjU22N9MUl6KJFZI5G/iC5HTRGAxVJizVLrEOcoyXTSO04h1rj9HK9W9fk5LK/ietNKvYPSE1c63ys9ePLM3fELLLx6ZJFjfRvHmAi9Ktbz47JlFnJ41VsKy66w8MMQcLqtSXr5/JqBOozLZ5fnBXUYF+Xx/GB2XqcO47K4RBkM76ItlXE3jMtMbn/8eQVn7rgNQ7fWo2cYhmHMfEzoNQDDtgMQek4k4BA978UJSWtK4YS48q5GZiQQH+Cc6tUjcIb3nSo/JEyKS40fDj9S+ydYRpUrVMGzfINjMpSKoVtZ3NktkSIE58DCzRB+WC8Pz+nlsTgzhnHnY+kWDONSNIyLOlAFxB4EYskN4xaWzpVn9XKyqPJCqR5Cr4i3Z6DnMDivxHhXt/1MOwu9DhN6hmEYxiwg7Y7GZRDhgaMmVVM4G/B5EnxkGoTlJiEnTeYmYlF+TDLl8K4aFXy1UToMPjINwnKTiNqnuRPlCRmu7X/mbTr7+Sdp7NBZ6cnDRA68fq37IzfKLF708oVg9u/QrqN07s+fpMGXdssSK5jw0XrDWpr7c7fLciwQj/5MV9J+wzAMw5jpWI9eAzB02/+DPRKPZ7OykpCeI+0+Sk31bBy6zqK0llHUjiwxiTphonyHLxvVU88vTEQFtE6XFVfvfTXvJ97+alV6AsuDIzJzFs/dae8eZvI2kbzvFs/3YShXntnjYujZK5al5xDr8OH1aLmFc2QYF3Gs/YeZuJWBYT2XPyeYov0dt222Hj3DMAxjVmA9eg2I56rgyS+/wR7t5AA/CWLREOXLpj7O2VvUJrEoKw6RXf3jdBi0Dg1q04jP57SgNejm7Lpzfji6PBeifNnUxzl7i9okFmXFIbKrP+J4bm/8dA9d+uYr1Pv0WzRy4LQM6xZWzKPOD1xLc+7fIevxYZgWiyVLPTILuJ8F91669K1XqXShn2sieYNH6+bllGfhd6XtNwzDMIzZgAm9afHehIGIC41GqM3naG6tT2Nqa/ExJUpFpjjvSojqCVCbz9HcWp+GsHAr9w9R39M6jDsaDOPOeXAHdX/kJmq7eQNlWvwwrp4BS7iMHj5LxTM9VB0eJ8rgvbgdk4Z7PXELY+rZDMMwDGOmYkJvGriOISXoFdJeJLU5kwoJiXtD7OdDpDYkzXl+Ez8N4hgF5xekNSTTcXk1CS4dGSRTg/fVuDNHLt4Q+/ngz4cgeX4TPw3iGAXnF9rKVSqe66WhNw7SxUdfosHXDujCyiz22m9YR3MfvpHab14v79mFO+rAUG26kGUBWJC3ZiADw7ro8Yuqnk77DcMwDGOWYEJvmqhIYMHg42pmnM3tVUlobsLubGCSpU5CtzAFnI13chqgDnFaUGNcTvN/1tovw7inLtKlb75MvU9hGPdUNIzbde911PXADmrdsZbyy+ZSdn4XFVYtoJaNS2VdPqzFhyVWIBbxzF90tmm03zAMwzBmCyb0GhFqhCn0QixjkiTd4eUt70V+uDJRAa2vYR2hwxTOWsvkrKR7eLYwNl1cmaiA1oelV0p9I/K83tnPP0Gjh85QxQ3jdj90Ay3+7Ydo6R98lOb/wp206Dfup4W/9kHKzeuUGjBxY3j3cXnmD9S2Jdk+PV+t1TAMwzBmMib0poWKBNlYqURH1gsiXIKgdg3q4A4cknGfwCEuE5lr7L5+7IKo20kkKIfgyrn8aIPdH50vJ6Pgy0lZCe7AIRn3CRziMpG5xu7rxy6IcuB0pSw9c4OvH6LzX32JBl/dTxUM43a1UsvGZdR55zUs+q6njts3U/PaxfJ2juLZXhp6+wiNHTkry7b4SpPnRHAHDj4uvoZhGIYxCzCh1wDIEtEGgUCI4l5B+EMQNN8dnI/302MsSNSEuOYjDTTfJZi4nlpfpNUQ1Sl52NQHaYmEcXFCCKIu+IJycD7eT4/BucSEuOYjDXw7PHE9tb4T8sq08VOX6NI3XqaeJ3bS8DvHZVgXb+YoLJpDrVtXyuLKeEsHRN7gG4eo/7l32adHJnJE9bmg53EHfyIcXNQwDMMwZgMm9KaBCAccXYhRC7ZafI4vrGlPHEvmuGNo4oiIkyir9myaTtrVIv9cCKwBaqmtEficn2T7q5iNOzBMPY+/Tsf+05fp9OeeoP7vv0tjxy9SqXeIRvaf4rw36NT/+had+bPvsSB8Q9bPq60R+Drrt98wDMMwZgepCenuMKbixH/9ezr+nx9VkeAW3HWHBP4iIq/eBQ3tvnytX229YX60pjE7ITqVb2QPDRyXpMusLQtq3CcR2n35Wr/aesP8K2m/zK5tzlN+6TxqWj5P3n6BdLlvmIpne+T9usWL/fIuXF8wLO/jIaF95T/7OVr+f33SpQzDMAxj5mJCrwHH/8ujElQq1COUGGAqmQGQx3FRHS4uhHFHmBXiFFNqQh2i3iy8BQIHSXrrZeqPcOWnPCGoqQfJq7j9K/75z9EKE3qGYRjGLMCGbqdNPQFRA1wauoVOobPao9woUoOzw1M3Z4rsGpQwFVunJFl4CqaqU+1RbhSpwdl/uu03DMMwjNmBCb0rIBYn4eb0BSuVKM27KPhyyPfp8OjtzuYTcRlYXVpskQunHOKCPBe8yQWPlJ+0OT8p59K8i4Ivh3yfDo/e7mw+EZeB1aXFFrlwyiEuyHPBm1zwSPlJm/OTci7Nuyj4csh3aYkYhmEYxizAhN40UNEgu0SIhAknFUQ47bbY5B3gy3EX1McHPaiVt7jSqExsUh8p4OJ+E1uUpXEtHkWioG1HYF8BEa0HW2zyDvDluAvq44Me1MpbXGlUJjapjxRwcb+JLcrSuBaPIlHQtiOwr4CI1oMtNnkH+EbOhmEYhjHjMaHXgFg6XA718rGYpD3K44jXG5Et6ZEk8td2eK+JqoawmEZjL227tT+OGYZhGMbswYReIwKFIFHe1QZkhHEf1MYixWVGPVCcLbiIZns/Zw9sSApiR4aLh3gbsoMQ+krU2Wt9wrgPavPtcm1B4GzBRTTb+zl7YENSEDsyXDzE25AdhNBXos5e6xPGfVCbb5driwTONwzDMIxZgAm9hkCoBCIh2ERNRKmptthL4EOcx5uvE3YJ4uBcw03NU6d5C9vn6og8kBfm81anhjpb7CXwIc7jzdcJuwRxcK7hpuap07yF7XN1RB7IC/N5q1NDnS32EuTg4oZhGIYxwzGh95PCK45a6thjiZIk6YqYH/cMfINkoLl+dIJ6E9SxX1XtNwzDMIwZjAm9Bog+gOBwQsH3LHnhoGkcvaM7SAh81V2D5GkIifIRXFlfXo8+HoewUDLpNthdQEZYZ5zGEWm1+3TCV901SJ6GkCgfwZX15fXo43EICyWTboPdBWSEdcZpHJFWu08nfNU9CoZhGIYxGzChNw1ULDjR4EiICBeXpO5ckH8cdIvtLvgcjks5l9b8yCXOnxRSQZJ3ifJaRrYg7ZE8sUvCpdXuIpLH/7QOSdQEn8NxKefSmh+5xPmTwk+r/VKFYRiGYcx4TOhNExUMl2eq/CnLJjJUrCAd+oYuod3j80M/UOtbm1+PqfKnLJvIuArbbxiGYRgzHBN6jYB4gUyQIw4qaLx48MHHJtmDRBDVABuCbB7NlbRGHd7ujcm44CpM2GGLjjhwrviINQo+NskeJIKoBtgQZPNorqQ16vB2b0zGBVdhwg5bdMSBc8VHrFHwsUn2IBHZDMMwDGOWYEKvASIOnEjwETl4wYGM0O435IXxmsC7IB+VO3w9YnQBvt7OFkxhqEocm3eLfTSNDMWX8xH1g7+WSdj9hrwwXhN4F+SjcoevR4wuwNfb2fJTbz9vhmEYhjEbMKF3BYimqImptIhTNVlBRogXG3Em6w8NLj0lYTEXD03Ap32dHm8PYziGqZqsICPkam+/YRiGYcwOTOhNC1UMKjwC5eCVCAftKXJ4e6Q0NB33KAXZl/MJNp+HI5JicpsagI9r8LlRmg9ShyeqD3nel/F2V06C93F+UfblfILN5+GIpJjcpgbg4xp8bpTmg9ThiepDnvdlvN2Vk+B9xG4YhmEYs4MU/+Kz33yX4eTnHqdTn/sex1KQGqIZUqkUpzXOZjlMtru4ENsnxK5JjXofh/i4OJfDWT34SWkW7/mflzbwiurBQZxce33Sp/nfbG//sk8/KMEwDMMwZjom9BpQvDhApUsDLmXMBHJzOyg/r8OlDMMwDGPmYkLPMAzDMAxjhmLP6BmGYRiGYcxQTOgZhmEYhmHMUEzoGYZhGIZhzFBM6BmGYRiGYcxQTOgZhmEYhmHMUGzW7SygXC7T0NAQVatVymaz1NLSQplMxq0799MH7UJbflbaczlwuyCk0/Y3kmEYhvGzz4wQesVikc6dO0ejo6OUy+VoyZIlVCgUXO7spFKp0ODgIPX391Nvby9dvHhRBF8+n6d58+bR3Llzac6cOdTU1CS+IyMjdOnSJers7JS8nwRoD8579uxZ6ujokHD69GlpE9rW3NwsggrtGxgYkFAqlWjhwoWRWAX+c6I+tB9lGwHf4eFhuR4433RF5vnz5+V6og2tra3y/80wDMMwflbJ/CHj4lctEAf/6T/9J/qLv/gL+uEPf0jbt2+XX/azudcFwufZZ5+Va/JHf/RH9O1vf5u+853v0OOPP05PPfUU9fX1UVdXF3V3d4vAe+mll+i//Jf/Ir1VO3bscLW8v/T09NDrr79O/+7f/TsRfBBO/+pf/Ss6cOCAtAuCE0IMn+XJJ5+kP/uzP6MvfelLtGLFCvn5QuyBF198kf7yL/+SHnvsMfG/5pprxD4VEI74/D/4wQ9ofHxc6ppuD+df/dVf0f/8n/9ThB6uX1tbm8sxDMMwjJ89rnolhCHJY8eO0Ztvvinh3Xffpb1790oP1mzlxIkT9Pzzz9M3vvENEXHXX389feITn6BPfepT9MEPflAE1Ntvvy2i6fDhwyJ6EA4dOkQXLlxwtbz/oFcNvXE4L3rJIMwh/o4cOSI2iDCAntq33nqL3njjDdq9e7cE9Kx58HmR74enG4Hzovw3v/lNeu2116T+6ZQDuD4HDx4U8YneRcMwDMP4Weaq79E7deoU7dy5k5577jn5RY8elkWLFkmPy+LFi8UHv5DRYwTxB2GBITv8ooe4gR3gFzeGf+GDfPT6oHcI4gMiADaIEJSDD4YRIUTQE4QAf4gACCv4QbiEAfkY5kN9qAt1+PMhH3WhRwnnBGgbzoW2+zjqRnvRHt+2erz66quRiLnuuuvoN37jN0To3X333bR161Ypi14ziOJt27ZJ+9EO9IZee+21dMcdd0g9uJ6N2gkb8vx18G3ydjwTCDvA58Zn8Nce1wsi7YUXXpBexBtuuIFeeeUVGYrHsC3ahp8n/L785S/T0aNHpT4IVfTqrVq1Sq7rM888Iz2S+KzozcXPHudBOQT8rFAn2o3yaBdE45/8yZ9Iet26dTJsjLbj8+Hz+p8z/r/gHP7zQUBDVKKtaNvY2Ni0fy6GYRiG8ZPmqhd6+KWLX/LopVmwYIE8f4ZfzkuXLqVNmzaJD37ZQwz+zd/8jQwVogyGNCEQ0DuDX8wY5vzc5z5HX/3qV2nPnj3yC3/58uUiOCBQUB5Dg1/84hfpK1/5igz7QWTOnz9ffuFDKCLv0UcfFZH1xBNPJAIE27Jly0RYQID97d/+rbQB50M7zpw5I0OXaDfag6HWP//zPxfBhKFW1P31r3+d9u/fH9WFttXjW9/6lrQV4ulDH/oQ3XrrrTLMiXPjHCtXrpQ4hMvq1avlCOEVCj2Im5dffrlhO3Guv/7rv5br3t7eHg2n4vyw42cCO0QQrv3f//3f0xe+8AW5JvgsqO+dd96hG2+8UQJ68iCwcP3vuusuubYnT56UoVm0GT9TCDeIPAzRQoxiWBfC7cEHHxQBCKH9pS99SX7e+Fnhc8CG5zYxJPz000/Lz3rfvn1yLoT169eLEMT5kYfz4TPj/wrEHIZ38bnxfw3XCc8CogcZPvi5QDjjmuHngmf+DMMwDONngau66wHPk2HYFsJsw4YNImhwxHDk8ePHpRcHPhiag6Dwv6TRM4TnqyAIv//974ugwi9t/ILGL3CU/+53vytCDmUhtiC8cB70/GzevFlEBwQKehLhD7GEOiFs0JOIALGCMrt27RKxCcEAkQehgZ4rnA+iCyIJaQgpCEr0DvnhVwgmPIOIXkr0FqEXDs/awYb6QyCmIHxwLgjPjRs3iiCCQIEoQ4DYgTi9/fbb6eMf/7hcL3ymEAhb9ApOp524zhBwOGfYHrQfdogotAU/J4gifH4IIpwTZXDdfa8q2obeNVxblMe1R3kIPYhb5EEMoscNAfn4GaFHDdd/zZo1UieuGUQc2o1rgOuGoWqIUgg+nBs/H/Sw4mcG0Qpf+KCNEG0QrGvXrpX/IxCR+H+CawtwXghA1IXeRbQbP2fUj58L/t8ZhmEYxs8CV63Q86IGQgNCAD09t912mxwhDiAU8IsYogK9fd4XvUH45YzeH/wihwCEqIO4+cAHPiA9YPilD0GDOuCPX/Z4LgyC4b777qNf/MVflCFQ9IJBPELoQUxhOO/++++XOu68804ZQoRAQY8WBCTaAsEAsQNRdM8999Av/MIvSFtwfggjDGOirQgQDehxRHsffvhhOTd6nSBW8Zm9QPKgfrTVCxL0LqEHqxYIPvRgoT4IIYidENQBkTfddkJcoS04v8fbIW4hlCGe0DMJP/yc8Kwgrg9+Vvj5AC/00FMJIQeBiM+JZ/Zwfbds2SLDuWgf6sbPF9cePyOIN/TAIg8CHEINP4Of//mfl+FcnAfnhyiEaEWvJXoLcT74oX6IVwh6xP3PGaIeP2eIPXx2gPbiM2F290MPPSQ/c/xcfC9v7c/FMAzDMH5aXLVCDwICvTYQQ+iZwTAeJh3gFzN+ycOOHprwly5+GUNk/ON//I/lFzR6h+AP0QM7ergQUBd8IQrwCx3CD3b84scvdfSS+VmX/nkziBSIpptuuknECHqlIFTAL//yL8vzcehdRE8Z2vvII49IGyAybr75ZqkXQhI9RegxAhCHH/3oR+kjH/mIiC3UAzEJIFwgakJ876V/Hg3tfi/Lf0DQQOhOt52NwPIpGBKFGIOY/s3f/E35TKgX1wVCGOAaQnyj5xB1Q5hjYg16AzEki95HiFf445qjFw3/ByD6kQ87fp64ZjgHxBp+Vujpg3hEGQQIOfjjc+Bc6NHD9cT5IMzxs4ZYx8/yH/7DfyhDyBDbAOfCzwXtx7V54IEH5P8Ffua4/vj/UPtzMQzDMIyfFlet0IOAQy8Lenvwy/VrX/uaPEuG56XQ04Ph2XBYEMIHv+wxtIoeHfR0QajhiF/6+GWPX/r+mTv0ekEw4Rc7hgXxSxw9WX/6p39K/+t//S95LgxiEj1X6OGBPwQmzoPeJjzzh/IQMug9Qm8TRARED9oBMQmxCNGA57/QJggrlIUfgPDBM3RoG/wwfIs2Q0RC6Ho/D9oAEYNyaBOuC3q76oGeTAhh9Ih5QQrwedGLh/zptrMWXCsED9oBseavPT4Hrjs+G3pgIUgBPhfs+Bngc6A3Dz2pXujhOuBngzjOjZ47CEFccwhEtBefHZ8Bw95f+MIX6I//+I+lxxafE9fE/6xwThzxWXBe/J/BzxLiD+3C0C4+M+L4+aEHEmmcy/9cIDpxTbzox/8T/Fxs6NYwDMP4WeGqFHoQEfilDKEHwYFfvhhqxEQIPD+GNH5xo9cJfvjFj1/qEAL4BY9f7PDxv/C9uPMgDwHlICjQQ4OhR5wDD/ljeA8iAwIpHK6EP8QJHv7H0CZ6mD72sY+JmEFvFnwhAnBOCBq0A+Bcvl2hQIJwQDnkeeADcYJzIYT45wTxWXAuiGD0VNWCPPSEQaxiQkQo9MCVtjMEdlwzCCrvA7GJ3lHfNg/EHOpHu4GvHz8PiG70sOGZRAhqCEQIKuSjBxafHUIVnwPtwRAsrgt6YGHDzwj/H/A8I56RxPmnAu2EQEOdEHpoF47+/wd6BTFJBXa00f9c8P8JeBvaUe/nYhiGYRg/La5KoQchgV/oEFsQChjS/PSnP02//du/Lcdf+ZVfEVGAX/joTcIwIH4Z4xc3Qi3Imwo8c4Vn4iDy8EwWJil/9rOfpX/xL/6FDKf6YUf8csd58Aze3/3d38n5MUwJH99DiJ4gCBjEMYToRaLvfYO4gKDB0YO2Xa59IfBDWYgQ9C5iuBTPuoWgnRC/eJ4MEw8QD68J6ngv7US9EEzwxc8mHDLH50fPF84VDvf6Z+1Qbwh6/nCtMTSLHj0IUfSgwQ7hhSFcnA9CHgIcAgv5EKf4XFgUGkO4//yf/3Ppgf33//7f07333utqnwzKo24INwg+tB3/x3AOxHEezBLG54IN4NpM9+diGIZhGD8trkqhB/ECEQcBgCE7PCuFX+QYJsURExfQ6wNhAbGA4dL3Cs6BHiUIAAwd4rk+nBO/5FEvxAUEDnqtvve978lbGlAGs1rRkwe8wEGPE9oFEYEH/yGaICQgeDAEiXqQDzHzXkG70LuF5xXRI4YJFej5QpvQDkwwwaxU2NAL5YdlPSjvxdR02omAz4XeQwz3QhjiOUQMtwL44hzoFUPvIsQn8tAeDK9DrIfiD0B0YXjWD42jJxA2CEaIULQNIhOfBfWg/agfIhPnwM8CQg/Ly0AAot0IAO3BZ/QizQs6DNXiHMjHkD8+Dz6L751FO/F/wJczDMMwjKuBq1Lo4Rc8hAp+2eOXPiYJQFRB4OCINIQI8uEH/6nwv7in+gXuhQGG7QCGAP3bGSBYICAgNvAMGIYK/fIhEA3IQxoB+RAUGAJEbxDEEOwQFRAR6JmCiIFAgXhqJCiQP5UP6kBvIs4HoYZn1HAuP1sWa9lhaBsTCCCQ0AMYgt5A5E2nnRBh6K3D8CgmcMAPYhfXxrcRz+Th5wGhhKFYPL+IetE2DB3XLhODoVv0GOL6obcNog/nwc8T50ab0ZOKSSPIR+8jegARh+hE+xFHDxyEvp8NCyBaIR5RF3rw4ANRh7h/5g7tx7I5uF4Q72hz2Ctcj/BnMdXPxTAMwzB+0lyVQg89VfgFjp41THLwz3h58Esev7QhCNADBf/3An5how7MdIXAgJD7nd/5Hfon/+SfyPOBECO+1weLJPs1+rAkyn/4D/+B/uk//af0+7//+xKwVh96qPybGyAU/+2//bf0e7/3e/Rv/s2/kV4ofB4ILAgVf/56NBISaBd6NjH7FCIK77r9gz/4A/rMZz4j75WFsEGPH4a4MfQNUKevF6IWaxJOp50Q14hjePO//tf/Sv/yX/5LEdcQdRBdqBMzViHIIQ7x80A9uIZ4fs77hEDo4RwQkhCJKIs4wM8WbYaQRi8c/BBHW9BeTB6BHUO2OMe//tf/WsQphB1EGp6xhMCEcMR1gpjDe5LRQ4zZuZhhC7H6H//jf6R/9s/+mSzJgvZjhrDv+Zzq+ofX0DAMwzB+FkhNoMvqKgO/qNG7BEGCX+xY1qQWCEH0MqHXB6IPv6zxSx3r32EpFYBf7uhRwi9n1IFeJ4BeL4gViB2IBgzvYZIHeqnQG4QhRAhMiAUIFwgNBMTDZ9NC0JMHkYeyaDt6tNC7hMuPz4E2QlDiNV4QP2gD2g/hAUHie92wbh/sWPoDItQLtVrwudEThQDhCYEGoYPzQzyhLbgWqBc9Z/hsEKqw4XPDBjHbqJ3oKYMYxLXFOSCI0QMHoQcgOFEGvYv4TPBFGQg2XFu0H72kt9xyi3xWgGf2MCyOd/WiPvTSQkyi7R6Ia/Q0QgCiPfg8wLcFnxk/N/T84fpB8KJ9+KMAPb4QjxBxGErGdfnkJz8pnwd/FKBnEkPA+Mz4ueKaIKDnENeo3s8FvYCwo+7L/VwMwzAM4yfJVSn0flpgmA8CCr/w0UME/PNlEAn1eqfqgUsO4QEBBdAbBdEI8fPjBqIJbYRwQf0QPgi1vaD1mG474QdhB2EFIMimGuKE2ELAtYKfHxL/cYKhc/S0AghBPzsW7UM7IR59DyE+H56zRDvQZnwWXDP8nOGPodz34+diGIZhGD8JTOhdARAQ6JnCL34v6JAGVzpsh8vuhREExvspJtBGiBe0D+eajsjzTLed8PP/laYSecBfQ9+Wy/n+KPjP688D0D6cG2n/s/LtDtvh/XA0kWcYhmFczZjQMwzDMAzDmKG8P90phmEYhmEYxk8dE3qGYRiGYRgzFBN6hmEYhmEYMxQTeoZhGIZhGDMUE3qGYRiGYRgzFBN6hmEYhmEYMxQTeoZhGIZhGDMUE3qGYRiGYRgzFBN6hmEYhmEYMxQTeoZhGIZhGDMUE3qGYRiGYRgzFBN6hmEYhmEYMxQTekZEpVKhanXCpQzDMAzDuNoxoWcIEHlDQ8M0Pj7uLIZhGIZhXO2Y0DNE5PX29dHT33+R9uzbT+VymSYmrGfPMAzDMK52TOgZNDo2RidOnmGh9wLtfPtd6usfoEq16nINwzAMw7haMaFn0Okz5+jdPftobHyczpw9L/HR0TGXaxiGYRjG1YoJvVkMhmcxTHvy1GnavWc/jbG4O30Wom8/DQ4OypCuYRiGYRhXLyb0ZjEYnsUw7cnTZ+jYiZM0XixST08vHTp8lM5fvCRDuoZhGIZhXL2Y0JvFYHgWw7SnT5/jlE6+QC/f6Ogovbt7vwzpGoZhGIZx9WJCb5aCYVkMz2KY9tTpM5yuishDGB5hoccCEEO6NgPXMAzDMK5eTOjNUjAsi+HZw0eO0cVLPdHzeNVqVXr0jh47LkO6NgPXMAzDMK5eTOjNUmSm7W7Mrh11lsmcOnXWZuAahmEYxlWMCb1ZRjjTFiJuaHhYevFC4IMevtNnIPRsBq5hGIZhXK2Y0JtlYBi2f2CATpw6Q0ePnaCxMX3lWSqVikI6rf8tLl66RAcPHbEZuIZhGIZxlWJCb5aBYdjdew7QaZmAUaFMJkPZbIZyuVwU9wEMDw/Tnj37ZSFlwzAMwzCuLlITNqVyVjE2NkaHjx6nY8dP0PkLlyid1l68wcFhev3Nt2jJ4kW0Yf0a8cWQbj6XpxXLl9LqVSto8aKFYjcMwzAM4+rAhN4sQ2bVstjDc3rhs3mnTp+jP/38F+mGHdfRRz/yoLOCFGUyaWoqFCifzzubYRiGYRhXAzZ0O8vA83fNTU3U1tpK7W3tUWhrbaFMOsNirpCwd7S3UWtLC2WzWVeDYRiGYRhXCyb0ZiEQe7XP4yGgazfDeaENfgh+goZhGIZhGFcP9tvbMAzDMAxjhmJCzzAMwzAMY4ZiQs8wDMMwDGOGYkLPMAzDMAxjhmJCzzAMwzAMY4ZiQs8wDMMwDGOGYkLPMAzDMAxjhmJCzzAMwzAMY4ZiQs8wDMMwDGOGYkLPMAzDMAxjhmJCzzAMwzAMY4ZiQs8wDMMwDGOGYkLPMAzDMAxjhmJCzzAMwzAMY4ZiQs8wDMMwDGOGYkLPMAzDMAxjhmJCzzAMwzAMY4ZiQs8wDMMwDGOGYkLPMAzDMAxjhmJCzzAMwzAMY4ZiQs8wDMMwDGOGYkLPMAzDMAxjhmJCzzAMwzAMY4ZiQs8wDMMwDGOGYkLPMAzDMAxjhmJCzzAMwzAMY4ZiQs8wDMMwDGOGYkLPMAzDMAxjhmJCzzAMwzAMY4ZiQs8wDMMwDGOGYkLPMAzDMAxjhmJCzzAMwzAMY4ZiQs8wDMMwDGOGYkLPMAzDMAxjhmJCzzAMwzAMY4ZiQs8wDMMwDGOGYkLPMAzDMAxjhmJCzzAMwzAMY4ZiQs8wDMMwDGOGYkLPMAzDMAxjhmJCzzAMwzAMY4ZiQs8wDMMwDGOGYkLPMAzDMAxjhmJCzzAMwzAMY4ZiQs8wDMMwDGOGYkLPMAzDMAxjhmJCzzAMwzAMY4ZiQs8wDMMwDGOGYkLPMAzDMAxjhmJCzzAMwzAMY4ZiQs8wDMMwDGOGYkLPMAzDMAxjhmJCzzAMwzAMY4ZiQs8wDMMwDGOGYkLPMAzDMAxjhmJCzzAMwzAMY4ZiQs8wDMMwDGOGYkLPEFKpNLW1tVKhkHcWwzAMwzCudkzoGUJLcxNtu/YaWrZ0ibMYhmEYhnG1k5pgXNyYxYyPF+nEqVPU0d5OC+bPc1bDMAzDMK5mTOgZhmEYhmHMUGzo1jAMwzAMY4ZiQs8wDMMwDGOGYkLPMAzDMAxjhmJCzzAMwzAMY4ZiQs8wDMMwDGOGYkLPMAzDMAxjhmJCzzAMwzAMY4ZiQs8wDMMwDGOGYkLPMAzDMAxjhmJCzzAMwzAMY4ZiQs8wDMMwDGOGYu+6bcBEXz9RP4f3m5Qe8NNw0WmDH+CVlvmxczW1v7OTUl2dLmEYBhgdmKDRQft1MJNobk9Rc8dP/beD8VPGhF4DSt98jMqPPeZSjFytlAoT3k14mSJ2F5dMd1mdv0RSLl9wceeWiqOMT/hMPQiRnY2hHcQVTM7ziM/sbn/2kUco99FHkGEYhmPXk0Xa9VRJ4nKrSMQdPf7XBW54xruB8LabVC5EfNghOoljqrKRHRFkBo41ZRKuEnFHzyxr/9YP5uja+/OaMGYtJvQaUPrLv6LSF/9S4skLhTup5q7idGidkqmcRC1NzphWnZPwbUJMSyfrCGv1vrOj/flf+1XK/eqvuJRhGOCVvx+nVx4dd6mYKe+py95s/p4E9ZzCwt630Z3rmOq8U9incp86A/g2gUYn875TVpZkqvNOYZ/KfeoMoG26+ecKdPMnTejNduwZvUbwjQTtMlkPw+iikVNgqgUZPlOOE0lNJPmhIUbM9bMUlyeHyI8j0iY9j7XfBcMwpgQ95PHmbP4+dGnvJfccYpIX2oDmaRCvxEZUDVK6ef/QooQxjgfn1TzNR9KX1E2x9huzHRN6DQhuoeS94+4fdw9OH1dWywT1hsfpAv+wDMclGTQKe2t/wJX4GsYsx98uetQ7MbJxpPbeQzIUMCJCQieflcD5ulhMbIk9NOGrdAdGPWrxFj2ihqgWqSNsGkByJrXfMIAJveng7hd/m0VbdKclbXVDzYZ/gotGOZcrO8meLBfXFMRgR8KlE5vkec/YVjfUbPgnuGiUc7myk+zJcnFNQQx2JFw6sUme94xtdUO4cdowjBpwX0QBB71X9G4J81wIQVJsGrQsMgKCtFbh7kWJxzaNwEnT3ubjyIrQrMgnDmqL/cM8F0KQFJsGLYuMgCCtVahfsmofgZOmvc3HkRWhWZFPHNQW+4d5LoQgKTYNWhYZhmFCb9pE95YEJMScxPnEfkHcwwZfXPI4JhtsLmgm4rBPlYcjdkhi06RafL7GgeR5W+gY4nxivyDuYYMvLnkckw02FzQTcdinysMROySxaVItPl/jQPK8LXQMcT6xXxD3iMEwjFrkVnH3jNyR7uaJ7s9JoWZjY5Qn8WBjQ+3m0TgKSCGXir18WpD8OhvsYeBNIj5fi9aEmo2NUZ7Eg40NtZtH4ygghVwq9vJpQfLrbLCHgTeJ+HwtWhNqNjZGeRKHDSljtmNCbxrEt4q/jWqoY55kShh8goO/OwPcbetSSVwpoa5f1QXG+8YeyVREHfMkU8LgExyuyvYbhjE1wc3iot7irIK/f3Vz+aFT6CxEXpKKqGOaROTjIy7U+f6J8+OotzirELY+yg+dQmch8pJURB3TJCIfH3HhJ9p+Y7ZiQm86yM2od03UQzXFpndXHNTf5fAOAcQelyFyCL3DEESlYg1ytuhkYRwHtAfW+pv4B2Gmtt8wjMlEdxHulWCLbh4O/p6COQ5xIrHV+GvcH12o3cI8DrwL6tVkZBbC/MAn2MJCcb1RUc1zicRW469xf3ShdgvzOPAuqFeTkVkI8wOfYAsLxfVGRTXPJcLNMIAJvUbwveJvIX/fyC0U3HByz4kTIuIgQWzijTiOujlDMi8Ikqf/lMiOeBzU1Uf8gXcOxMJiPgs+4fnER5wQEQcJYhNvxHHUzRmSeUGQPP2nRHbE46CuPuIPvHMgFhbzWfAJzyc+4oSIOEgQm3gjjqNuYjAMI0F8f2iI781kPA4oFMRdHd4W3XMuHwfvk6zb5QU2hKi822rzeacb/IK0z0+eI47HITwnx10N3had3+Xj4H2Sdbu8wIYQlXdbbT7vdINfkPb5yXPE8TiE5+S4q8Hb9PyGYULvisBNU//G0Zxkfpjy8ThXEFOQF92gagGao2siaXwyao9zL+9XD81J5ocpH49zBTEFeVdb+w3DiHG3SHinTBUHPq1BN+BtIT631q5ozlT5U5Zjo/+ukeAiPg2migOf1uBbGNtCfG6tXdGcqfKnLMfGn1T7jdmNCb0GyM0jd6MPYoySPh3DJTgjkVcTavOiuoQaYxRw0Ljf1BgXiQPvpgzq45NRmQi0HUGidUNtXlSXUGOMAg4a95sa4yJx4N2UQX18MioTgbYjSLRuwMEwjHqEN0p4s8T3rN80MwiTbsogHR4lLikJSpxK2H2Cy0w6s4vEVhDl8j/JdMQl/aaZQYjaVmOrPUpcUhKUOJWw+wSXmXRmF4mtIMrlf5LpiEv6TTODELWtNhizHRN6jeD7RIVDEFwWbir+p7eT+LmADXmyufxE8HY96i4m6aMW1IfKxYajDy6P/2nepHSNPwLbBEl7nyBgQ55sLj8RvF2PuotJ+qgF9aFyseHog8vjf5o3KV3jj8A2QdLeJwjYkCebyw+C3xuGUQPfGvF9hKCJ0IbfGrkmouZOora5aWqbk+Z0KvYJfCVwQraJqsYlH8c4oNNf60xxnRy6U5RrRnnvgzI+OJvb8E/ReOQnFk0kbT64LcwPg/fjhPpN3X61wd9tsIVxnx+WdRv+KRqP/MSiiaTNB7eF+WFgH90Zsx0TelcA7hm9b+KYHP1dFQbgj5MInRycjG7Oy+GLhkGIIg5OJ/LDZJjBx1nXfsMw6tHolsGtls0RzV+ZpY23FejGR5pox4cLtGhdNrj1vABRf0+YXxuyea5zFerM0w1c5/aHmmjRGq6Ts+GRJCzrgB+CS06FtKc2OOLklbc/QpJqiwSYZIRofiIHfgguORWu6mRwxMmg/ZI2Zjsm9N4L8R0V4W4tiSUc5G7TEP0l50zqFkUk+DwNGsFB3iObyVJq/jzKrF5NqblziZqa/FkU8XdxhkvKNgmYasyxbxhw4GPUDh/UpG5RREOa/0u1tVF62TJKr1tLqfZ2mshmOc+5+noZXypCKnZxRluU8FAmFQx9w4ADH12I2q85hmGEJO6RyRvyETIZvsW707RwdZaWb83Rsmvy1DEfv0pwZ4mnoDGfcqAKPSRCmr8i2udynSzuVkidWWoP6kSIN055c2Tjzbcdoc4mhXyIrYLGvF2JbQGc9NZkCDbXBqWeB6e8ObLx5sq9r+03ZiUm9KaB3C7+nuEg95qzaYiNsc0Hvt1cEAPAIcpTc5SdSPABAq+5iVLd3ZResZwyW7dQ5qYbKbN5k9iS54zPFZ+P467a+Lwu6uNRJLT5UFuf1qG+sKs5ys7lKbNqJWV2bKfsLbdQetNGSi9ZQtTZwXn8bY7Pg3JSEZMoH58rPp/6uqgEyXI2DbExtvlQW5/WYRhGEr0tsNd7xd834VtdkZfi3xqFVh1inbMoQ10ckI7uMVdOjn4L0+HRhVR6ggotKRF7vs6moE5/5J3Eo83lST6noxDYa9sfxr1feEzY/Bamw2MQ2OR8fNTb4yNyxO43lyf5nI5CYP9R2i9uxqzHhN50qLlZruTega8PAm6+wJJM1cKiKJ+n9Jo1lHvwAWr6zO9S06//GuU/8TEq/NIvUva6a53fZeqpY5zkcxl88ahMg/anujop98jDVPjkJ6jw0Yelzflf/iXK3nknpRcs4M+TU3//ReTwdcQWRx3jJJ/L4ItHZYJzGoYxDRI3EKK61aPGVRJyq2t0ShrlRfmBY8J+OWocpfXcKPkOcvhYjaskptN+MK1rErgk7JejxvGK2m8YjAm9BoQ3VXRz1Rz9zRXHJEt9AnyuBMlPWmXDn8u5HKWXLqXsLTdR4eMfo/zDH6HcHbdTBr1jbE/Pn0+ZFStEVEVtkjoCOOnP4X0i35ojx1zwMclSnwCfK0Hyk1bZstz2RYsovXAhpebN43YuF0Ga/8A9VPi5T4hgzWy7llJzuuRhn6hNUkcAJ/05vE/kW3PkmAs+JlnqExDkyt4wjCT+HpE7xN1joRH3GEyV8gRVq9ETJTKci7gCx6mDv3d9nGMcxz+XF4G4Dy4fcVcOR0V9XG4UJF9CbFSPwOTrii0aorKTQ3RuF+cYh3iTlPdxaRDlu3KarzlBbhQkX0JsVI/A5OuKLRp8WUkbsx0Teg3Q+8zfMEHQfy7uEnycdONJHoI3ubhHfBn+lkw1N1NqbjelV+rQZ/7++0Qc5T94nw7VtrbwT4z90mlKFQoslPDsm6s4OI8eeFezTwT95+Iuwcf31P7Qh7h9eFob3/yA7WkWfFl8nkceVtF6992UveYaSi9bKmI1lWd/N6QbnVJPltgngv5zcZfg47TabxjGJHCfVd39I0E2teums06r1Qkqj0+I2MN9m8mmZDJFRm5jtsk/v4Vx3cSibhL3iWpF7RjIwKO+CKIdxcWVwRE2NSftfJxO++HHCQlRnisDG0JkT5TXTSzOVZ1dQurQpMsJbMFRcjU/Yefj+9F+wzCh955xd1REnVvKu0jwkRq8iYVbet06yn/oIWr+zO9Q0y/+PGVvuolSc+aoaOI/nydGR4mKRVcgSXQatzXGl/DUKeNdJPhIDYFZzhz6VSo0MThINDamaRam6IlE717T7/wWFX71lyl/z92UWriIKF9wVf2E228YhuLvk8S94uM+DUHGt/Qgi70xZ2M1lmtJydIo+I2CZ8oaE9YJgVmlEtdXKU3I33zZPAtIDpikIX5T3r+xXb43ptH+OBnbvAltfy/tj+MBbNKmRBExJ4ntP9n2G7MJE3rTxN97/j50yTjAVhum9FEpM4Eh2uXLKHfrrVT4xMep8PCHKX/7bZTZuIHSixdLD1+1p4fKb7xJxcefoNJrr1P13DkuGePrTZ4INj4H4mJAWqM4SnA5UYCtNkzpg7pdCPIkEjAxPk7lQ4ep+NwLVPzO41TZvZcmRkYo1dVFmWX8ua/dSjmIvp/7BBU+9CBlt2+XCSYpvi7vb/s5YRhGHdzdEtwrzhKFanmCBnsqNDak77xBaO3QSRTo1UMhf//iG0LKucLuIMHHsK+UiYb7q1QcRZ0s8NIsHNsx4SMtYk88eRfVKfUjuDwO8U6NsX9tcJvPizJg0HCl7XfFXDkXfJ4P3gdb5Bfnxzs1xv61wW0+L8qAQYOvW+zGrMeE3jSIbsjopnGJKKhJzH4T5yglm4DxCAzR4vm1VSspe/31lH/gfmr6B5+k/H33isjD0OdEfz9Vjh+n8ltvU/GpZ2jssW9R+fU3qHr+gtYDcL7E+fks7ryxDWbYceS04BJRUJOY/SbOUUo2/NMQRTRw2lelNkexSJUjx1joPU9jf/91Kr7wApV376HqmTM0MThEqc5Oym27TiZtIOTvvYeyW7eI+E2zGMREFEzx+/G3n4NhGDXojaG3SHTXuNuM4+5+q5SrNHipTCMDFSoX1Y7lVuavyMoae57askhjF6W1OolXSsR1Vmh0qCpDw9ha56Rp7jIWj/mUpKUwAsrKVo3TOKB+tUiubpIt50CQRJwT28QOS4x4SJb6SV6YlrhLS1Zyq7UgLUH8sf0E2q9RY5ZjQq8R0d0S31yCj7q8BD6Z8GEg8pqaKbtpIzU98hFq+b3P6BDtjTew6GFhgyHa8XGqHD1Kxe89SaOf/TyNfvEvqfjii9KTN1Hib8NauG5tmbbOmRzIFAeJq4fL9VGXl8AnEz6NcI41vvIVPTLCovUYjT3+OI38xRdo5HN/TsUf/IAF31n25wJ8XdJLl1H+7ruo5bd/i5p/9Vcpx6IXvZoY0tY63+/2G4aRBDcOxAiCgnuwwkJsfLRKQz0VGmBxht64zgUZWrQuR7nmlHTx6S3nbj53/8mbJSJxowefB/HYf6EsdRbH+Czs1rUwQ0s2cJ38FRA5CnFB+VaoETsxSE9uPzbNQ5koJgHEcRdzGZdrfxCJkXzeSbvC/Dj9E2m/MesxodcQf7O4W4cPEnw8OrobEAaHRPHACYsVPJuWu/02avqkDtHmbr+VMhvWU3rRQko1Fah64YIMzY594zEa++ZjNP7c81R+dzdVT56mal8/TeDZPP6CnVS/7AMjcG5xThDjwxW13+N92DmqwwfxRFDimAPP6o2N08SlXqoedb2UTz4tn3Ps29+h0rvv0sTwEKU7OymzdAllr90iz+7JkO6HH6LcDddLDyh6+OJz1h51E4MjiEpCPOCczDEMg5E7g+8PH9QQZbigaTyn13ehQmcPlag0PkFNrTp0O395llo6+ddK5O8KSAijcjfKBp8JN8Gj71yFLhwrS09hWzeLxzU56l6SoaY237OPIEUkeKQe7CMfOIjJBaSTNk3qFhvqBJ8PoqgvyYl6ZTi4XAnqxmkJkUuE9/yxt98wGBN60wH3jB703nER2eQIU7gx6TSlWlpkKZTs6tWUu/EGyj/4ABU+9UnK3/sByqxbR6lMhib6+qhy7DiVdu6k4hNPyRDnGJ7H2/UOVXr7aKLM36j+nEIU0TZEeRoJvyj0ywLB52rSR2STI0zJTZyQVxO0sGRpWoIz+3wcgDtqlqtjbIyq585T8dXXWOR9l0Yf/Zo8w1d6512qnGZROzBIqY4Oyl13rfR6Nn30Ecrf9wFOb5WlWjA5JeWHdLGhTjlHcpOz+nMGQVtjGMZkcOeE94veLRqwhWkWeizKTu0v0thwldJ4W8acNC3blKOuhfzdhwf3nF+iniiCf37TOGac9pwp04k9WicWUO5emqWlG/PUtSAjCzXDOa6DSyFwFGhdzibBuUV5YVpDsJOj1hdubOWdHF3cJxI+NRtQXzg6q49rARdHjiI+2Lwd7mL3eWFaQ7CTY237DQOY0GtA4oZy900QrU+av+VaWyh7zWZq+vhHqeX3P0NNP/8pyl2/ndIsYiACIXgwUWH824/TyJ98lkb/8m+o+NIPqHr+PFEwROvPhZt+qrP6fPVJInmJSCI6JVP5qH06NSjiFbhGJfGFhCHdEydZ2D5Jo3/xRRr508/R+AsvUuXUaZJFumRIdwnl77qTWn7rH1EzFou+/4PyejW8LeRyROepYSq7YRhM7c2RuGF8QsPAhTKdOVDiow63FlrStOaGJlq0NkdZDLc6sScE9WjUJWroPV2i4++M0WBPVXr10JO36fZmWro5R3kWfiSrNk2qLEpGR0+YFyVckC9MHDVa7/szwrnG0amdkYNB3kk+3Hy1aA2JqEtGR0+YFyVcuJL2G7OazB8yLm7UobTzLSq9udOlLgP+hM1kdTbptusof9utlL/5Jspu2UKZVasojfXi2AeTKTAhofTDl6n48qtU2rWLKiz4qpd6aGJ0TAVOHbBuXmb5csqsXSPDm7irpW1vve08GH+ny5/T/q4Pv22nyxRlE2aXmEj6YF08CLP03G43GeMIVY4eo+pZzBb2FQAuh/ZWsFbDKE0MDVG1r48menqlxw/XaaI4Tql8Qa5dur2dRTIHrjezeDFl5s+THlO5ZhDGiet2+fZDcOd2bNeEYRjCid1FOvbuuEvF9w5ieusk71+55fgezjenqaUjTR3zMpQrpKlc0mHYod6KxMO7MKwhxPvg6wCTMXJNKWpmkdcxNyP1e4Z6VQBK7xjw3z/RSfwZ4rMiVq/9sUdtflwCTPabTOiTrGcqnM/73P4VWwoSjNmN9eg1gr9Q4q70+oF3fCUzLELmylsgCh96SGfR3nM3ZdaslvuuygKmjEkWb7whQ7Ojj/49jT/xJJXe3U2V/n6aqJT51kzWmThHHWD1vgiSlgykvTlZT73Auxpbsqw3RJvYnbl2Y1uSIE9SPrjNVYSlWCoXLlLxtddp/NvfodGv8vV59jkdwj6FId0BSrW1y6xcPOPY9LGPUuHeD1B29Sq2t0k9cZAqo7Q3+E3ShmEkSN4W8b0ix2jvA2+chyHWIzvH6OyhovTqYXmVxWtztP7mJupcCOEX+0pwW1iT85ANiyaP9Ffp0GtjdBrDwkNcZ5Zoyfocbb6jiRauzoqolGFcAeVZcUrjETxa32Xbj821y/shTz3EJHHZnJ/f1CcO0SZ1wRTbJe7KukzdYyex97P9hmFCb3ronXVZUm0tlLv1Zsrffaf06KEHSoZoR8eosv8gjT/2bRr54z+lkb/+W+nJq1zsoYly2ZWugz+nO69+ydQncFM4ITd5bXiPTCp+2fqSGVO6BdRWJ9fs1Ckae/JpGvmLL9Lwn3yWxr//PJVPntSeu1SK0osXySQNLL6chZi+DLX1G4YxBf5mcSFM1gJbqTRBF0+V6eS+ojyvh0WPW+dk5Lm6DSz25i3Luu+uqb+/UFO4lYpVrrNER3eN0+G3xmh8pCqTPRauytGNH26lVdsK0nOI74G4To7hSw+GIITJWsI8nDeCo14keSGl21T4/HCTarQuH3dHqdsZvF1i70P7DQOY0LsS5AbCzsfjgPfTZhYtosyC+ZRqaZZn8DCsOva1r9MoZtG+8CKV9u6j6ukzNDEw4IYbURh1+YoS0ZhEIgB2F7Qc3+4IYtItgfMRs8QnhwRIR5lB3CM2BGf36RBvSwRtZ2jTKtQ+wWKuOj6ui0UfPy69euNYS/Ab35QJHFU8w8d+qc4OmbVM7ejR0zoSSN2+8iBuGEZdonvQ35gI/r4Jgr9/MVu2NF6VHr39r47KZAq8Gg0TM9bsaKLV2wu0gAUa3nSBAlrOnSMKYpIAcMRM3nNHtc6Te4s03FelAsTe6pwIyC13Ncts3HyTir0oSH0cQquvPAjwkWznI3vJ0rJ+S8KWoHwcfFnn5hGDDzh4p2RIpDhfQmj15YIAH8l2PrKXLC3rN+dkzHJM6DUguo3kn940iRvR3XQTKZ1lm8rldTmR/n6ZWTrylUdp/MmnWOTtpWr/gMyiFf8waE1xnRJzm+TDVg+2uzq0nDfF/loaRo2LLaoTRo7B39UheT5IWrMSceSFQWsSn3rAntxiOypEHVqDHjStYFmZysWLVHr9TZm4AtFcPnZMJnJg/Ebe+YuxHVdHsl04alYiDlfDMBLoHePvFU0l7qcgwDE8QuAdfnOMTu4Zp/7zFUpnUrI0ypptLPa2FahzXkbFXlCHBjFJPdhFG6f7uJ5ju8bo4OtjdPZIkUqjOjlj5dYCXXdfMx/zNIfFHmbn4jeZr0bL+3rqBzgmj3GQNDK0Btnkn5g0Pw7ezsH5yubskY/YLhecv68FtsuUgWPyGAdJI0OCYZjQmx64f3QX3zsS94YJSslNhgw+sNDDM2WYYIFn82SJFNhdmBbiHJeQaJ3S0i4Ed6iLZNf4SNwbnDFMBmZPHdMktD0hlysBb1erO9RFsieoOjbGApqvKwTzmH9oPCjk6whDQB2TYRgJgjvksjeL3k1+AWE8WzfcU6GdTw7T4Z1jNDpYlbX20Ju35a4WWncTeuDkxbU1oLzW4arU4NJ4Rm/vy6O0+4VROsqib5zFHiZqzF2Wo5s+2kY7HmilZZsLlJdJ+FFhJYhORn19+6eEs/SrXf0nc5n21xBl1cXnBh5TOzPq27D9hsGY0GsE3+W6+dspjtXi/WQHcVcqscjjgBXVgyJSA+/0CwRHLhcZXPB+Ll9i3hDgTXpu3QSXIdU5q+bEsXpIrj+f7N0WFFEfFySOfGcIiFIuS7KDuAQ1cYg3wWWoj1oxpCvPNcrags4vMfdMinCW7F3abd7dMIwpiO4W3ty9lIhfLkzw112Ves+WWeixMHtxRJZfQc/enEVZ2nBTE62/sUkmVeQKyXsWJOrim9XXWcHkjAGs1zdOe7jOfS+P0KVTZcrkUtQ5P0srthZo690tdO0HWmnphjwVWlMyUSOub/rt95tY9ItHUprr4mKPMiJ8voSg/dERZRzq44Kkfb7E3BbkRfHLhXgTi6s8OK0xizGhNx3k3tG7xh3khgrMEp+EOGhUIpGzz/ChJspHufFdGvikntWhhjg4pG1cQOtAgFHjsQlbZOaAvw1dIrJjJ0nG5fmgpV0IopKXRM7kysVtQpDMODikbQlfGF08dPRI1hW0v14dhjHbkdsC9x1uk/Beie/HyB6FZBITKSDK3nluWCZo4J24EGVLN+VpPYu9dTdqz54Mt2IkF7W7HTY94qBxH3rPlujQG2P0zvdH6OjbY9R/rixLuMxZmJV6t9/fKs/u4Rm+9nlYkgWCDzWBuO2Xa78HUTw+jQWcvY930g0mrcu7+Dw94uAyNFNDPZsERcycVhfZSVptcRB7FOKoB1HffmyGYULvCsAtEwXeufvMpbGfAu9UjyBPBgE4nnB1+fEjx+8dX4ME3iXaz0F3dYgc6hDkySBCrV+U9o61DtOnfg36ZSa2qaqeXMgwjBrkNoluJBd8NLRF1LOx2BuboEunS/TqtwbpwOvxMO68ZTm65s4WuunhNlnbDUuxUMrfv1xHzZdHlJJTTFBxrEJnDo7RzieH6AdfG6BzR/QNGlkWkug13HJ3K93zy510/YNttAy9e00s9tB5KBVJJT7hqGebmthbWuuO8dao/S6SDLAj6i0Sl5gGHw1tEfVshjEZE3rTIrih5MZEQNLZpsDnRl8FnNCiunmDt8PkkaSzO+9EPhCfaHO+vJMQW5MhrlSPEolRC29ST5AWG8fFpps3eLuYUEmApJ09Dq58FHMp3jVuPx90Vxf14k3qCdJi47gaDMNogNwquGdqbpjofpK4BrHKPTchCx4XRyfowskSHXhthN59fph6WPihro55WVp+TUEE33X3ttKCVXmZYOFJ1qpn0Y3/kOS/JMdHMPGjREffGaM3nxiS4dwzh4oiJNu6MrRgZZ7WXt9E2z7YyoKynbbweZZtystizpmsDhmHdfogVtd+hOS5dRNPXwA+zi8k8nMh3jjFOwkJD9g4P6ovRvNwrLX7zfl4q6snbL9hABN6DZAbzQXcN3IUNKJ2b4wyGcnQPBeNbYmD23tjECIbkognSTU3UXrOHA1tbTrjF31/QVHKF+Tdsamurti3e46UBeqrdePdu6nWFsnX0CVvukg1NxNl8SC1qxQHzHhtbZV88XX1pjs7ibgeReuVLxxXNA74QkqmvS20+7S3yVHQSJz0mfr1FuWK3Rs0IlHDMJLwvRKJBSQlBDY2REE2jWMX+2jA5IziaIVO7B2nt54ekokU6OWrlCaoc0FWhnB3PNhK63Y000IWe61dadfD5+quU6ffsDAzxN47LCDffnZIlmDBUix4Ewek3PwVOdp0Wwvd9Eg7bX+gjTbe2kzLNxfEjnO3sCDE69TSOb8On6s/EWCuZ+cQbfr56+aFtkl5cRmcGyHaIt8gx9uknAuyaRy72MeHKJODMduxV6A1oPjGThp//U1N6B+EAoYEwlso1dpG+euupczSpfpqrt5eKu3ZS+WDh5zHlZKonVJNBcouX0HZdWsoy+cAE6Ojal+zhlJYoHmiStXhEVnexTc1u2ol5bZto9zmjZRdv54ya9dSbu0aojJ/6Z6/4Lz4DCzOINJymzbJQsQ59ssiLONz5fgbuFjUJU0c+Iy5a7dS7prNXGaDtovrzW3YQLktm0V44m0X5cNH5I0g1TN4BZojFXy24BVq4dvUgqh+XwE2ot78jm2UXbKYP3szVS9dpPLe/YT3BoPkVatP/vodEgzDiDn2zpiE6YE7Lbzb6t97Eyz4xkaqdOFESYZ0801pau3MyMxZLIIM8YVh10JbWt6IgTX5qpdZR17R2nG+0aGqCMhzR0oyjIt6W9oy8lwgevBa+FzzluVp+cYCrdjaRAtW5mSNP/xNXC1DNFajhtdrPwi/fzwyJPyeCStyxysGjQpbXL/9q65topX8uY3ZjQm9BkDo4bVlir99kjcYSLe1Un7bdZHQq0Lo7d5LpQNe6NW7DZXo70qYnVsQ5YQKvcyK5ZRbx+ILQg82LNI8b76+BoyFWnWgnyoXL3GjS1xIS+e3XEOFO+5QQcZlc6tWiT/eJVvat198AOpKz5tLhZtuoKa77hQfhMzCBURj4/J5Kpd6vLf0EjbdeTvlt7OI5Lq9f3blCsosWCD1YdFoL/QqZ8+6srWE18J/4sSnD+C/wttrhN5FCL19VDqsQi9ZrF7dRIUbTOgZRi0YDj36zqjE8bdYdMe4v2rj/q/4zppwikf3roT/ItNi0ruHt1tg2HWkvyLDuukMUUtHRt5n29SaEfGHYd1WtmFZTIhCzLjlv10dWp+ch6NyJt7Bp8RiDc8BjnAYuFim/gsVOQ+GczHpA4KyqZ0FJgcIP7w/t3txjkVmXnoT5y7JybnRFhneRb0lnIHPj/NEyNkZfX9vmOeFXyQKGbzbPE5zhH3EjaOxG5bmcjFfPfPjuv6rtmK9QRN6sx0bum0AbnXcPugOl5snvJOdSan9UvCZWoOPhXYJXB+qREqS/ujimlYfwR+ZNAuq3NZrJGRWrZCX/6fwDRoUTs2ZQ7n1a1Tosejz/un58yMfIc3fCi3NIlTFz4dNGym9aBHntbCrL8ABInPZUspuWJ/wz65fJ0O9+JKLcOcIP5PWBfDZkHIWyeSdOvmD+KgBx+ggSFTKaB0++JivO841DKMe0W0mB71jvNGna/P8cKH4qVGP3sQBguzCiSLt/cEI7XwakzRG6cLxEg31VWSG7LINBdpxfztt/2Abbbi5hRavy1HXQhZfLM7wlSa1uvPomf0JICT5b9HhKp0+ME67vj9Er36rX4aLD7w+QmcOjkuPH4Z1yyzeWjvTtJTPhaHdGz/UTrd/spNufLhDnhfceHOz9IAtWZeXiSM4fzuLQohDCMZsnr8m+Tem6i7fBiW6Boi7vaa1vRKbov0+JXGX0IN6emOyZJwXnVuCGPXok8asx4ReI+SGqbld3E0UUZsOqDWrqy8QxHgnp8HR2SI4ES7I7MGiwdWBQaoODsqw6kTRrdnn8gFs1aFh8YkCl8GwagQKoH68tWNsLOk7NKS+Ff429a7YY007+A4PRXVKYH/vK2gBDUCOmog+M9Lu8yEpJo8YEpba5JRMqoupZzMMIyZ5j/hU/F0Vx3WTGN+UegurRZCI5iv6Hls8T/fmEwP0zF/30J4fDMtbNQB68jA547p72+iDv9FNt328g9Zub5Ln99JurWWtzdepZ4tTKvoGWdShd/LVbw/Qdz97iZ76Qo/ED705Sj1ny1Qpchl2xnp7eIXa3CVZEXjb7muju36hix767W565A/m0r2/OoduZhF4zR0ttGJLE3UvxrIwfJLgb9j4zIpvjd/7mCfMrfVAAGE8ToU1+Xhceurrbxg2dNuQ4htv0jgHvbexr7171JbCs2PXXUfZpUtkkgLe04pn9EoHDqqbqwGlE98T08I9o7dyhTw7h540CC0MKePdr3inbvHtXVQ+cpQqvX1JocVnrFzktuzbL++MLe5kX+dfOX+e8/1n4i+ICou34RF5v6z4ILB/afcequAdvcPDifZDAFbwLlrO9/4om128WN/3y/mlQ0e0XVMO3dYjvEL6xaUWvg7trW7olq9zsw7dlvbs4/O4odu4de7oUTusheuvl+FbwzBiju3C2yd06Fbx9xDuneB+4qTvZQvNoXcI7GLjHcQI3oVbHNWh1pGBqvS2Dffpd5Z/hq+5XUN7d1YEVsfcHOWb0/JcHcQcQlSzPyGSHDDcW2YxN87nGOX68RwfztF3vkQXT5bo3LGS9PINXqrI84MgV0jL+TDM29yhbfDDyVirb95SHeZdvLZAi9YUaOHqPM1fnqO5bMczhvBr70bvX1aGovGsIJZ9wUDJhB+TRdv44JsbpcL2J/AGOEzKnETo7Vm1tYlFbLNLGbOVFP8l0Ph/0Cxm8E8/RwN/8mcuFVBz72UWLaC2X/9Varr5JhkWLR88SMNf/RqNfvs7zs3d0LVX25lje+ygT4IoGJZtuut2an7wASrccrOIucE/+zwNffbPnUeS2tNMYlJbNMFSSo6C+Pi/EDkxqQzjzN6eXb2Suv4//zflNqyXnr7Rx5+k0WeeZcH4lnNib+cr5aag9jSezOJF1P7p36DCjTfITF+8Q3j477/O53lC8qfT/o7f/S1q/51Pi9UwDOXZv+nlgOdw/d1X/w7NZFLUNicjQ6Hjw1UWbrjNuEx9dwVV+vwwzhEMz+I5ufU3tNCyjQUZNi20pCmb12Fb9MCdP1Gik/vG6fjuUXn7xkh/WSZulIqYV8b3eJWDb/Zl2o9h1xzX28nibe5iCDUOfO45C3PUxkIN4gwTOeSY1bgsIsDl8DgKnjeEOBxj8Tg6VOHPr+nxERaNfC0Q1IY82NnGoVyCOHVtlObxzjVTD0j7Z/pCPwC79obi2cXSuMvAx4t8mMkflz7wS90c5riUMVsxodeA6Qm9CRZ6C+sKvREWevWJ78rk/Rn/OJJCr4MKd95BLQ8lhd5gIPTCehr+UGva7wmFkj7TO1VNsV94Xszy7frDQOh9j4Xe0xB6O9UheuLY11u/nqnOmlnEQu+3pif0pmq/Cr3fcinDMIAKvUsuBcI70sG3EyZRXHNHKw0PVOjMoXHpGZPJC3Xcp7yRA1889wZBhd60OYtytGh1ntZub6FFa7D+XVZuYfTQYVkV9AT2XyjTxZNFOnu0KMPAl04VRVRhnb3kCeu3H4Itm+Nz5r2oS1OhWQVn1/wsdbHowzIsEH9dfISohV86rYILPYZYKxC9ij4eHdHbGNggQOGHXkwIUog97ZHkI/LgE6VxRFldYFry2AffaUUWteePFenk/nG6wEeBP57/epNPWufjmtAzgA3dNkCGbl93s279d4i/obxo4UMay6tsx9DtUlmLrtqD5VX2BEO3DMq7IlIVvnTE4CsOYHN0E3M8VWjSoVvMusXQLWeOY+mXN92wctAWIfEN4PCniXxqynjqNEeA3fmKC+9q25/u6qLme++mzNy5NFEsyrIn5SNHqBIurxKcMKpymu1Pt7dTYcd2HSL3Q7d790XLqwhxc5K4kxVuwNDt9WozDEPAc21HEkO3Cu5xli1RqpkF2errmmVxYsxehciDEENvk8f7R7ezO0okuqc1glvdD+ei92u4v+Jmz5ZpsKciw7V4Py5m5EKMYYi1bU6WOlkEzluSk3ZgGBUiDSI0ywIOdevMWZwgbg/siGFyiIpH9MJVpIcOM3WH+1lIsnDFK9cusJiEkMSCzBBZGO5Fu/DuXcwchhjDl3OOz4dhZQw7F1rc8G+bDj23cMAQMCZ04Ih2t3NA72H73Cx1dGPYV4eI8e5eH7oWYDKI9jRC/LZ1ZaWtuCZ9HIIrKoR/4AL/eVdfiwkmNnQ727HJGI3gbyF8EUlAUk0u7TaXpzsF0ciPd97H29zObT6GowvYObSs7DSEiE0zZOO4BG/hSBQCd027zacje02ad7V2t3Obj+FYgzNKOf7rVNPs62w+jYhskoeYszg/CWzTvcbk6JK1fok070K7RAzDSBDeJz4t95beOS7NgTUFesOWri/Q9nvbacNNzdL71tqVoXSOXZ3mQDktqUF37iiBdy7IgU1jw1V5owYmabz+3QF69Tv9tPflYTq5VxdcRu8h2tE5PyPPn13H57/14510y8e6aMeDmDjRRmu2t8jM2nlujT4IKYgsHQ7WHkScTZqAKO8h/MZZSPVeKLGwG6NDO0do13OD9PK3+umFr/bSS1/ro9e4LW89Myhtw4zeI2+N0ok9o9KrCSGI5/8unmJBeKYkQhHPBPZfYnHYU5beT4hYiLUSC0yIRPT44Vqhp1B6FkUwas+mCEQWrbimCC0d6HXE8i/a3vDaxmmu1x1jq2FYj15Diq+/SeOvvRl9eSWJbyMs5FvYdp30tkU9ervDHr3o2093desD9TOkR2/F5B499DjG+LLB7T1Vr50Qfg04h4Rpqnze1a2Pr4P06N0T9ehhkkQJkzGiHj0umChb5xyhrab9qXa+zlGPXhNVL16SHr1oMkaiujp1s6npRuvRM4xaMBHj6C5dFD1xiyIR3EoQTMs2NulEhIU5mrssL0OdEChYLgXPzkE4CeH9yyFRb917P6ZcnqCRgbIsw4Ihy5P7xkQ0oacOz9lBFEEkQbhh9ix6yzBpAosjr76uhdbuYMG3vonmLc9Tx1xtH05TLmFolEVQeHpB2xD2X6L9EGT4TBBr/efLdP54kU4dHKNje8boCAvC/a+OiBg98NowHd45Kr2ix1kAnuI2iwg8WpQFoy+ewpBziXpOF6nnDAILwnNl6jsHUViW3sIBFrIDl8oyc3iot8zXkwMf5bwsJiGCcQ3qM7n9q69tkV49Y3ZjQq8BeCsGhm7lxnHfRf4ryX9RYGgVCyYXtm2TGbHpQOgVndBDmchfD/GXicPbBU6EX0TpAmbdugWTvdDjtmFBZ+BdE3UESL7LjM7v2yMG3mWzlMrnKMXHCTwgErQQLtNpf3pOrdA7ROXDyVm3KOfr8Pi6au0eyedMeTPG9bHQwwLRxb175TzOJW5XUJnYXUbBhJ5hTCIUesA/IxzfRnrnpvHGifYMdWFG6qIcNbHwg4hCzxOGIDFMiZ6n4rjruQq/yKaJlOCdDOnK8KoOrfrZsxhWvcCCq5dFEuyVEn995VIyZIp356J9frgUQ6Rop8ycXV2QmbOL1zTRfBaAEKqYLYty2YJ7EIW/+iAEE5+cbWgLeuPQHplkwW3CjF4M5cqwLx8xe3iQhRjEmgyzcluxpAve9YvePrQZ4TyLVwi3c8fGOWCImI9HxukswmEWiBKKdPogHyWMiS+GbcdHw6e3/bXVIenanxUErwk9w4ReAyDyxvCMHv4yxb3j7ysg95IaZHmV7dtEhHmhV0SP3v4DyBUff/NNJrCH9QOXlWpqotyq2h49iFA3ycEVr7fKulTSqP3ZjMzszSxcSNlFC1jw5Tmf/zIs8TdoVEYKaDRBbM9wHQmhd1Cf0Suf9T167nyugVHVrtpG7cd1LtQIPVnGhs9TH1ToK9O49egZxmQg8o68PSp3S3T/ufsxtMEEYdXE4ghCKp1JybNpeLZs0aqCPIOGYUgII3m+mIMIJ3yf8AFpkSq1AhC+OHqzSyOJiQvoVUPvFiZioKfsLAshDJEO9pVFdEGEYcKDzEzlOCY5oB1oIwQdhN3SdU20bBMWRW6iBSvyNHdxlrrmQ+xlqbmDRWKzDpGit7DA4hVxTNTA8it4ThBDv+hNxIxczAhGjyLW40Mr8bdxWWbGehGoAhDCr/+iij4EiFP05iFgmBeTSfCZRLyeUCF4DgEiEAKQA+z9LB7xHCPQ78+g51EuHOx69D8riDz06hmzGxN6DRh/7Q0Jirt76oBXcxVqhd67EHro0fN3oR4S+DvSHSb/Fc1wAkIPQ7f5GqE35nr0QG0ZIfFlmvBIgOHm/JYt1PqRh6j1Ex+j/Pp1+q7ak6f4W53rQDX1ite0P93ZRS331Qo99Og5oRc2hwtN2TqfqGm/XOdg6Lau0JtUNtnGphtvMKFnGDVgyLHeZIwkEFD83cNCBsONeG4OExHQo4eQYtGH3jQMl67Y3CI9aZisgOfT5Nm0aNQxukk5+HgDvIph0EsIUYfeNAgm9HodYaF68M0ROnVgXIZIMfwJ0SezbLkNEKSIQ2j6Wb7o7cPyKovWNNHKzc207voWCWu2tdLSDU20eF2BFrJ4XbCywH55mSDRMQ/vy9WJFhCEsgxMOi1fNzLTNvzKCgnaH5P87FMVjWnsIbhqdejWhN5sx4ReA9Cj52fdXu4Wk54mzLr1Qu+S9uj5odtp408S3P+IpmTodrLQQ/Dflb6IVuFS8sXGf3LylxwI/gZMkMa7a++4jZpYAGXXrGb/NGGxYyxGrGW4fP2iCTJdLPRqe/QOH6XymcssmHy59jOhXYTe9TuSQ7ci9OoM3U4BRB569QzDiBGh97Ybug1uJO2Bi0Fc3jE7rsOWmCWLZ/MwnInhUwg/v+AxZsFiZqmsV7dYn5VDLxnqR++XCCOpVU841f1bzw5BJcOp47qWXTyMqrN10XOmy7DgWbkxWY7lEqfRu4aeNghF9MjhmUOIPj9LFm1u69IZsl0s6iBWu1kMzluWl15BzPJFz+XiNQVawkJw6YZmWr6piVZsaqaV13Ccw4rNTbR8Y7M8y7icwzIWjRCOeGYQYQmO67RncfFaf+Q6MbTM9S7iIxZlxnkgNPE8JNqJXkNMGgHRNcGOE0iD8Drp0K0JvdmOCb0GYNh2THr03N00BdqjFwg9P3QLoSd/4k2+DZM11rlN8Q0LuLwM3dYIvTEv9Dxw98VRlkO6vYMy8+bKs23Imxh3azCF8F+jmbnd1PrQgzI0DFFZ7e2j4q53pP3pzk4Wgu2Ubm7WoVxZ4CmSfw6NZeZ0stD7QELolWR5FQi92FuoSSbaPwk9GwR1U63Q2+2FXvThE4fa648ePRN6hpEEIg+9YjHxPaN7vv9cDGA4FeLu4omiDElCZGExZYCvH0ySgHBCj9kSFjPzMWljvk6KgCBMZYjyBV0YGeXirzuuX27ZyICExt25QeQiJo7wEUPEGN4c7sMkB504cfrAqEzkOHMEPX063Itn6CBQsbAxhlqL/DnwJg2UxWQPVIkhWgxPt3VmqJMFH5Y8Qa8eBN+CFSrG8Lkg4pZD5G1RoYfjis0s+CD2WAAibzmnl7HwQxziT+IQgl4AJoQgi0cWfhJnIQkRiHOiRxLXePASfwe7j5wgvBbCBIu8VhF7xuxGni4wLg9ue7l/6gC75PkvpxCxhcY4nnT1d2jSmkDqqcmvNUVxjnCVeM4OEw/af/1XqO0Xf57yW65x+TFShP0wWza7Ypk8p4d32Bb37afy2bMsrFplKLb9Fz5FrR9/mDLz57KayyROG7a/9jIk/ZIpVyQmivsMvfK6TUGiTA2Xuf6GYUwGd4gPIZpO3onh7QXhdHDnMD39Nxfpqb+6SK98p59O7h8TYQIwqIC14yB0dtzfSR/8tXn0sd9fKMebP9wpb8WAEMRzcRGXuX99LGnR1vngQRwzeDGDFc+9HXprhN7+/gC99LUe+t7nL9DX/9tZ+sb/e44e/9x5euErl+iNJ/pkFi1mzp4/Pk79F0uEtfaimcSXAZ8zm03Jmnp4FVprZ1bWwEPvYMdcCMaMLsq8AAsz6yQRCOF5S4MeQxaR6MWT3rw12uOHnr45CzMy8cVTe3kkrTEXDEOxHr0G4Pk86dGL/0iaDOfJ8io1z+iNY+gWkzF82RBfT03eVKdJ+x699evioVuZKKI9eigXVVnIU2bBPGq+605qvvtO6WnMLV0iAg49YNWREZoox1P0s4sWUoFFYPPtt8pkimp/P408/SxVzl+QvJaHHhSRmF2yiFIt/NdhpULVvgGa4GNtS2Xo1j+jN66zbkuYdYsePffhoi+noNFh+6OLAEJfJt3WTk03BD16FzB0y9fZDd0KiSZxIqyPsR49w5gMevOO7Bp2qZqbJryponuSfVwcPWlYgHhsuEpjQ7o0iMw4PVOS2afo+cMwqZ+h64d10VuG99hC8CzEkOjqJhE585YW5Fk4LJCM5+smUhMyTBt9d+CYaGLQPmFy+7GOJ+ooj+t6dpi9Gg33csCMXgjWXnn2sChvoMAs2FMHxugEi1asmQfxd3zvqIjY0wfHZHYsJkug5/DiyXG3ZIp+ZiyDIjNwOaBuCX061D3Sp8u1jAxWaNQdcd1w/fD8I4ai0cMovYxjE5KPWbsQnriuQnD9E58/+ugpWoOhW+vRm/WY0GuAF3r+NtJ7qOZbhqPo+WpKCL0efUaPhV7g6fAWrTWuG/a4bv/XM+zpgpt1mxB6wdIvAH9O5nMq3K7bSm2f+BiLvGspM2+eDMdWLl6k8ukzIvYIQ7AO1Nl08w2U37hRegEr587T8Le+y4JwlHJrVlHzHbdRbsVyebUb3vyBodtKTx8RC0f+5uQvUP/MSIoyc9wzevN06LbolleJn9GLP60S9hH4Tz/5inkfvBkjKfQuxs/oRRVpLclYDEQexJ5hvF/gNVYV/kNohO+hCscz6TT/Xp78//pnicMs9A6/PRLcmZO5XJ4Hy6pA4Jw/prNFIZowRCqvAOOvCjybp2+t0Ofj8Nze/GVY9sQPXTbrxIcF+kaI5jbMgk1Trsk9T9eSkef8dBZsWpZ7wQzY6Pqiag7TbT/iEIAQfxB8WM8Ogu0Ci6ozh8dE1OEdu8fe5bB7hE7sY9s+rJPHYu+Qij08B4ggn5nLQZRhmPgif3Y5BjNrL51yCytjPb3TJXfUdfV6zhap94wOL/dwkIWX3SxdiDxMfoFQrPfZasFnXXOdDd0aJvQaAqE3ih49wc+JBXEMoEevacf0hF54kyYnYjnPmgIQPjLrloVe2KOH3jzfowewBl524SJqeeCD1PbJj1Nu9SpuSytNjI3S2K53afT7z9P4q6/RBP/yif80ZuHDAhW9f9lFi2hidEQWHx556hkqnzotvYB4fg+TNTJz5shzerIEy7IlLPYuUXVwSOsT+AvX9+g5oed79MLJGP7j1f2yYqMIveAaxH4T8izkJKEXPaOXxJeruZyuR8+EnvH+UeI/pHp6++hd/N8sl6md/xDEzMyfZbEnz+hhMsak2aHaZliTOWHKfa6am65cZvHkeqPQE3b4rWFZGgXPz0H8yYzYHESbDkni8kC8obcPM1wxfInZu+t2tNHGm9pEuOC5N1kHb6mKQQyPQgCixxCTO8oV9PxNbtt7aX8I6kSvIAQrei/R24bPNiyTP8o0cEGXT7nEQg2i7vwJJwAhBI+M02msjQdheFAF4ukDYywWR+kkHxFO8PXx4fjeETq+Z4SFpYpLXLuzx4oy/CyvXhMat381Xy/06hmzGxN6DRh77XUae/V1lwK4kyZ/C4gA2eEnY7RS5VIPjb+7m4XeQfEOb8mG+OqDQqmmAuVWrtTJGMuXcZ4KPXlrB4OeNPTMtdx/H7XcdotMqkizECqfOSM9fxiKLe7aJcOxvgcOT0vDp+mWm6nlzttZrLaKuBvf+ZYs24Ih3Op4kSYg5tADmM3J0G6mvZ3SnSz8Otq5jgwLvRERhBjSRTua7/sAZb3QYwFWOnzk8rNur4Bw1i1EJ4Te+J69U85u9j+t8Po33WRCz3h/KfL9cuFiDz3/0it05NgJOsf/T0dGx0TINPMfbbrMx+TvkZ8mEHmH3x6e9P2DZk71/SWu7iar5wO95XvL8Jwb3nSBIUsII/RWnTuuQ59nj2HYc1yGNzGrFH/s4Tk3DPHiWTcIv1aEroysedc5P0fdC/MyG1UnRujMVZ3wgAkSzdJDuGilLozcvVgngmA2LXoC0R58DTZqP+wyM7cpJW2QxZf5vPOw+DKLUEzGWL6xRZ49xOQM9ER2zs3JYs1ofxqvLJtIuZnB/NkwNOuGZPE5MflD4iN8fYIjhm7HMIQLf8Q5YJazLuQc06j9a7a1iDg2Zjcm9BqAYdvRV7VHz38v+xvKJTmd0mf0dmyj3NJY6PkePfXxu7hcdHPyTmwurfn81ynskuAzFFjo+R49L/RY5EHs4RcG7Hger+3hD8twa4pFXKW3V3okR558mkZf/IEMyaKcawalcizc5s2TZ/Oab76RUpmMPFc4+tIPqXz0GFX5F9NEEWvpnabq4CAexNHePfROsOBDjyGeB5wYHhEhNzE+5nr0kkKvKELvTPS5BG6EtsP1kvJnSKQRgyH4LYNour2Vmq6/PhJ6ZRF6fJ0PHMIVU0eHpOLTRfU0o0ePxZ5hvF+UiiU6f+ECPfXsC7R33346fuI0Cz30fKcom82wyJigNP+H/lnq5YPIQ4juPw714jGwuJvK5eLbJSzjkV56RmbqspCB0EMvH3q28AwcevnwWjAMm2JocpxFUZGFDdbeg9BBvFJSZYbZsJjNi2f4uhflROgtZqEHcYe18FZuaZH4krUqvhauLNC85XjuT5d3QY8hnqMrs/iaqv3S05hXcdc5D2vtqaDEpAgISj/LFiJq7Q4O29HTyOdbpTNksZQMehshStHjiLd1iPDDrGQ+JQRb9E0cXChZh7AtFrYQunhrB3osMckD34lVFs7Om0MYj9uvcR26NaFnmNBrAITemBN6gr+LmCCqy35sZ6EX9OiFQi8kLDc1zssd0k3N8dBt0KM39vpOShf4L8j776X2f/AJSs+dK2+5qPT20dBj32GR9wyNvbWLqkP8lzq+JYKTp1taqOm6rbJ2HkQbGH3lNRp55jmq9PRKD533xxAtFj2u9vVLr1p2GbeBvwwx+QLLr4ztfIsqnJfp7EgIPUySSPTo8V+3dT9/aPTfXaDml2D4jJ7v0ZNn9IIevUSJOidrRo+eCT3jfaRUKlMv3w+73t1Dg3zvFFn49fcP0pFjx2n/gcM0xH8c5fI56uB76WdF7OH5PAytgss1x2fFkiIJrOEtHFP/3sdwK4TcEAs8DHtC9B19Z5gOvMnhjSE6sW+Uzh0dk+fUBntK0ruFXkIsyaLP5yVrhYDOsJjDc3wtHVlZx0964Vis4YgFnPHM3egwn7gOqA0iDxNCrrmtnW7+yBzadk+nDB2v2qoLKUM8di/KU/ucnDxDmCuokIMog7jrXswCdKWKz9VbW2j99W20dlsLtc/NydDr8IC+sxcXKrpWHGluzdCmm9vomts7aOudHSwi22g9B6zRB9GHpWAw0UXdG19/E3oGCOayG3WROwY7F8KoC5LW3WR8fpAdmVwkyGKiXA1yEvxDuhb1majgL12Z188HHRKC2MuwAMNw6wR6EvBtqhVFIVVokgkYmUULZQYtxF3l3DkWTxfiWbnen9PwwdAshKycg39BCbLqqau/Hu4zaLb+JaufJ/D3ycAkRBe4XqZDzHF+wtMnIoNh/OTwAq7M98/A4CCdO3+BDh89Rm/yH1/PfP8F+s4Tz9Abb71DZ/iPKPi8l/fC/njRm0XXskPwJp+uuX8De5RfxybBl+R4aK7yrlLGMCaGdjHzVSclXDgxLj1+R98doQOvD9G7Lw3Qm0/306vf6aWXvtFDzz96iV75di+980K/PM/We74oQ6Q4E0Qgeu4gvvB6Nggw9KzhdWgQTFjDD+0JG4IfVXNrWnrmrr+/SwTeljs6ZL27+SsKMjMYQ7eoE2INbUU7Tx0co2PcxhP7RmTCBHorMSEFr0mTZw3n63t2Mby84YZWuv6BTrr1kTm04cY2qdN/jQK8saOLxSiGhNEzuYoDjss3tUgd6Bl0V5G9k+33IXH9DYNJ8X8K+99wGXr/6E+p93/9b4n7v5+SF0z/fsouXkSdn/51arn1FsosmC/P5g186as09Ni3OHtySS0Vo78PeIcbVSzx+QCGSlvuuVteUdZ82y3S29b7vz9L/f/7z+SXScuD91Pbxz9K+U3rReBBlJWOHafh7z2lEyv4F4l/jg71p9IZyq5cTt3/9A+oadt1lGppluHPgS99hYa+iTbDCYEFXSZH2fnzKL95I7V/6pNU2LSR0nPmyFAteuxGX36FBr/0KFXOn6fcqlU079/9IRU2bpDh3qHvPE4jTzxNo35hZ/mg4SdnkyRT7jLxF27iAmC4Qg1IZpcsps7f/S0Zas50z5Gh5sGv/D0Nfftx8dEyjG8/qLn+c37/d2nO7/2uxN8LmFGJYTjMqCwW6yxAbcx6RkfH6OSpM/T1b31XxF25HD1BL/drJpORnrwWvu82872y9ZoNtGHdWlrI3x2FQkGeC/tJ8+Rfnqcnv3i+5u7U2yj6LTGpWe5+5c+UcBEbIohqji86VU9UCDzQUwfhIz13iGedjQUUhjFzLLhkEWOIqJV4TVmTPIuH99XW9vJ58IwgJjp884/PytCxbw2Gg5s7siKmNtzQJj1w85cXpGdPnjHE83N4dm64ou+wHdQw6o7IxyLQ8jwhhls5QORBYMrQK7dJZwrrq9LQo3d4p/ZYHt09Ir10EKmYZXzLw3Nk8gmGij04B3x3Pd9PB9/0S+CAy1//+39tAd3/qwtgMWYxJvQaEAq9y4EZq52/VUfoQTRNG9yi8Y8j/KrCO2SbP3AXtYVC748/S30s9uCHIds8C7D2n/s4NV27hTILF8jQKd5VO/7WLhr46qNUOnJMh3Dh39rCwm0Tzf0X/5zya1fL0OzQk0/T8ONP0Ngrr4mPgAkYeGvGA/dR24cekLX88DyiDMvu209DEJLPPEvl87pkC4aA5/9/LyP0aj5jAi8CE9lJ/+zixdT1mUDoYWgMQo/PM11+VKE3NDxMO996l97a9S4dPHzUWQ0jBl+rpVKRBvl+Gx8vyh8HIb6nD4KviYVdU3MTLVuyiD71iY/SiuVLqZnTP2kg9J5goVeL3IHhPalNV3yG2HyGv4dd2v3l5qsIiwveNyiO5VLQ+4Y19vAsHoZf/cLD7RxasewKiyqIPQzFIqAHT964keaq3PWtRYTenhH6Bgs9LGuCk8ETs3jXbG+jLbd3yPN1EGcQeZhdiwWTj7wzLLNfzxwZk+FTDLvyV7CMpqB3r8ptxnkxbIwj/1hFbOaaMjIJZMUm7Z1DTx16GDEAgucQ+y6U6NTBUXrjyT6ZlIJLsfnWdlq2rpnmLMzppeEdnlM8sR/vIh6WXs6IBtf/AQg9DsbsxoReA3r/6E9Y6P2JxOVC8S76DgmuXGbxQur69G/IjNdY6KF37Nvq4HzlwOWTvVZIcIQP3iw+Lgq0Rw9C70MJoYdePfFDD0Fnh/TOtdx+q6wVJ8/R8TcKetpGX36VRl56mcZ2vk3V/j7KLVkis227fvs3Kbd4EZXOnKW+z/659M6Vjx3Xc7a3yyzi5jtvZwF7syyqLEuanL9A43v30cgLL9H4m29R8fBhbg+Gb/kv4zUQev9GhF6Fhd4wC7BhFnp4XRv+p4WfyXe0hbaYuB/A5yMNoTfndz9NzbfcFAm9Ad+jx47iG335BTU7Ew7df/CjCT384j7BAvrk6TN04QILXMOoAbNue/v6aNc7e6h/YJBv17hHD/jn8vL5PC3h744lixbSqlUr6JYbdtCcOV1szznPnxzozfveF8+5lCJ3EHZ84+DeCe4of0vFtvB285mMN0f+zoA0hi21F0xnxPrh1TY+So8Y2yG6sMgyBJIsuMxB1tVjYYdHVTyyGHJJZ6eid0yPGpeJHRww0QPDqzuf6ZOlStDLtmx9M61lkbdmW6sMr+K1bJiVe/7EmCyLcvbomK5hdwbvyS3JRAq5HsFnTOL6LPmDyiLRbWl5ng9rBeLZvsVrmmkBHyFeof/x3KEMT782xGJuRJ/1a8dnlfFlAUPbAz0VWcIF7QbR9XTHetf/gV9bKGLPmN2Y0GsAhF7P/5yqR8/fWTp0O0no/d1XaPCb3wrvv+jmvCK4Aixr0nI3C72HIfRujYUeB4VrZj/88sDSIZgQgbagXVgEGW/DgOgc+OrXqXT8ODVddy21PvQAtT1wn0yuKB46TJf+/X+WpUrgC9BLibUBRQyuXCGzcqv8S2v09Tdo5NnnaeT5F6nCv8zCb7z86tU0//+XFHpDTzwlQs9/eFyPuER8DacDhm7nYOg2IfQedUO3KgrjwW/FnwEgp/v3PyO9eobxfoFh/UNHjtIX/vrLdPLUaRm6DXvx2lpbZdi2m0XdNZs30pZrNtKalctF+EEE/jR4gkUeguBvoeDmwW0uHwF53p681RTOE7P393EWPdLLVUAPHIYxWeiymOl0S5ZgZit60/yM1Xwzhre1Aqxfhxm7EHPoQdOjpvFqMvSwQcyh5wtDq36IdWyY0xIv05h7C4a8teNCUYaA5y4p0E0fmkPrWOgtWF6Quob7sO7fOO1/fZAOvaU9aPL+W74A+OPUf6TEdQCSqd8+odmD86FXcs11bfJ83vINzdJjqc/8TdDeVwZFgKL3EEvQyOzaoKL3cv0f/HUIvYViNmYvP51vlFkEbjgM2iDUuycFZPhQD7ZPSPdXcNfXA35YvuCd3TKcOfj1x6i4d79kpbJY0InzyyU8ZMYibgEVNm2Q9fkwW7Z04iRVLvbQxNi4+IHq+LgM9U7g+SJ8ybLf0ONP0uDXvknD33+eKiz65NvHt12iiASE+Q5J1tjeK4kqpNIksDS8/obxPgORB4GXy+Wova2Nxd0GeuTDD9Cv/8rP03333PFTF3lTwjeN3MLBzYN7XPoHAiNiUfCRACQxFIrlTTCEef0DXXT/ry6kn/s/ltBHP7OE7v3F+XT9B7to7bY2mru0QAUReVoWQMRhkgZ62A69NSQTMH747R56+m/P02N/coa+/F9P0pf/80l69L+dpG/96RnpnXz+qxfp5W9fop1P99GeHw7J0jGnD41SL4s89PxhKZTtH+ikDTe0S48bRB567N56ro8e/4uz9PpTfdKbJ6KSP5T/SImPl/icccL7hAH1oDdu76sD9P0vX6AXv35JhpEh8iCAV1/bSrc83E2L1zZLL6bABWsuNZuu/PobsxtbXqUBWCx55BVdMNn/MQVq/6DKYHmV67fL0id+eZUxWTA5WF4lcfMh4YclNUM6/PWfmPxXC7zwZoz8qpWyvEouWkfv9XiNP9krWNwYvXLVwQGZgIFeOEy0QK+arDfH36DNt9xMrVgkubWFyidOSJ4M6w4NcWX4IsEBjeDAIlEWXt69h0ZY4BX3HaBKT4+Iv9r2Y1Zu6wfvjdfRO3BQ19E7HS+YHH9lxq0O26/En96DGIaTm2+8XpexcevoYRmb8f3BmzFc+6VEWLE7bcvNN8oSK4bxfqHLq/TR62/ukmc6m/gPqhV8325hgXf99mvp2q3X0Lo1K2nxooXU2tIiAnCq58p+UkAIHcKCyRGT79PYdnlQAs+qYfmRhSsKsiwJBNWGG9tZ0LTRio0tsvbd3MUFeeauiYUNevnw1gmIoUun9fVjx3YP08GdQ3TwTQ47h2XZFXnX7MFRFn1uSPUU3rRRosFeXYwZPXnSm4cFikf1XbEYtsXzdhgChYDsXlSgTTe305bbOkXkoVcNQg/vvsWzcxBe8IEYxCvZlm5olqVSMMwbhVobxzGZAyINzwKiFzCTwyvecvLMHYTcktXN0nPYzZ+7e2FOZtiilw+9fblCmgrcDjxniB5JPL+HXsz3cv09EM4IxuzGhF4DZF05DnKr1f0e1htP3ozBQg8iDEKvfLGHxt95VyYsKK6wKhDF1+dNnE7cxpE9RWn+RZFfuYLyG2KhB5EHsRcWiqRjhb9oLl6iMgvO8olTstbcOItOvO0CQ8std9wmggmiD69HG3nxBzJLFwske7DECt53i+VWIBDHd+/levZRpX9AHeq0H7Nx28J19FjoYR09PAMYOQb+Qr32uzx/uSSJ+nGdse5fIPQwfDvVmzFi4gqbb76Bhd6NmjaM9wG89qyf75M9e/fz30lZWrpkMV3H4u7mm66nm6/fRsuWLqYOvGGG77+ftsDzQOShtyzC3Xy+edEfaImHa9nm71FOp1jdQaxg5mnnvBwtYYEDoYFJDptv7aD1O9pZ+DVJzx6EDRZBxnp2eI0YeuxkSRUWccf24HVsw7T/jSHa+/KAiD2ZDHFoVHywrMlATyma8VqtVKUZrilKnfZjKBhr663b3i7tWc0CFCJL8mVomER44Tk6LGmCSRQSNk8vQDSiPohQtKvQnJLym25pp623d6ofp5fydelewiKvMyvCDuv++SVhMIwNoYr35MpnE7Gn7ddI/esP/PenH0Jeu63dhJ5hQ7c/GsEdNhVwkcA7r1o8Ps8h2WGIwE3Lm7uHEzg/XwRfd/qVp5TPn6exd9+V3jgsLow3bOD5uewi99wGn7Ry9iyN79tHVSy/EsLVTIwXqQShCMF29ChVAyEYndShHzEwOPQrZ7I9NPtobft/JHylEnhXp22G8X6A2Zdtba20Y9u19PFHHvrZH6IFfH9EQ4LBveK+fVwqQPxcHPD3U7ZAtGhNE13/wBx6+HcW04O/sZBu+lC3iCZMsvBgskMvizU8A/fa4z3ybOBX/5+T9PU/OkVP/fU5epVte18bZME06nrHqnK+RCuQkHaqXYZXpU0uOLT1moa4xLOA2+/tkl64EH2GLqNLtrBgk+CeGYzSDULX/LxMKEGPIJqAIegN17fROhZbmOixcGUTLWChK2F5k6yxh8ko/r8Djkiv2dpG2+7poub2cN28GuRzurjD+9bxNmYxJvQaEYor3FdBkLspTCfQm23qEN+QPghRxbE9PFctSXPgKI3if8USVYdHJCCOIWCsgwehhx479IiVzp7T5/NKumCrFNXikpZn9UbHWAiOy1+9Yo8258dBiCIBbPN1SlwPiaAEFt+AEJ+dQP20fm6PBJfW3ElBd4bx/oFevDldnSz0ttLWazbT8qVLZOJFE99/P5Miz4Mbx90gPhbdT87g73wk8f2ISRZzWORgaPb2j86jWz4yl7bcgd6rVpq/rEmWRMFH7r9QYmE3SK99r4ee//sL9NyjF1jQXaJ3Xuyng28NyTIjF06MUc857a0bHSzL+2DLFXdP+/YkthoatB9r0226qUOGT/FaMQyRnjs2JufG83uInz/OgduhYfwyIfTTcOnMuLQdz+Ph7FgmBj2ImEWLoWn0zmENvZ6z6JUcp4unOZxyiyzzZ9VnOTFJJE9rrm2VnkUIR99+fKDws/sAYjucxDHONGY1JvQaIfcLb3zj+BvN33Xu4NLumEBKslmD+iAEfmIP6oJJgjNoQvMQEkjtmul8vZ83RV6cQDKVy8vMVSzFAgFXPHacSmfOUXVkjP8krrpq1N/FtKxmuICdQ+zIT5oVGPUQ++lRnaX2OB2bYxfvxQmf53aKT7s8KYfNOft4ov2G8T4DoYeh2XVrV9OihfMl/bMyRNsIf+e4m8kFTYf3L17Yj2VPvCjZ/oE5dMcn5tGO+7po5aYWycPbLtBzd/rwKB3YOUg7n+2jF79+gZ5nkfeDb14UkXdsz7D4FMcq8pycP7ccsfdxd15/b6P/36dhwgRdLKSMpVcyWJ0GRueKK5/Pp+RZOTybB/GE5/cunBqjA28M0p4f9tPuHw5EAek9Eoddg9ritPr6o8YP8mc8c2SUSuNYmF5PrOv6YaGECZnxe+rAKO19dVAmZSAc2DlE51hcjrCw9aB9eD5wzbVtMhysn8V9dh/kDKE9MscuSBizHhN60wE3jRx0PzU1X+SXda/NCJwT5XwiYVScaYpcBpnqIHn4tuF0pbeXJgaGZJFkDOmWz8YTJQRfEY4+PonaDO9cr8AUvkHbfEiCTHXQfPfF1gjvooUMw7gSovsGu3DOejK0dWRo5TWtdP+vLKB7fn4BXXNrh0yswBCon8G677UBevbL5+hr//MUPflX5+jt53rp7LFRwnInSVCng6OSwlHUSu19rzYlzs+wkMN7Zpetb5EhVM3T9mPGL9auwzODGDJFGu/PffOpXnrpsYv04jcu0kscXmTx+RKHF79xKbKJXcIFCS99E8HlffOSxiV9id7g+tA7iYkgOH0kzBhMzkCP3+4f9tFzXz3HgQUvhx8+doEOvjkoky9CMEHlmts6aOm6JukZ1M8ThCm+P/0xjBmzGxN6DQlvI/1CkY2Tep9hQxz7BrhCUVnEYXZ7iUm+90GObsB7eZJWDolDWNZZuL7KQD8NP/s89f3tl6nvi39Dwy+8RKVTp6NzRqCeMA1gcH4afO261+D3MWFuVFbSEMZRTs0h3qKMKCSJ2hJmic3FPeooeYZhJInvOLe5W6U2YMIAnjG75rZOuvmhblkXbv7Sgsw2xfAjFv19/ake6bl7/cke2v/GIJ05PCpDlUP9OkQpPXd8gmhDHCeUM2jQTVPYSVr88DdrSs6H156tv76dbnywm+765HwWnAvp1kfmigDF83HoTUN5TIpAO9FLhskPmOSAXsb9LLAgvvovFSUMXMSiyBoPw4AcSxpYwIpPGC7ocbC3RGMsYjFE6zcP2o7Fm7FoM0Qd1vLDUi+oc2SoIs8h4rP5gHZiYsaiVSxO+XrjuqO2MCRTcQg3wzCh1wDccLhXwhtQ7x13G4lNDGILUTdxkOA35HizRpyzj+II/1o7B93FhD7YaTlOhHYkEapVKvcPiLjr/9JXqe+v/o5GX3tDntPz7VJHFw/THPwGe+yGSOyuRJEoFrXLWSDyJOVNYlafKduPADdHHEerkPJOLh6mOcSbYRiTkNuE7w8fnC22axwTGpZuaKEtt3fStXd1Se8ZhA2Ey8kDI/TuS1jj7qIMze5+eYDwPBvWwUN5X4fUic3VK/FgA+qLTP624N9U6IXDbF6cD++hXb6xhTbe0E7b751Dd3xsHt39D+bTnSz2dtzbTSs3t+izgRm8nYLkPbZY1gULJOP5ud7zRRlilVeacdvQAmmFtCcMUROi4FzhzWnnU7OByL8GmDSPPSV4qx5xLbEMDNbXw5s75LNuapHXvWnh6KBldSchrlODmI1Zjwm9aVB7r9S7dybcdHZPFEcEN51sLgn7VNRkyr06VUGX6fPlWIPLSiC2ckWWUqmOF2UplsheEzTy3tuPdNiuqDyMeP8P6nbG0M/jsiKm8vHH2qCRZPsNw5geyXtG7yI8/4YePKyRJ33yLEhOHxyhl79zkb7z+dNyxMQGL+5q0TqnvhORg5n3oQ+eu4NI23xrJ939qfn08d9fRh//vWXSg7f1ji7pqcNr1DxYImUetzGTS8ksVnkFGZdvZcE3Plqhw7uGZPKELMuC7wc+Vb221gNuV9p+j1q0hnrgHbh4ly7WEvSTOuZxu1dJDyX+OHb1Rg3Ws1xJ+43Zhwm96eDvoiDoX0s+wCcIjPZXBSaJ8A4hsmo9yS+aZL4GfwjSNajV5eOfqzequCZM8DcKevhEbMV/0Lrg/AJT0h6H2vbDmsRZxN07uRCgKeyRh+wp2g8PPmqeJBXEo4A8zfSmpF0shmFMQu8Pv/cxPeA4IY/65vL8DVedkBmybzzTS6892SOTESDwMBQJMVXBd4sv70K8hQQpjvLfzHKOju4crdzcSjfc3013fWI+3f3JBXT9B+fIrFksuOyXJ0GvF9adO3VohN55qY9e+uZ52v1yP106Oy5vwGifmxMhiJmvfs087LEcCtbTu1zA0iqptLYd79hFetWW1hq/tii+clMrLVhWkGHXWrCGX2tHRpZYwSQLH9D7CDEHQQrQo4fhYd/biLX28J5cTNCQ684/g7pfY+7nI1G3GQYwoTdd3I3lDokge40kwQ3p80IXxH3QJAe/aRrIMdp5a0xs1ZgvH1n5oDFGXfwhEbCPSoeF3kv7YZyE9wj94+Bjuvk07/mgMUZd1FiL+LnSYSGOqw3x2GwYxmTkbsF9IvcL4poQYSGb3kNIo6cJQ7VH3hmSHryd3++lE/uHReBBAMJRi7vyLjijhHp5EEgQQ/MgqK5poWvv7JIlW+5ikXfrw3NF5KGnDku64Hk/vEED4vLQ20Mi8l59/CJ9/yvn6C036QNCCe/ShdDD8iYAYg/PvuGZPcwUToR74vg2DovXYDkclJqgFm4X0lj4OPKtCdfc0knL17dQocBCz30m3kvAedEW9M5dd3dXFK65tZOWrMU6g1nxAxhaPnVwRHpFCy0ZebtGJweIWoBaZXPXToJsOCXOK6d2FmO2Y0KvAXKz6H1zmVtmcq4vg12YK3Fv8EZPaHchjk5xy8JHQpDrbGEcSW+ajM91XxQIvMMRO28DEvcGb/TUppmpXCM4Q84VNZhxtjCOpA+TiXOjGO9wxM7bQBg3DOMy4N5B0Gh03+DZMYgsCKunv3yWTrIgGRkqJ+4rH49ECCqaEs5L6XN4WKplK4u7j3x6KT3060vopofm0tJ1LdGwLDoJ8QaNo+8O0SuPX6Jvf/4MfeW/HaPvfP4k/fBbF+jAm4PSywjBiWpxWgiouUuaZBgXYJLGqi1ttOW2LtrGQisR7onj2zmg9026/xg8H7h4dbMIs8i3Jmy8qZ2WbWiR5xgBvpH8JxehNw9L0bTR9fd1R+G6u7rkeUMMNwtcYJA/4/ljY/LaNpDNpeUdwK3eh0FOHOLzgDBuGCb0GuJuJfmicl9YEpJZiMZGhysT2XzZhA+Ct8fxxG0rPhqdCnGRolrWb1FhqZ8trv7aLB8io8+I0jiENockvd2lPT4uPmHw7eC4w5nFHm4uRzMl7vdJtKzE4hCVQcDB2dTRMIwQuTX4rnNBDP4+cgEbRNQRFlpH3h2mC8fHaGy4LOJPq0huIWHdEtzW2pWjFRtb6eYPz6PbHtHJFBBDmGkKkYZlSc4eHaVdL/TR84+eo+9z+OG3L3C6lw69PSCzZy+cHpfhTqxFh148bY8GzM7tmpeT3kIMiyJkWC9hcgcE2eWCDPU6oYfh5DSnc4XLl/PDw/iMaMu5Y6PUy+KzVMSTezqZBW3yAUO2aBu7yxA0Pg8mivSeH9fPIu2FSMyJv/9cesARESW+qroZBjChNw387SL3E+/03sLRB5dXB58X+sXp2jr4iDK+HDaf7yqTI+BvnWx3NxXWraU8h9zSJZTu6OCfaFrKaiWc7Oyg3MoVVFi7Rvx8yHTPieuGL/85jffpZhctoPz62C+/eiX7dlOqkBc/HyjLX06LFlJ+1Urxy61V/9zK5fKaNflW9Mg5NEQVyEHjeoSfBiSjuIsCtftUTOTvDt4tGfRzIhiGMRncGhqm3nAD4W0Vx/eyyDsxGr+LVe6vOCAtNl/O4dMp1iv5pjQLsDwtlxm8XXTnxxfQzQ/Now072mXSBOq+dHqMju8bpt0v99Er371Iz3z5LL3w9fP05rM9LDQHVQwVMVyMun3wm4I3YEAwYgbu+EhFRBee58NQc6OAJVPkbUD8WfC5sYzK6cuUhUDrOTdO5bJOx4AoPrabRfE7Q3TiwIgMx14u4LrufbWfTh4cpqF+fdYRojXD1wvP6mHo1n+XyaeVf9hpG2uvvwRj1pPi/xT2P+EyXPwff0QX/vsfuRSof7lyixfT3M98mlpvv5WyCxfQ2N791Pc3X6L+rz3mPBSUDiQQE9aXzAnzMl1d1HrfPdT50Y9Q6x23ia3S08uhR+KjO3fR0HMv0PBLP6TqwKDYQMfDH6LOT36MsvPnUiqH5eKV3r/6Ow5/61IsCJuaRdR1fORD1PbBe5yVqMznGHz8CRp5+VUa338oan9u8ULq/s1fo8KWzSw454gvSOXz8vkh9iqXemjgW9+hwe8+SSOv/f/b+w84S47q7hs/k/PsbM5RWq12lXMESUggIYKIJhgwxjbG2a9xeGw/fv7Y/r9OH6fHNrYBG5tkQNhkJIQIAuWcpZW0WmmTNqfJed/6nuq6t++dmd1RWs3e+X1n6nZ3dXV1dXXV6XOqqqvvzUJMRPm1j0/d4pDPv/xhazn/XFdABx591PZ/6X+s89vXZyEOD+mf++u/ZHN/7ZeihxDCuf4/t7l7XmSPDz6mX5BWk6jKdMXSYnfaq2f5Cwy8bNDUEj/wj2LD3HW8Gcs8d9ueCkrPgfg5tIH+oNSF/X7adMIJz1flEw1f+f5F3g2M7clXOB4PSuPjQZkqfIniEKn3RYwzLN1ODet8rgzH+RjjVx+UxqbmGlcaIzERMYYgL4cP+TyB/n3ekE7GEjY00moXjmV6FOL2kOGXSFM0GSjNA72jPuEy3bzv+PXl/kIKbHiwy5Xdh27Z79t+7nj6EM34+X/1BxfbVcGJ6Y1a9I4AlQeLqVCJokehgjnZOvU2782GW1juW3T+6/vCCqRdhZXgOI5FzjetMFkornb2LGtYfby7uiWLrGZGe7CUc037wdV0zLD6Fcus/rhVhbA4lKQCBCXOoJzRopcPV79yhdWE83grXRYnv0Eie4teQ9hfEn75sqA0Nnr6En5U+PHrzdyYawu/BWu0ZA/ny84Jybuc7ATlcYyX/0KIicjqCP/uqENpPbfbXb5mFf+KB6TV4BuWKCC0SNFNy9i0i940z9ae026Lj2uyto46V4wY73fvD/fazV/bZfd8f69tuL/Ttm/qswN7Bv1rGrwEkjUgEn10Hn9hKzoW4Yc3ZlH2eOMVmcS3bRnDt2vrgH92zN2Wvug2x+UuluGc7OsKCibKF9EPDo5az/4h27Otv/R7uCme4Ph2bee+QU8naUBp7esZ9hdXCEuYHbgQf1xm636+Ptu9td+PpzUThZbPwg0PxTed+QYu4xj98pIrXHHxL7+TfUJI0TsS1BR3oQrhSr2Kfvwkytc9HI4ftjPP4ApewaWV5FfY4Rs5YmQ22tPjkx0PBTdy4KCN9vX7lCnZbnejfX02vG+fDe/Z6+GSG+3tzcJk6Q/CbHRoyEY6uwphiJtWudHuEHYIq5YD4vlHh0c87HDYn4+XFsBDIR4PmyU1HhTxw+NqcSO4LLjjp8m5GCbLf/co4lvuz3pxn2+zmbm4zU/mJ4QYQ6xjVBGvMPiUuPQXt4vkt1hHGRuNlc79ULZ4m3bhCt5a7bBzXzfHzr5itn/1gVavONlyjz1yO58k2223fmuXt7zteY4XEpBp4awpPo8z54ISxLQjjHVjDBvxjZdGQPFiyhV/MzhHfov1kvT7zrhevPrwx3a2m3U6a+NWtp91ArDmYbPtzK/o4iLuIhybMbwrtllaXckLsM8PyJHfYj2ln7iEkKL3PKDOJJff8MoZV9hTJG1m4aJLK2MZd0/yLI871OT+x56wA1/9hh0MrvuW22zg2U0+AXKegaefsa4bfmAHv/FtD5dc/2PrC3GT/tHhoOQFJa33nvsKYYi787obPOzIvgO5dISrDUpmz113W+f1N5TE23XjD214fwjrc2i5DI7HpZPFjReEH11sKCwQYw2/5VGn7Rggc2lFCJGnWE3Cb6onydN941+RtDPvNxb/MkVzja07r8Ne+9OL7OzXzbaFq1DwzBUZxqbdft1u+9anttjtQcnbtqEndtGmaP0U4Se5kvPGKVlmL2iw405pszVnz/AxecXwIUiesMsVpoJgSu4IEBXOV8Ofb7PMXD5AIq2zjAdEFz2KjgVr2WohrrD01shxZF4kholOiImhyIvDkq9MwRUqK1teJceQ/FhGl/6y7fCDcEhxFVdZTy5sZ+HTb36L2Aae3midQbHC9d5zvw1t2WaH+NJFLp7BrVut59bbresHP3IlLDkUQOJIMdvIiI0cOGD9jzxWiBPHuD/OM9zZ6WHdhZ+Rvl7rf/AR6/7xLaXhfYxgZ0HRK5Ad7NeVpY2NQlr5y29nrnBgciziz/jkj2fTXfo77JFCTHNC7cgqSaor0YU/6qI7FnG74FXil4XNjkTpYizeOVfOsdMvmWXL17XaTD6ZNsKbtL121w277c7v7rZHbttvfF3jwO4BH5/G/tK/FCPnCj8BWvGWHN9iZ18+xy66Zr6dd/VcO/mCmTZvSaO37hGM1jBEEcfgGpviJ9RmL2ywOYsafaLicscce22zaq26lvP5Gf1JyYTLs8I+juPLIMznFx3b0bHdMa/OeDMXhTKlns+Xtc6ss1nZefnKRzxfPKbgPE34NdrMoLw2tTJuMT6mPU/C9RTzuXhd+bzHeZoLTkx3pOhNgkLlcZf5jVORimuR8cI4mVcxuswj4auZn5/bF5l/RvAY2r7D+u570Pruf9AGNjzt3bO0zKVDYXj3Xut77HHre+Ah673/AesN4XtD+KEdO7JAMeChkVEb6e61gU2bPb4Ub19Q/Ia2b/eu3gLhkEP9gzbwzCbf7+Ey1//4ehvtCWE9wTH2mH9x3fGVmDsFT5bBxXzOtllkfoX8d8+4cNJ6truwy1f4SU4IcVhCNaFWen2Lm4W6l+pW9GOZhWE9/rhL4WkxY/qSWUGZOeHMdjs/KGFrzmq3lva6oMiN+nQpj9910G755i6770d7bcsT3cE/Dg/xP+KIZ3CX/jgHU40wefG85U229rwZdsEb5ro79eKZtvKkVpsfFMumtlqC+rg/vhsbx8wd8rdvF61stuNPa7PVIV2rz5zhS9KIW31Gm606udUWrmhyRZJzo/C1dtSE45rs+NMJE8Ou8WNmZMvs+OBoWUS5bWrj8RrT39xea/NDnMefGs8bw84oOc7XQx6l7VUhHr4OQj5yLUzPwsserGe5Edfjj7uU/ykfhQApekcgqz9Fl/nFn8kwmXAeYYwzBU8nTB65XWPIgqWKXajgyT/v8Cr8jIPvi6uRCcKVkB2UTlBCziML5j++nu3L/Cedft85AWMCHDa0ECJPqi6pwuVh0/2yfcxpkh2Q+RZgnrqZ8xvs9FfNtFe/dYG3XtEy1dczYuvvPmA/+foOu+m/t9uOTb3W3xcnW3ZXHlEZ7GI+uTVnzbCrP7gkKHjzfEJl5qZDmWNak8bWGqtvDEpadg3MRYcSSeverAUNQTnssMveucCuev/izC2xK8MSd9UHltglb19gpwSlkfF+RMGXKU4Kx1zytvn2hp9dEsLEsFeG4zg+HevHZ8vXvmdRUBjbYqIDXP+pF4Xz/tTCLEzxnOk4d+8rrl98zXxv3autr/bWvD6fI3AkxBav63D574zxENMVKXrPm1il/Df8RJetjEM+TDEcx2d/7ude2SL+QXFX+OMDkE5aRuL+GCZPjCX+lVIMnZLjaSj4F//YmQ8zmfRDWjrZRu6I8FcaNrrkEymGLfWP5y8jS1PpUWE7+Hvy3LGeNvwoIUSOVG/4i5UkuUTcjvsjpSHiFt2mC5Y32TlXzLa153T4+DnG0fFm6QM37bH7frTHnn6oy/btGijME1eMqeiKdTdsBnhjl9a2My+bbee8bq6tWNdmM+c1+BupzF93/0177ZZv7bTN67ut+8AQMXid563Xzn1D3rrHFCnM0cdxKH3jObp2mbMuffqMtM9d0mjzljXZ7IWNfj3jHZccYVcGJY/1lH6UNVozO+bVuz9xHCke5hhEgeWNYZTYg+EauJYj5X9ci3/5vWL6IkVvEsTKyg8b0c9Xcn6+v4S0g32ZK/yl3e5Z2J+8k5+Tlk52bIaHCT8l53a/omNXdPxk/k7akVazeDJvfuIybsdd6S/6Z56F/ZHCisNW8onn8BV3af35p99/Crh3iof/6JEt43bcVfwTQozFa0ZJfcnVG+oU+wt+2Zr7h62gcNGtyvg3ujTPunyOLT2hxcMx8fCT9x2wO7+32x6764Dt2d4X33xlJwvicMd6tl34M1ce5wdFi5a2sy6fbSed3+EKGy11KJCPhzhvv26X3fKNHbbxkS5X7NKxzIO3f+eAf2ED6MolPbzRu4vpVMrc3u0D1rl3sNBNypx5dPny6TRaBZnyhHn+8sfs3tbvx6C4kgcoi7FFkDjixMlMmzLROcudj1XMvjjC8bwpzDVwLZCuzdfyeRU82Q6r7mIYMd2RondEshqTZxyvyFjPcp+4PUEEmfeYvbH2jndE5kcFzyp5wS8x1mc8r0Q8SzrX2HMm/7RWwgTeKf3lFIM/z/QfhsmlXwgxhlh10iIDj+jc33fEvbHOuq/v4A1RPr5/8gUddvGb59nMefX+QgIKDkrYPT/c61OoMKFw8QTZ8RmcJf7FLRxTgzK27dK3L7AzLp3tCh9KIq1bTMHyvc9vs5uDgvfsY902NJC9fOHHwyE//87NvT7GDZh8+bbv7LRvfmqzffn/PmPX/t+NBcf2t/59s93x3d1xomT+4kU7TPWya2u/3fndXdkx8fhvfOLZcMwu74ouJV7Dzmd77c4bdtvXP7HJrv2HjfaVfwjHhaU7j6PoSMNPvr7TNq3vdqWS05NnO7f2Wef+oSzO8FuW/6x6en2vEEWk6D0PYiVKf163Mhe3nXwt8/UskC/jamHTXTFGr7S5AEX/GN5dCVnYwr60Ujw2T9GXv7AdfqIL29l6nriZdrCMq4VNd8UYi/kQf51sNR3DSjzOfeOK+2fbmUt/ecb1yw4pxlkkbqYdLOMqW0KI8cjqSnBRLsQal36jf/hlNQffgG2fXW+nXzLbTjynw2YtaLSa2mp7bmOv3XfTXm/F4y1bf6OWN0cLf1ms48QJLW01/ibtqa+aZced1m4z5zZ4S9tzz/TaHdfvsnt/uMeefqTT9u7oL7zMkcXo6zhax/jkGcqS7+cdi+AO7BmwTY91uYKIe8aXXf4ps93b+vzTauDJyqJFieQzaru29YfwXe44dtMT3d6qx7dqi2TXGI7r7Rnx1rzNIVz8TnA4zl08Z95tXt8V4hnyF0poTUTh5Niu/YM2lCl+uDylm9l58S0LJ6YnUvSOBBXFa1a2CD8uLLymRcdvClPAN/mJFa7skGzhIeKO/E4cx2Xe7sMPpOUYUmBcWiWOw/jFmAu/vlb0Do7tbE9cLeyLCz8i7kg73SOSVn139pfwdT8mkW3HwNlqCFXmVyC3nuLmj/+iYzvbE1eL+4QQZWSVxD8cm5943WsWtagQplyG0I3KVCdnvmaOLVvT6uPmOoNi8uT9B+2eG3fbFj5jdjBOpF6IL4vCXfpL+4NrYqzfiiY764o5PtZv1vyo5PHlCrpqb/32jqBA7rcDu+iWJc0pstL0d+4dsu3P9lnXgSFv1eNtWsYQNrfW+tc2+FxZT0hbb3JdQ1EhzbpNQyzhD+I6Y/3oiu05yHHD4bpiHPj5270ZvhZ+OJqu1/6wP52ruxPHsUO+nRzpobWytaPW5ixssJo6JpMesK1P91gvXwYZidfp6ZrA5fOQPyGk6E0G6gqVaFx85/jVKXgW/WO45F5YBSw9pjTGPDmfQoDSEEVyYcso3ZO2opt8+kvDxSOjXzG2saEKPoUAcdsX2a5IyUYJpUHT1sThhRCHrx/UvxiiWJNxK9a12nlXzrW5ixqsvqHaW6FobXvo1n1ByerN3hYdjxTDWJae2GrnXjXPVp3U6tOM0CLHZMp33bjLfvy17bZn+4ANoeCVMDYuPl1G9+3mJ7tt/65Bq2+ssZUntbuyx/x2tO6Nn4JIfA9uohD4Z/toKcyBbzF1YasgvLLw48D3cJed2GLzlzVbYzMvhFR5V/GGBzuzFst0dGn+TxyjEFL0jkhJRUq1jEXOFfwIU0ImQcpc/hg28nGVOvZlG35gWJRRqOr8Z0FwxZW8X/jNNlK0KeqCP3/BM563dF9ypccQNvqlQ8aS7Sh3vsg2+I8Ld8WVvF/4xY0nUTM3mfQLIcaSqlex6sS/uI86Ff3y8EbqwqAwrTypzZU9JvjlRYWND3d6a9v2Z+gyHck+x5U5/mJk0fkibRzyeeOYx271ae22+vQZ1jar3lvYtjzVbXf/YLetv/eg7ds5ELtiaeBKfx5/2MZlcfrf6CFvpXvi3gO2c1OvK0+8Vbv4+BY77hTm9qv1t3F5M7Y2KKmcnxcqooZHDJG0dOKugmdxXy6Ur8Y0MFaRKWc4D2/S0qrojvUGllVW31Tt3d/rzpkZrr/Z84zWSLq8t22MYxuLqYnE2IMf/3ER/cmLwpaY7kjRmwRUl6LwiK7oGaqTexThW4tVjY1WM2eW1S1eZDWzZlp1c5NVMao4U1JiNYxVMbpsnSiz7RR/tpVRXCsGjmEKXsn5X9xTCJq5omcIExel4Ur80kr0gxh3Lv60nsJmFFfD/tw+D8+6u7QSVwsOv5pqq2posJoZ7VY7f17Iz4VW3d5qVXV1Hh44MoYvWxbW00r083UhxBhS9Yj1JPzw78ti/WXp64HG5ho77tR2W7E2TnUCKHeP3LHfNj3eZQf38aUeP7wI6/ilP48vCxPEI2+rrj693Y4P8c5fGuRm8ONNVLpr7//xXld6Rr0LM465i8cSk0cbXfrhPyzpNn36oc5CFyhxLl7VYqdeNMtWnNRqS09otqWrW2xJcEyozPQmdJsSDZF4fIGqcCCtgLxVuyCEW5i5BcuafDoU3swtIUtHY3O1dz0vOq7Zz5Hc0tVst8b1Na0hLW225qwOm7uo0YaCYrd1Q49tC2nev7Pfu3/T9ZTkGevZX1Ko46n5E0KK3pHxihRXJ4bKla0GUEwaVq6wjjddbXN/5cM24+orrXHtiVbV3hZyPGR5PnD+BO4fHMvMC9zXt3OeBWJlTi6SbY3dMQFZgDHhw0qW1lLvwlogtyelv4QsfSlI9pe2CvszF8m2wn91Q5PVL1porRddaLPf/x6b95Gft5azz3Ql2kFiJ1IkOIc44kaJtxBiHFItydeW8hpb3K4KOk3bzDo7JShLKDCMT+OFgQ0PHbSHbt3rChXVr3hsOfgkF6mvjwrR6a+e42P+4vxxg/4yxx3f3WndIX6+810kf3xaL/Xjj7F9pI2XIZ56sNMG+kb9k2NnXjbH3vnrq+wDf3CCfeAPV9vP/MFqe/uvrbRXXTPfWmfUlaQfaIFbtKLZXvPORfbhP11jv4D7kzXh+NV22TsWudJWpJiORStb7OI3LbB3/eZx4RwnFJyfNxzL8n2/e7y96UPL/K3impAPjNm7/8d7vMu59Gr4i+v53xSmsBV3CCFF78hQYaJLlpSv+1+xHo0O9Fv/U0/b0K5dbvVVNzUGZW+5tV10vnW84Sqb/b532dxf+KDNeu9PWdsVl1nTurVWM2uWVdXXp+gzirEW1rKfYpgcWaAYR1pJO7Jl5n+49Jf6pPU8KUS2pxg0RR9JyzyFnRHfLHPuF5Tg6uZma1i+3FouONdmvu0am/3Bn7Y5H/qAzXz7m639NZdY02mnWO2smd6iN9rXZ31PbrChnbtCFCll0WWpzJFCpDBCiDFklXNMTfGN0nozc06DLVvTYvOWNFlzG3PajdgT9x60Zx/vsq6gnMUXE4LjuJJ4s7+0y2OLfrMXNXpLHpMON7bWWm/XsD18276gnB2w/bvimDwPn44tc9lP9sdaRlAOaRGjdeyR2/fZvp39vhNFlfQvWN5ccPMWN9mMOfVWU4MRechfyuDaeJGDbl9a7Wi9XLSqpeA4Dj9aOOlOJjxTsaSUeLdsiHPe0tJzlTu+hMEYQubM2/BQp216osu7wkMUwRWuJpL8Cv7uUcwH9077xHRGit6kiEIjVaqoMLGa1oMw6O2z3gcfsd6HH7WBZzcHhW+3+9ctXGAt559jM9/6Zpv7cz9jc372p4PS8pagtFxqLWecbg2rj/fuyNqg9KHk+EAOP2NGPGXRo7AD/+L5C7DufnG/r4SDPERhX3F/4fgYLFuPLq0Xw2Tb/Llf2CRePzDuTpsFWHeXHZc8WFRVB4Wt3qrb261u/jyrX7HMmk9ea60ox298vc1+/7uDkvd+X7Zffqk1nnB8UKCbbPhgpw1u3Wb9Tz5lPXfdG9a3Fs4zufQLIcqhXrjLVkrqTfCI+5Jf/KwXY9wY74ZK1LV/yB69c789t7HHRphCpeTYuM14Offz/6K/ewRHaxZdly0z6nxiY76e8eAte23Lk93+ebMU53h/MUbf7dH5+bLwad/u5/rsifv2+xx1KFCkJ4aL38Xt6Rzylj9eJklvuA4PMTVKn09xsn/3gE/LwoTLHH9wb1jHuV90pPm5oFAmBY24eSGEuDkWhXX/rhBXWPLW7eBAnHIG0oTMWzd02yN37PNpXgZ6mSQ5XVu6JkLHY5yCv4eKYfP7xbSm5mOBbF2MQ/cdd1n37XdlW3lyXYaBQyMjNnLwoA1s2mJ9j62PrUwDg3F8WRqfF1xNS2tQ7BZY07oTrfXC8635zNOtcfVxVtsxw6vlSE+vHRoKFTur+ImqpmDhrlxhTSeeYPXLl3mF7r7jbuu58+4sxPOlNP1jtw9DSdDS42il7LjyCqubN8dGw/X3P/Gkt3QObnsuC1GkJii2dQvnWfMZpwVF7jKbec0bbeZb3mRtr7rQ86duwYKQXy1BH4z2yPDe/da/4Wnrvu1OO3jdDbb/m9dZ30OP2PC+AyHjglCeJK0XnBfcudmWEAKeuP+grb8v1CXIiR9GRxQ3i2trz+6wMy6dazNm11t/T1BOnu62u27Y5XPaMd/c4QmRuuiI8dELQgsac+ad9Zq5PrUKX6h46sGD9vCt+/yrE67IEDa4QioOZfInWxT9s2Ugn34UO6Zi4S1cumYXrEC+VPn5aT3khQ0c3c87N/fZ0FDs9kXBQ4mjpY05+bYERQzlkzn33D0V3eaw/vTDB+3eH+72Ofb6s3n1SAN5hLJIK90zj3TZxkc7w/5ha2is8S9/MO8g3+XdtbXPu2wZj8gxrr95LJC7sHLyu7L8WHNmhzsxvZGidwTyil55PSpaTGELy3BoyEZ7eoJCss+7cAc2b7WBDRtcORnatt1GOrvMglBBeamd2eHKHa5uzhwfh9awaoU1rlntXb518+Z66xUKZDAtraq+LuxfaY1B0WtIil5Q8lD2UjKyul2QfYmCf7aEMelPcbBaHpBF8HPvsJ155cIVD6ZbtePK145R9Ia27/DrqQvX2bh2jbWec5YrdG2XXGyt555tzaed4i129bRuhjyha3akqzsozpu9pbT71jus6+ZbrOu2O6z33ges7/H1IX+32GhXlx0aDnlUTMIR098mRU+IMTxxf1RyINXxAtQrluEHu6uppdbWnTvLTj5/ptUFRYWXJZ4KiuJTDxyIY/P8oAh1MpH83St9vzssUHL4ksZJ582yE06f4RMF881aXuqgdYs56pwUVzgmfw6HfZln7pSR4OG7OC4ooXxVg0me6+prbMasOn8bFn+mgaElbme4HlrmvPs1HEMrG58kO7B70BUxvrSxI7lNRef+2TqtgvE7vi7CfY68/bT47RiwnqBUzphVb/OXN3vXcUNzjXctoyTf428WH/DzeAso5NKfKJd1+WtO3lL0BEjROwIoeV2u6OVq1LhQzYLqNBwqd1D2aNEbCApe38OPeQvf4NbnbOTAATvUP+AKIcrJocFBs9paV/rqly+15nUnWvOpJ1tjUOjq5s+1mrZWqwr7q+sbfL3huKDonbDa6pcu9hqOktd9Z1lroyczVXk28uuHI6Z/Ysbuz8eeoAu646qo6B0aHLKBZ7fY8K7dQdIFy3XFcms+/RRru/B874ptv+zVrnQ1huviOJ4gIyHvRvbtt8Hntlv/+iet+677rOvHt9jB733flby+Bx/2btuRAwc9/qKkm3z624KSR6ueEKLIE/cFRe++/dkWpNqdr2OIrCqbMbfB1p4zMyhlHT5ujdYpxr6hIA0NpvAsy+NI5LerfP44Xlg44YwZtuT4+ELD+vsO2gM/2eMvY9CtGikeR9UvKpHjnWf89NMyODgw6l+4GAgK3OwFjT62rr6pxlo76jz9KGk+b11Q/niTlfOjHKIEMoExLXyxC5b1wbi9O3bt0lroU8pkuinnHx6iS3bUx/nRctkelDy6qJevafPzcx4UwA0Pd9pt395u24OiGERmRmn6S68xwGZ+VyFTDgUlb6YUPSFF70h0336nu4kor4JjCDWYli1a+QaefsZ67r3fx5X1PhAUlh07Y/dufb13Y1bVZt27rS3e8tV80lpXiprPPM3f2qUlr2HZEm81c0Xv9qDoBeeUJ2DCBJVyxPQXyIUIB/lxwav8OKaSSYqeC5yg1JLutosvsJlvfZO1v/oi75atX7TAr7PQLRuUu4GnN1rXLXfYgetusH1f/YYdvOEH1nvPfTbwzDM2vD88gEJeFRW7yAtJf2zRk6InRJ6o6GVdt05WZ8oqGS8LMKXI6tNm2OLjolL25AMH7aHb9lr3/qHYipUO9WPjdlXyzJGibgyK3tLVrbZibZxSheMeu2ufPXjLHleOYsAsdFik4/KthWNJiYiL8tOjjDGusK9r2F/84EWI2qCE0dKWXrBgbr3ezuKXMsqZIOox0D3c1FbnL5qc89p5duEbFtjycK2ci2tFgbzvpt12a1Dy+JQaXbhHSn/BH8r3ZdtS9ARI0TsCtOh133ZXsSLlKldJ1+dEUItHR731abQ3WGmdnT6Wb3jPXhvavdsGN2/xrk1a/xjHNurdu9VW0xKEzMyZWRdvh9XNmW21c4MLftWNDR6vt+jRdZuRr/eJQspeaPpLYh0nPKvuHfflW/RoraxuaPBu6PqlS6xhySLvlq2ur7OR7h7veu198GFX7rp+cmtY3m499z3gLaADzzxrw7v32GhXt7eCet8HeZlLzgtNf+uF57myJ4QoQmve+ntTi155nSrWI946RcFj7ryklK2/Z789fPs+f7EgjaUrwaMLPyW70kZ8k5WpSZatbrPZCxu9y/TxECfxFsf7FcOPpfycE6c/QYvbcFCoerpHXJGjlY+WPbqlGb/HCyEoYnNCemh165jT4BNCM0k0L03QSjc22kOufNbWVlvrzHqbu7jR82r1aR128nmzbN25M+24k2f4ly84T/eBIf9OLmPyHr1zn8/zR8vf2DGOY9Nfeo3j7Tc78SwpekKK3hGh27brMC16JaS6lqt/eJWInOBxaGTYlT66d/s3bLTeR0q7d0e9e3cwSKFgRQ4MePdtzYw2V/pqGhtDBLGL2JXQ/MsYxB1O5ucrrvAzOSaZ/lKPjOxYWhtnvO7yoJTOCQpdvbfaxbeJa/xFE1ruBrfv8G5ZWjY7b7rZDn7vB9Z96+3W+8BDNrB1a+ziHhgOcRJpStQkSEGPkP42KXpCjIFxYSh63vIW/seredQlXh6g9Y1v2s5d2OQtXXwFA0WloKCEg1Nr23jxQL5eougtPb7VlaJZ85kseMRbF5988KDvJ6zHw0/uwKJ/2hEULZbhf7zzpkPTPt4O5m3Y2AU74Ioe4wUZs9fcXudTraCAzl/abDPnN1hbR52/OEEe1DVUW0tbrU8tgwLIkq7f9qDgzQqKIdfCp9bWnDHTTrlgVnCzbekJra5EjgQlkW/vMhXNQ7fvtbu+t9M/FUcrY7rGyaS/hOw4J6yT/yeexRi9mZmnmK5UBetr3DIjItv/9h9t+9/8Q7Y1AeU5mFW25O2b+TCpMgL+bGetX9VBkWMOPhQmvqrBuD3m3OMljfqFC0KY+iBY4xu+Oz/+Sdv5iX/3aDyS7Bwx+uwkacDz4SgPkh2avH0zHybb75Qdy0TRS//f/2PNZ5xqte3t7jdEt/XmLdb36Pqg0D5u/U9tsKFde4Li1+1z4R3qC4ptUFwPZW/OvtzpX/jbv24Lf+vXsi0hBHzjU88EtzFu5Ot46YYrO7wZe+7l8+2EMzp8nNt3/vNZu+6zmyesi5H8ztKOXOazOyfEd/bl8+z402bYQM+wfeczm+z6z4c4A4WXqfjNHVj0B3ZkWyXnLdnIUTyypiZ+mgwlDeVs7Vkzbd15s/yNYj6HxosStDLSjYyj9W+wb8T6eoLrHnYFjXANzSh9NdYUlnRxx0+rVVl9Q423BPKSCd3FTEHzwM28mdvpL3DQqujzDqbH8fNMv4fJb2Zc8+GVds3Pr8y2xHRFLXpHgG7brttiix7VbWx3IdvjrUMMnUTaOPWwGDqYwqPevdvnb+eiyA3t4e3d1L3L27sb/E1etrvvvtd67rzHp3OJ5M87PoR42dIf8P01NbFr9sBBG9j6nE+F0undsrdZzz33W++jQdHbGLtluU5/OcW7ZT2Kw8K5Xor005pHq54QoggtaOuzlzHytQhS3QFeWli8qtU/IUaXJkoQY/Q2PJgf3xfJH5dqYdbmVgJKEfExNo7WMKZAoTWPiZJT2BQX2/l4E2PPVWS88FCIO+uK5Y1hFDemc9m7o89fBEHBQ4FrDK65tc6a2+qstb0uKKf1/lIFXbpMljxnYZNP+Dx7XqPNCH4tIQwtfbT+oRjyRu3TDx20R+/YZw/fvtc2PHzQ36zlxQ/O/2LSPxEnnjnTu2/F9EaK3hHgRYzOoKyMFU2lUBEnWzkLFKRMtgykeGjh8q7O1L3L27tBSUKxY0Lm7lvvtIGnn/UWsQLhQD8+i88XHhmL8tSVks6bJ4tmYtIBuYCke2jHTh9viHJ68Ps/sq5bb7ee+x8KCupWG9l/IL5t7NMGlJ0xbLpvFp8vCBJWXsr0e9etFD0hSkDJw+Ub0b365StW2FffUO1TgqDYtLTX+tuoTKvCm7cEKK+/NFJRfz2aCSppXUONxzk7xRmUrSdDnM88FrtunSxsgRRX8udcLHLhCFKe/iK+N66yzvEhsbycsWd7v21+ssvfsGXMHC9T8DYuY/lIG9/ORQHkbVla6ZimhSUKGy9SkCe9XUM+Bq/zwKBPt8L8evf9eLd/Hg4FtnP/YO5Fk5iEF5t+tvP5j5InRU+o6/YI0G277a9T1y3CavzsyvumelkeMl9f80zqBlSFc9fU+Bu61bW13vrn07QU38EvnICKXogTv9zGy57+kM7qujqfB89qqv2NY/Nu2cJcA7n4SxJX2PFyp38RXbcf/fVsSwgBX//URvv6JzeOrT/BI/nhyTi2FWtnFF7GoCXswdv2eCsV5BUNPzAXUVVei4Fss7Gl1uNbubbdPxOGssRbvI/cEeN0yg4tJbWIISMiudMW/ErjQJrkPLJAhSRWx5bGxqbgaM1rpyUvjsNrmxHWsxc2WNLiNzw4Yr3dI/61i+6g3PGtWta7Dg76ZMyuIPaMeDevv8hRwkuffhZv+fAqe8svrIoeYtoiRe8IPBcUvef++v+GWpNqW8guz7F87YOUjcEzt+qwPdE6HCkeJ9vwEc75MOP453YXUPojYR1FDyeEKBIVvaezrUBJPUuVyqy2Lo5lo9uSFxB4GYMWsD3bc70L40JE5ZUzwvg1ukIZE9fcWuvz1u31OPuzEMXzF44tRJXfl8O9x6Y/nXmMoTkBMXyVT7XCfH+8ONLYVOvLhqa4zVg80uzz8/XxFu+wDfZl633D3vpXnAswS0Fhc4I0uHcI68GLYbKjJ5X+t3z4OCl6QorekXjur2nRC4peoFjBiutxLWZhSUaWBhpDeRXNB03+4/mNh8uJELjkuMwvrUKKL7crwFoMkcI5pYHGUDwqkg+a/MfzG4+jnf7Fv/0bUvSEKIPWPBS98voGhbo1pk6lrsKqQhdjQW9JYcseMVFBKVIIxk/uGD5Llq0W/QO+GvzysWZBS/xzhxTD5j2dyk6/FD0BcbZaMSmoP7EOFapd4JBX5BJZkF8fFxrcCVQMmLaOeGg54YDy49J2ebqSf/qNTMf0CyHG44hVhwBlLi74jUTpUKyXcX/RlfvEvwz3ilu0QZTU64ziEcWd+XMdlnRYzsUFv5EUfz7OvCv3iX8Z7hW3pkL6c95iGiNFbzKkCuMu1py0GhtEM5dWiyvF1Rg4c+P5x+0oHGIlze9ixc/FRuYK+6CwkvCqnlZzLvql1WmZfiHEOKS6G+te/i/ti/Un2/a/HIX9kfIQ6ai4VkoxbN5Btk6aCs43syBpJXoq/UWfcUKIaYoUvUkRqguVD8eW16fcds6PlaIf69HPPZI/Lucdt2N8BbJt//MlfvzzE/2jR7Yfxyv6uPLw/KYwbPlhue2cHytFP9ajn3skf1zOO27H+Apk2/7nS/z45yf6R49sP+4opl8IUUqsF1kNoe4kV/bn+1im9Qlc+PEw/pdtJ+/kVxLWF7kwvl4WJgYqibfg2JdcmX/+z/exTOsTuPBTch62k3fyKwnri1wYXy8LEwOVxFtw7EuuzD//5/tYpvUJXPgJYYSQojcpDltdsvo2IdS3uJg42BGOLz84VOPwk7nxGBP+MJSFHUPYl4JMGOwIx5cfPOXSL4SYkPKqSv0tVyRYS66EcTzHDeeM9U1hC3vKgozZPw7TOv1CBKToHYFYoXwturBdrGRe5dKezMV9hPFwRV8/JDq2o1/xJ3Np1ReFUEVyQaJLYfIOsvWCV9oOoVNCwvbYo+O+Sk5//BFClBNrS3LxL9twl/k40Sv5lLqSv6wuFupt5gr+Y48o7GNPdGVhCvvjnuLe4hEFn5xnCgPRK/mUupK/7Fx+vpwr+I89orCPPdGVhSnsj3uKe4tHFHxynikMRK/kU+pK/cV0R4reJEiVMjo88EtVKO8R96cw7u1/Ge7nntH5vuIxuNHwk/7490XOz4VD5l/Aw0QX9xEu+cVjii4XnmPjAZlH8biCt/9luJ97Ruf7isfgjon0CyHGMLauUYG80rg7ZKOZf947bhTDp33JD6/4V1yL4SKsBx9fpGXaPXZfbmekzD+lIzn39wPC9jRNvxBS9CbFRLVlErUoq3TGFOrl4X1fXIVQLf03ho9+cSXvcqseLvPLSLtKGesTmcg/h0cYfiox/UKIUgp1MtaVuBb/ChR25/wyUtixe0qJIVKo/HqRYlLS/rHxpngKv0p/9idEESl6R6C80qRq5L7scBe2xnElQXLHQjGcbxbJHeBR4NjM1sG3/S+tR6Jftic7INsqkHzclx3uwtY4riRI7lgohvPNIrkDPAocm9k6+Lb/pfVI9Mv2ZAdkWwWSj/uyw13YGseVBMkdK4SYiKy28J+5scQw8Tc6Jx1QcPxnNS7zylYzl/7ivujCdubKicfgcmHywXw9C8V/5sYSw8Tf6Jx0QMHxH8P5uq/4aubSX9wXXdjOXDnxGFwuTD6Yr2eh+M/cWGKY+Budkw4ouMxfTHs0YfIR2PHpz9rOT3/Oih+mof6QZXE7foQmrHsuhp/8pJVpwkz/zYVNkPUhTM4nBg4HF+JMOwnKMtsuTUOR6B/8fJEm0SS2YqjSY3Pn4icLVsnpn/+h99uC4IQQRW788ib7/rWbU+XxinPI6zcrMUyqX4ksZJGSx0nYE6PxKGN1jLWwGF2MIR5GIJZhQcXP1vOk45xwUJqUOAYOez06/4mb0zz9V/zUcnvtu5Zl22K6IkXvCAzt2WvDe/dlW6ISqJ09y+rmzM62hBDAR/a7ghOVA5+V43N1YnojRU8IIYQQokLRGD0hhBBCiApFip4QQgghRIUiRU8IIYQQokKRoieEEEIIUaFI0RNCCCGEqFCk6AkhhBBCVChS9IQQQgghKhQpekIIIYQQFYomTBYvK6Ojo9bb22uDg4PW3NxsdXV1VlNTk+0VQgjxcjE0NOSOT60he2tra7M9YjpxzCp6KA47d+60vr4+L8CLFi2yhoaGbO/0BsXq4MGD1tnZaS0tLTZz5kxramqy6upiAy779+/fb/39/a6MJQiDMCB8W1ubtba2ul9PT4/Hh9Bob2+3jo6O7IixUKS6u7vtwIEDfp59+/Z5mjiGOHGzZs2yxsbG5y14hoeHPS319fV+fPFbkUK8tFA/9u7dayMjIzZ79mx307W8Ue937NjhsgCZgEsGG3WSvKKus596jvzYvn27L5E/yOajnXc8I7Zu3fqi08C179q1y2UY6wniIg+IFyOW6+ZZ9HygbBEnecixL8UzjOsmrV1dXX5fWJJW7lmSwaSXcyGreQZwDM8Krme6lvFK5phV9LZs2WJ/9Vd/ZY8//rjNnTvXPvaxj9nxxx+v1qLA3XffbTfccIN973vfs/PPP9/e8Y532EknneQVOXHdddfZtdde6/mH4pRAKM6bN89OO+00u/TSS/14BMQdd9xhP/zhD11wvv71r7drrrkmO6IUihNC45ZbbrHrr7/e7rzzThc2KJM8BLhX69ats3e+852eJrYnC0KRuIgTxX7t2rWvyANETA++9KUv2ec//3k3WN7//vfbhz70ITdMpmN5Q97+zd/8jSsIyIRLLrnEZsyY4QoK+fPf//3f9s1vftP3v/Wtb7VTTz3V/uRP/sROPvlkr+urVq1yw+xosnHjRvv93//9grx5oWnYtm2bffzjH3e5ivIKlAEUMxRI4j3zzDPtTW96ky1YsOB5Ga8YwSjQKJLLli3zuF4smzZtsgceeMB+9KMf2WOPPeZpRv7Onz/f1qxZY5dddpmdffbZtnLlSr9/hEGu44cxo1a/yqMmKEgfy9aPGWgteuKJJ1wIP/zww26RIFhoJUIpme6gZH3961/3vEEgIYxWr17tQjiB0CIclh/C5ZxzznFFeenSpa7soQCisJGfc+bMsQ0bNtg999xjzzzzjIc7/fTTs5hKwXq8+eabXSkkDoQX9+aMM87wdRRBBA+Chbg5NwrgZMDy5bjPfe5zvn3CCSd4y95kjxdiMvDwoyUPQ+Ub3/iGPffcc7Z48WKvQ7SGTMcH4Z49e1yZQ9YuXLiwYFRTH5E1P/nJT9wIQwk866yzXGawb8WKFV5P6QU42kY4vT0oPcuXL39RaUAZoxygkBEHChHxodSl/Zs3b/YeD2Qs+TNZyKOHHnrIDWnkIfn6QkG2Ygyj4JFe7tWSJUtc/qLUYRRzj3h2Uo6PO+44l6k/+MEP7Pvf/74rxC+kVVJMfY5JRQ8LC4sF4YLSRwWh0mGxpEpGAUaJQUChfNBqhdWE9Yk/0NVA9y9h2E8lSYoDFhB+VGKOIwwVeWBgwIUFjvC7d+/2hwLhqER5x34qDfERF3Gk87GfuFDEOCeQNs5F2tM6cZNe0nMkpYaKTpw33nijt+ilpnj8zz33XLfAU2sEwmX9+vUuCGid+5mf+Rm76KKLvCWPyn7TTTf5uTknAgAhR3jSjZWO4lYO18u9+c///E+3EomHlpC3ve1t9rrXvc6PIT4enLTKcc/wI4+4PgQz5yRPceQ3yiZp5uFKvt133332yU9+0rcRighe1smzdCzhuLf4kV/sJy78SSN+OMoO942wCEHC8ZAnHHlOvpF/qRxxP1J4hGiKm/LF/SI+WgzSPSIuwpMurpG4Uv6LqQvlkIchhtCjjz7q946yivKCIcQ9TnWN+8795RjuNeWP8kDZ4/5TZvCj3qSynOo7xxM2lXfiQU5QF5LcoNymcpfkSnKUtxSOY9L5k9wgLtKQ5AZpoh7jT/klLOWauFJdIb7xIAxyhf0obygJnIN6jOFFnBiLyBHkRYoHJQu5TNxcK2lMeUU6yT/SmGQq+UMdTfU1XTt1EP90LUlekK6Ux8RFnqY8SZAGngsYsFw36eYY4ueY8vtSDudAeeJ4FNmf/dmftde85jV2yimnuPwhrRjCjzzyiPdQ4M+1EO9E9zfJLIzxH//4x3bbbbe5vMSYQBax70hloxzKJPmEQo6id95557lspzWTe0P8XAvnIj/oUUEWf+1rX/N7y32jjFO+eU7lywnXwjnJp3y6iI9wkO4hTKZsk1aOpxwjU1nnnrDN+YiDe09a2EeeED95x7WStlTmU1ryYSRrixyTit6DDz7ohRUBQTcjhZNChdV94oknehhuPMrgF7/4Rbv33nv9mM985jNeYamUFDSUmU9/+tP2P//zP976RMFKLVoUSo7/9re/7YKMynP77be7IkNlRrmkcLLvq1/9qn3rW9/yypJ3FDoUKQodrWF0BZEGzkc6aNlCGSPdpIfuVJQkCixWFnFTYZ988slCXKRtIkj/s88+661pHEMlxw9rE8FEPqWKiIBBGeM6sPgQTsSNpYfA4zoRglQmFEAq4JEUPcLzYOQaEa7vfe97vUuDllbyAAFC3nG95C95zTpp4P7xcL322mv9npHfPESoyAg+4uC6uF+EIz04BCPx8gAjfzn2K1/5it16661+f7geFFzuNXGTH1jdXONdd93lrRHESzcwQpvz/dd//Zc99dRTXr5oDb3//vvty1/+ssdNeUABoCuLe4fw5FxYxJQzuka4Ho4lfXRnUT64TtLCtYipDeWG+ktrS6qfPJx4+NCSzX2kHNG6zfAI7i/dhJQNyiDGCHHgqM+UO8KhXHAs8QF1lbJEeaPMfuc733FlAVCOKCu0jlOfkC/f/e53S+QLMo0hDKSR+oOs+MIXvmCf/exnPTz1m4dpkhs8MP/hH/7Bj6P80iOCLKL88yCm3BLfeFDvOSf1hpZ56jHXRBw8vK+++mr7wAc+4Oci3ZR90oL8QO4gj6mD1AfkL3nFsZybtNNlmIw28g35SJ4gA7lu5Bl5Tt5xLSh5XB+trsRDHpKX3LNU15BHKQ34cX3kL/nEMdw3zkO+sI+0jwfxEA64dpQmrp+6T0sZii8yhnvFEpnEtZDHE91fjuW8GOSkh7BJscKAJb+OVDbKlb0kc1AckZFXXXWVy/Wk5CbZi8KMnEJuUj4Jz7MImU++kRef+tSn/Hy0iHIPSA9p5v4g7yiTpI0ywX2gXHAc1w2TKduUQ66f+kLepeFEhKOukCeUE9LIeSgXyGPyONU/7iHnQDZTvgjDftKajA1xDCp6aPK05OEorHT9UThRXFAcUECoABR4CiAPcgoxULh4kFMJKCSESVYIlY5wKD3pgU/hIRyVhMqCoEehIA2EoUBRoPGnoJMOBCZKAuGo8CgQKEgobql5ngqHcEZ4UTk5joKJMMG6olIhPIkfQY3VRcEnbfhR2cYDgUkl5HxU4re//e0eF9tUeIQp5wLyC6WMayMfSSvXhTWFYkhaqEwIsQsuuMDPfyRFj2smXiol3Te05HHOfIVL+YTiRqsALSWkAWUKoU3eEYYHDnnAebk3WJtcH4KHBwXHcQ4USfw4J4ob14AgwZrjfrKPayBeFHeuCeOA/EY5Q8jxkOYBjh9CHcHC8Qhx7icCC0WdBxb3jvRxneQx5+IYusJpJaXlFGFEmUBgpfhRtEnzRPdOTA0oP5Q5FHvWKes83JEVPAgvvvhiv78YXtQTHi44Hp6UGWTJ008/7XKDskc5QB4RHrlDuae+4cfDjQcgxxInjjJLGSUeZA71jTrMNgYKx1H+UWiQHa9+9atd6aH8ERdlkXJKueShh3xC5iBvUCKSoUQ46iHXyDmIk7qKoUwZLW8NSYpeapFBtlIvyKu3vOUtdvnll/uxyFiOxR9lim3qEXIF2YRcIU+Ig+vhOqjX5AEyiNYxDCbkNnEg70gX56cecS3UO645yWe2yVf8OCbJGK4tpSF1U6ZnB3WRuDkvcpi0cJ+Ji7zOkxQ94kMZpNcD+c81ILs4F/mC4kucnAs5gbyf6P6SR6QZ2U45Qc5z/cg0FD1k2ZHKBmkth/DIOZQo0ovySN6zJL3EQ/nguUlecn7KCM87ZCDd0lwbecvzgf2UG66Jc3JN3EfuBXKUfCPfeTaQ7+ThZMs2Mhn5yLVy34mL8DxHKF+UDcKTx8hhygn3kG5z6h7HImOJj/tJOglHWeG5m5514hibR4/KlBQRCgGCBSWEJYIYC4ACS2FBCKawFCKEBd2HFFgKHFYihZ8XDrB8qDQUOOIgPIUqWSo8pN/1rne50KfS05pIQUd4UjGvuOIKj4OHAAKWwkghS4KEAomiQKFlEPNP/dRPeVo4P0INgUlacVSsJHTf8IY3+LkRClQwrhmBMBEpPq4dqxOBlCoeFYLj85C29DBAMOBoRaPlEj8qPM374wmU8SDfELSkl/SjrCFckgBGGPCQYZ18QtAlyHfSSGUnH+luQPBwX1GSqcC0EtK6iIBCGL7qVa/yPEbBoqWAvOEYFFz2kR6sRM7JPUFg8BBGcUQo4M918iDFn3JB+SH/eRih+CGEecBzHdxnHmooc+Qlyh7pRuABZSKVN66Z6+FcnJe4JpuP4pWDOkpZo4Wfun/hhRd6dx33EKWChxDljIcoZYSyk+oVxhQKDw8eHrbUax7elBvqIw824qVMUz4oV5QXjBgG8r/xjW/0sk046iD1mTKPzEC+IAsw9qhfnIOHJ3KGdKGEUf5QRCj/73nPe7zuo8SgpFC+kQtcG2WaJdd25ZVXeh1H1uF4SCIXJgL5R7mmJRCZhlJInUwKYoL6RtknPuoa+co250aOcx1vfvObC/IY5QuZyzWgOGP4IX+QgdQ56hjp41q4JvKQayZO8p1rTveJOJAx+TQgWzk3dZb8og5zfvI2hSNO8uj5QjpRXLh3XCfxcM2Hu788ayhfyDH2Iw9RTign+E+mbJRDmUDOoMRRbpCLKFv0jiAHOY6ySrnAoRwha7kHxM06aUDWkWeUGfKMe4tyxX2jhY08RFnk3vBiHoo8ih3x8/yifkwm/eQReYUc5hmFkkld4fp53qFoch7KPvFQZikn3EvuMQonx5NmnhcYPelZR/0SRY4pRS89nClMFEZuPi063GgUBPwp3HllCKGIMviRj3zEhRqFifAIYPzp3sQRF2EpTBRyHsr4o+BR+GgVojJSkRAiCDwsRazzpFQh6FCcgG5LCh4PBKxt0kthJw1UKARNKtQoWKlgorhQMegKQQgRD8okUKgRhuNBJUTB4AFDYSdfiAvBT6XnAUPFy0NlQ+D87d/+rXe7ML7mt37rt7xFiwcIaUR4UkEnA9dAGrhWXIJKibD51V/9Vfvpn/7pgvvTP/1Tt4I5BoHHdX/wgx/0Bxr5jcBCcJPXOBRrBBR5hgCgBZdzJmWNPEP48ADj4cAYFY6hzPDwIk4eKtxjBDICHyGPwokA5AGC4kb+YZEjwEgX8f7CL/yC3zfKDQ8djqE8cl6EfBq7hTJLOSRdCBziomxwHWLqwwOfusLDhPpOPaL1GqOFMsNDrtxgoiwyFhUDDqUHJQa5gGHIQ4qySJmmzCCbkB/UPRSs973vff6WKufhfDx8Kas8KFEk8eP81EPSQLlCDnAO6gr1m7AoQcghyirKJnWX8sqxGC6U6wTHklaMIWQSLe+U95Q26sREEBcPatKIbKP881CmLh0J6gJ1h7zimqmfKFtcA/GgZKFcIMPIm9e+9rXuqM/IQvKI/dR38gZHPnJfyBvq/i/90i95nlPX8yQlF1lDeBznRVH57d/+bc837s8LbXHn2pA1KFvEzX063P3FYOBcKOv4I2PJm9STMZmyMR6cn/v/v/7X//LZFrgmjH9acv/3//7f9pu/+ZvefY+Sjozm2YBRnlpeSQPp4lmIgocCzf0iPeQdspTuX55LlC/uD/mOssizifrB83Oy6Udm8jwmzZyLssixPLuoS9Qb7j37KaOUfe5luveck/xCBvO8Rk5j5PCcpnyKyDGl6CGI6M9HqCCQaN5nrABjHGiJQQBgCSZFj8LKA5bCS4Gm0FMAWKIwUGAR0hQgKhqVlQJEwaHCUFCoJIxX+Od//mfv6uMhzkOAwkZ4FEzOg6DCEuV4FDwKKQ9/hCaVmnSgTFLgKcRUcNJEZePYJFxThSNthKNykGYqH4rFREKYCoC1RPoQ+qSVlxZoDUutTyh6CKBUATg3eYMiQkXCIfh5CFC5qWCpVW4ykEaUMPKACpgqIRYvSluquCjbhOG6uW/kJccRFsvws5/9rP3rv/6rt7qiJLI/5TeCgSVp4nwIFRzlgfzn2L/7u78zpkOgRYV9PLwRwqQBRZyHHvmE4CJ/ESzpAY8Qwo984d6SdsKhEP/bv/2b5ynjn0g7Ap37wT3jXvNw4UFIOUQx5X6wj/wlLjH1oY6kMXbUfeQLDrlCeWZf3mCiHFJGkCc8bKizqd7iR31HxiBzUhmn7FOGkRuUf1rHKO+UXVoxkiFCPeUYyjzHsA+jkQcwD1larylXpJXyRvmmDCIvMNRIA479pD1Bengw84BnPZV1zoeMOdwDkvSgIGEA84DnmumxIK+oJ1zfRFBfySvkHukinzge2Yhc4tjUoo5CQSsUSgn1GRmPXEOWkUbSjgJIehjnR91kvBZ5RN7in4d6SP7QMsV5aQ38j//4j0L3LwoIMoJjny+kGzlAujgPecrySPeX/ZQf0srzhnXuNcvJlI3x4Dp4tqDMc39QejDguV8YAtwDZGzqfuU8+LFM505wj2gt5X6TL6SHckQ6GGKEjOX+MEaOOsEzCAeTTT/n4zyUA57DlEXKLvcCIxu5SnnmfpNPHEt+U85pACEeeth4RjPcAkObOF/Ifaxkjpnc4IaiYCFoechSkKjgaUBtKli0jhGOwsDNRohQgFNhxo/tpNwl2IdLlZYCzYOac1x77bUudGihQWhSmRKER/jQ5YliQSHFSkUYI9QIi5DmnHmLkXOldOUrLRWe49iXIAyFl3PhxgMFhfSRdvKH9KAIkx9YPqQRBYd9KE2AMELwYXV99KMfdYd1i9WHxUZrQFKAJwOVEyHK9VKhUZ5IDw87hDKtqrQY0hJBReUauXbyCIUsCXfuKeP1UE6JZyLIC+4TAhblPo1T4n7huH+kn+skDTx4OQahhEDg3AgThCKKIn7kY3oQkS7uN/mK0onQYkkZTGUsgUCiFYeuDloGaTlEwedeokiqRW/qw/3k/lFnqG8o7JRFHOs8aHhYUX6oQ5Qf/FCSKGPUXeo19ZV6wAM/X99TPaJc8cCifFCWeGhSV+mWSq3BCc5B/aUu8EBDCcIAw2ji4Uj8pIW0I1+ogwmugXLHufNQ7yiXpBdIF2EJR9ry8qgcHsS0FtIi/+53v9sftihgyBvqG3VxIlJ6OD/n5rzkH8t0XvIFOU5+o5CkukyrIbKA46nTPPjpEcEopq4hL+g1oH6SR3nFFrg/hCW91EfuMy8C8PIMvQocg9w63LVPBLKHNKPoUha4LzCZ+1sO5ycdL+RYygHpID9ICwYmrXr0pCDXf+7nfs7LDftpNUXeHu5+JYOF+8Z9IU8pZ9wbGhCQh9wb8o9zc28oj8j8yaafcsB58s+7VC7yz+hUt5LM5V5yLTxHeM7w3EBpp4ED+cs9eSH3slI5ZhQ9Cg/KAA9dBBqKCBOY/vzP/7wvETw8zCm8PLQpUEm44sopF355eNgjWFDyaNHifRUsxt/7vd9zIYsyBxQ6zoNFizXB+RnzR5ikICFgEPisY3Uj0ICKQTop0CgWLBOk7XDpGw8qHw8hCj5doL/4i7/ozdi//Mu/7N2yXAeVjwqeWjxJE5WT/GQ/jrS+UMuWhwdCDsHAtSE8ERBskx+pdYNzIjRIB/mB0kR3EIKXZnyEEhban//5n/vknhOR0k/eEffv/M7v2L/8y78UWmH+6Z/+yf7wD//Qu84Q7pyba0TQ8dBEkNDKipKGHy16KMTkIfFxvxj7R76iJNL1gXX6F3/xF96awvUmiIO4iIfWDfKZtGEN48gDMXWhLvPQQwGgDFDuqDfIFxytIrR4YyhhMKXWqyRjxmOiOozMQI7x8EM5otWFVivKK3IM4yvBQ5/00PpE2ujuZPhHCsMDkHJIqwd1Kv8gZZsyTJlHMUq8EPmSIC7qEufEEKS7jDqPcozSdDjD7HB5laCeoFzQlUp9S3X5E5/4hP31X/+1/e7v/q53BZL3yE1kP3WeyZm5Z8gSWtwZwpMnKUEYdnTv/v3f/739n//zf7zrFgWEFi6UVZTq5wvPC66f/CZfkKcYjZO5v+Vw/1DqX8ixpJ2eB/IDGYW8h6RM0aJHj00yeFM36ETkywn3BXnG/aP8kX90B3NveDby8YIPf/jDXiZoIX0+6X8h5ZH0U6ZpOKBc8IzmXnKPk2GWnnPiGFL00NpR4mhhoduBAkvFppuUJc3UjJ+iovPAToX8hcA5qPwIfrpQ6WrknBRG4k2WH8IeawYhwTG0WtGSB6SDSksFIV0oqjz8UYAogAiF1KrE/n2AUysAADQ2SURBVLxF83zg+PSAooLROpWUTfKGJd08jBfivFhZqQJwPVRcrDCUJRzrRxLGE8HDBiWJ66HCYfVR2ckbrh8lCAUahY58xI8KS3oQOuQnih7CAouNPMIB15kXCByLkKKy01VB2okHQcv58eMe0srHveCaUncA94VWCB4obPOgSveWhzgPEBQ97jPbnIfrQrlDoSMsaeV8yWpEiaRriHNgUVImKDuEJ20p3WJqgkHCfeOhzf2i3vDCFHUIxzr1ihYbwlB3k1L1fO8tZZeyieGKIUidRXnC8EBRor5QrnCUUwbAY2ywnzRQzyib1A3iwp9yRvoZw4Y/10M6kQs82GmJeykgbyjjKA+kgwc3Y+Lww1ijfqOYvlCot9RH6hbnoi7iuJ40tIJ8I/9Q6DAmUT4Zw4gCyLHkIQpuHmQkzw/kAXmaWiZpFUJmcC+RWYdTfFKeI6t4HiEbkOm0ItIogMxCniDL2T+Z+5vKDnFzbpaTLRvlcE+4DxzLUAOMWe4/xjTyjzwkX9JzifuHvCcNxEcelV9/Sh+GOnnGkvgod8hEZBzwXEG5eiHpn2z9yR/HvaT1jtZ1ygz3n3qKHMYYQ+aTRhE5ZhQ9KhVWGpUf4UIlRamiYrFkmwc8+wlH+IlIBWuiAkZhYh+VBiigCAccFYfKToFljAPWAwNbKfxUBPaxjWM/igzjHKhoCBn8qYRY9ChBVAaUG4TDkQo8+8vDUDFTKwOVC2WE7gnyJTnyB+WJ6yJvUmsEHOmczwfyi4cKlQ6hg+Cn+4XrRiBi5dG1igJIfnGvgHQheHiIIni4DoQ6xyPYAQWZyssxWJaEQbEl3xA2WNHkaxLkWOeMw0EYJMuVvKbscA6EEcfxEEE4pC5n8oYWOPy4ZxzD+bge4iFuWux4KCA0KRsISNLOA4frxw8Ln3OxLaY+KBaUUe4xygJ1iK6vVIdYT4oEYShrSdF7IVDmKcuUX+JBrlA3UdYo67TOUI54WNP1heJAOaSc8pBDjhCeuk9ZRfah5FH+KZ+UP5RR4sJIJd0vBXl5QZ3gAY6RTVnHkKNuU0d4yKaH8mQhbuoeQyAwupCRXAeO8bd0z5E/1DvqP921GNrsRx4n5aW8KxCo/+QhMoX8JO+Ih/qNooejDo9n5KZrRrajzJD33BdkG/KFtCHrURqR9UmuHe7+Ut44f5JLhOGaUZKRQ5M5trz8cQzKF3II+cqQpjQFCfckPX+4NzyrkE1cM+cHyg9pIE3l945eLOJN45y5dowP6gHnQOnmPCiTPFsmm/6Ut4d7DuXDpHXyiaFSlAHSQJqoH9x/7mVSYEXkmJnUC82dhz9CC+sVIZOHG4uQoKAj4LjZPMSfLxQO4qDApDGAWGwUXlqAiBMlIjXzY8GijHAczeUU8FTAGKuHQ/lCQCBk6GIgrQglKhjXkx+sP1HhnMifSoOgo4Ii4BCS5dY7FQDLKlU2wnLc82WiNOTBuuJVd64NwUxXJ0KDa06tDzx0sH4JSz7gR7cnQoguW+D+cT/JT4Tvtdde6+vkJfeAhxmCmyZ7rg0hjACn0hMOIYJgwspDyaWFDj8eSKyjGJP3nBtYR8kjTbQSIqQQbrTsoJzSNY/iiD/XhpDkgc818vZ2elBwLymrPKRRDF5IGRRHH+oDZYoHJOUpDb1IsE55oJzyUKecUb4Ox0T1BYOIXgJkAvKDLkrip9zyIKV8YQTyEKNu8wDl4c8wAoyllC7OzxAN5CHdcnTbMW6KekC9wlHPqDMYNRg3h5MvyU3EePuoDxiSdCmTLzz0SRe9COTl8wVFCWUB5YC6hQIByA/qEt2G1DHqMsY994whG8hrzkcdJAytSJDSjD95Thqpx3/0R3/kaSePkO3Eld7SnwjSlBQbnj+kCQOT5wLDZXiJjfwmTs7FfZvo/tISyfOF8oSc43qQMxiQjJnmnh7pWM5PWU1wXvIemYUsQxFCIeMY0otLZY9eMPKIeEk/YehexZhGZpbfO44lHOMy0yTwaWwe6UOukn+UNdKA0nik9Kdn0OHKXCKVzRQ2zXZBnnGdPONIC/eD9HMf0hArEfIvPISfn9n1CoG1TcWhoFI5uNHloAgyvgEFjMrDAxtBQLclD2PAGkbZocAQB5YwUFhQhGiNQhFBKcEionJT+BH8VD4ECookyhSO9YmUJoQWBZ9jSTsWFRYNWc51kEZaDqisVFLSQPqZ9gChhvIAWI/4U7BRQinMCVqTqDhYbCg7KJZY+PnKw0MCZZS8QMlj/AuKCJURAYigpqIeDsJyrVjS5CfXNR4ITYQW94KHFEoP1haCg7xDWOC4fq6Zykh8PPRIH9dC3uNPHiD0EVoIGoQx6aTVgPQgQBCKCGweYuQTS86fBAv3AEWPe0A+cP0olFiEDOZGYSPNKOHsIy666VD4ODfpouyRvxxPuihXXAv3Ej/GKXEvyX8UUh4klBnGGHJtCCExtaGFgQc49QlDgHpZ/qDg/vLwwsCg7CGHKEfUJYaSUC4IQ/ni/mN4oexT9jAKUMCQGdR36jZ1GpnAvqQ0UGZppSNO4mdJHRoP4kehoj5RVlECaeWmvlH+ORcGDGGIm2tkcDzyjYc9coLzcg4e3hg9pI34OD4P9Z5yTZ3lIYrszJdrZAP1nfygznFewqNgss1DmDD5vKKec61JLlGXyRfqFQoKsoC8gdRqiWzkurhP5DN5iIzmfnC/uDbqO3ISuF6uJ8kAFDXqOvEiU/AjPu4TCiSKSF52AvmWngXkbYK8I72UF2QVihPxIU+S4TDR/UWh43zIH85HXnEPyS+uEYX0SMdSPsbrMUDW85zjWimrpIX7SXlJaaUXKeUR3a6Ua+4BMhaZRXpSXpI/3HdkHfKV8KkVlbQjC0kLzwTu+2SvnXvGfSRt3FuOhfQsZigUaeRZQdq4HsoGY655hvIMoMGFlmTSxr3gGc0zIt1vETlmFL1XCgQciiOCJgk/FAmg8OPKBcN4kM1UZAoqoGBRQagElQoCj7xDIFARETI8HKjg44EyiFAFFK70IOGBgEBACOMP5CVxIgSIj/wlHEKEhy2VHvdSKFk8pDg/8XI+4gUEGv48YEgPDwIe5ghphCoDhVEAhZgIyjAPP8opZQblI5VtZAPyZbIygvqGvKK+UU8op8fqw476jCzgWljH8EJeloNCTRjqIftRIA8HMoaw5Dlyg/xJ+f5yMJn7m/y4Tp4lSdl8MWWDuAhHecBQpjyQP0l2lZNkNc84zn84kIc8A3mWkQbiRAaW5+GLSf9k4BqJD2WStNOSyHO1PB1Cit4RQTBQCSiQSaFjG9iejJKXIKtRRgAh82IK+bECeUUecu1c70RKXgIhkvI1heVY4mE75Td+uHx8bHMuHJWdfUc632RI58rHC6QJxz5aCejip7WRFgy6chg4j4ATYiIoO5R5ylR6QKXy9nzlCxAXZZLj8mX1WCTVZeBaUv7kSfKFJfJlvDDlEJZ8gonifamY7P2dyO/FlI10fCoPR5K/KdyR4gXC8iwj7ER5+GLTPxnSOSgDKKnHcnl/OZGiJ8SLBEFDV0fqfmGsCuNk6PpIrcBCCCHEK4EUPSFeJFiTjHFhXEka78hYGyGEEOKVRoqeEC8BjBVi3ApjYXCMPxFCCCFeaaToCSGEEEJUKBq5KIQQQghRoUjRE0IIIYSoUKToCSGEEEJUKFL0hBBCCCEqFCl6QgghhBAVit66ncYMD49YZ1eXT/jLrOntbW1h+fLNEi+EEK8EknViOqMWvWnM8PCQ7di5y7Zu2+5LtoUQotKQrBPTGSl605ihoeEg9Hbblq3bfMm2EEJUGpJ1YjojRW8aQ6/94OCgDQwM+lK9+EKISkSyTkxnpOgJIYQQQlQoUvSEEEIIISoUKXpCCCGEEBWKFD0hhBBCiApFip4QQgghRIUiRU8IIYQQokKRoieEEEIIUaFI0RNCCCGEqFCk6AkhhBBCVChS9IQQQgghKhQpekIIIYQQFYoUPSGEEEKICkWKnhBCCCFEhSJFTwghhBCiQpGiJ4QQQghRoUjRE0IIIYSoUKToCSGEEEJUKFL0hBBCCCEqFCl6QgghhBAVihQ9IYQQQogKRYqeEEIIIUSFIkVPCCGEEKJCkaInhBBCCFGhSNETQgghhKhQpOgJIYQQQlQoUvSEEEIIISoUKXpCCCGEEBWKFD0hhBBCiApFip4QQgghRIUiRU8IIYQQokKRoieEEEIIUaFI0RNCCCGEqFCk6AkhhBBCVChS9IQQQgghKhQpekIIIYQQFYoUPSGEEEKICkWKnhBCCCFEhSJFTwghhBCiQpGiJ4QQQghRoUjRE0IIIYSoUKToCSGEEEJUKFL0hBBCCCEqFCl6QgghhBAVihQ9IYQQQogKRYqeEEIIIUSFIkVPCCGEEKJCkaInhBBCCFGhSNETQgghhKhQpOgJIYQQQlQoUvSEEEIIISoUKXpCCCGEEBWKFD0hhBBCiApFip4QQgghRIUiRU8IIYQQokKRoieEEEIIUaFI0RNCCCGEqFCk6AkhhBBCVChS9KYJhw4dstHRURseHim6kRH3G037wnZ+P34cJ4QQxwqSdUKUIkVvGoAAQ5j19fVbV3dX0XV1W//AgA0Gx5Lt/H7Cc5wEoBDiWECyToixVIWCrZJd4WCtDg0N28OPPm6PPLbe/aqrq1ywPbdjZxB+g1bfUG+LFsy32tqaED4WiZPXnWinnLTW6upqQ3jZBEKIqY1knRBjkaI3DUD4DQ4O2ndu+IF9+7obra+/36qqEIBjBVrswjBramy0N179WnvDlZdbfX29hJ8QYsojWSfEWFSipwEILgTY8qVL7NRT1ll7W6v7Y/mWOwRfW2urhyO8BJ8Q4lhBsk6IsahUTxMQYIsXLfAuiqbmpuBT5eNRyh2wn3CEl+ATQhxLSNYJUYpK9jRi7pzZdvxxK2xmR0ewXuusij6NHGw3NDTYrJkdHo7wQghxrCFZJ0QRKXrTiJqaGmtva7OT166xJYsXWW1tbUEAsmS/W8JhP+HYFkKIYw3JOiGKSNGbRiDgmpubbF0QbosWzg/b2Y6M1OXBfsIlwSiEEMcSknVCFJGiN81oqK+3VSuWBuG3wFqaW9ySTRZuS3Oz+7OfcEIIcawiWSdERIreNANLlrfLli1ZHKzZE6y1tcW7NVpamn0bf719JoQ41pGsEyKiEj4NQbDRnYGww5plPqnGhgbfxl+CTwhRCUjWCSFFb9rib6WtWmHt7a3W1NjgS7b19pkQopKQrBPTHSl60xTGqfC22do1J9jpp53iS719JoSoNCTrxHRHn0CbxvAh76ee3ujLpqZGW33cKl8KIUQlIVknpjNS9KYx6buQFAHeRtPAZCFEJSJZJ6YzUvSmOQjAIPksSEAJPiFExSJZJ6YrUvSEEEIIISoUmTVCCCGEEBWKFD0hhBBCiApFip4QQgghRIUiRU8IIYQQokKRoieEEEIIUaFI0RNCCCGEqFCk6AkhhBBCVChS9IQQQgghKhQpekIIIYQQFYoUPSGEEEKICkWKnhBCCCFEhaJv3U5jDo2O2qGBQRsdGLDR/n4b7QsuLA+xHfz5+LfVVFt1fYPVtLZYTVtrcG1W3VAfTATZCEKIYwPJOjGdkaI3jTg0NBQFXW9fFHR9fTbc1WUjXd020hmWuK7OsAzbPb1B9h0Kgq/OqpubrW72bKubN8fq58+16iAAa5qbXChWBUFYXV/vy6qamlCiqrKzCSHEK4NknRBFpOhNF8JtHty+w/qf2mjdDz1ivY+vt/5nNrnAQygaFu9IcMPDmL++7iDMqqusurbOqupqrSoIuro5s61h0UJrWLncGoOrX77MGpcvtbqOGUEINsTjhBDilUCyTogSpOhVKH5bgyAb3LHL+p/dbP0bn7GBTZttYPNWG9y23Qa2b7fhvfs9jAWhVtMUrFZ3jb5EyFUFwXdoZNhG+wdspLsnWMDBCg7Wb01jg1u6dXNmufVby3LOHGsIArDp+FXWtPp4q50106pDOCGEeDmRrBPi8EjRq0DoqkBQDe3Zaz0PP2Zdd91rXXfebUPbd9pIX18QSgi4hijwmputpr0tuHarndFuNcHVzZhh1a0tLvxGhwa9u4O4hnbtCcs9Lgg5x6HBQReMh0IYC1Zxw6oV1nrW6dZx2SXWdMJxVr9wgY91sdpgHWMtCyHES4hknRBHRopepRFuZ9/6J63ztjvtwA9+HCzcTTa0d5+N9vRYVV29W5/Na0+w5hPXWNOa461x1UqraW318SkMRvaxJ9U1YZkNQA7x+UDmYA0fGhwKwq7fBp/b7pbzwDOb3HruC+tD23d42KogUOs6Oqz1zNOs/VUX2oxLL7a6uXPCuUP8QgjxUiFZJ8SkkKJXIfDm2PDevdZ9z/3Wfd8D1n3/Qy4ER4PQqg1Wa/OJq13QNSxfZvWL5rsFWjd/ntXPCYIJwTdJK/TQyIiNHOx0gTqM5evW724beG6H9T21wfqe2OCCsHb2LGtafZy1nHpysHxPs+aT1/n5GMwshBAvFMk6IZ4fUvSOcbBA6VLA8ux9+FHbfe3XrO/Rx1040U3RsHhhsGZXB4vzIms5ZZ01LFnkg4/dag2CLC5HfYAyAhDrFosUa9eXdbVhPThfjv+mGXEMHzhoXXfcbQdvusW6gvBFAI729Po4mPaLL7COKy8Plu/p1rBgvneVCCHE80GyTogXhhS9YxzGj/Q99bTt+/Z3bf93b3QhiDCrnzvHZlxxqbWefYY1rVoRBNRIEJL9NtLTY8P7DtjQvv02sn9/WA8uCC6mIUDA1XTMsNo5s/34unlzfZ3uiPq5s622o8MF4kQCkMHLWL6k58APf2wHf3yLDe3Y6cfUL1ls7a++0Ga+7nKbccG5ZghSIYSYJJJ1QrwwpOgdwzCFQG+waA/88CfWdec91r/xWaudPTNYsot9SgAEmXdVhFvs80n19sY3yoKQYhtBiEuDjbFi/W20YIXWpglDc+u1szqsYeli7xZpXLHcreiq2tosNRG3ePcf8G6N7gcesu577vM0Du7cHY5ZZm3nn2MzgsXddv7ZPobGLWchhDgMknVCvHCk6B2D+NiRzi7vPtj/vR/Yvutv9LEkvPXVvGa1NR6/yi3SnseesP4nn7KBrdusGiGV76pgu5aByLVhX+ymKO/msGAZM+UAFjLdJkwc2rzuRGsLVmrbeWdb48oVPu1ATUvLuFbryIEDdvDWO+zA935onTff7m+x1c6cac2nnWLzP/jT3r2CBS2EEOMhWSfEi0eK3jHIULAiDwbLdv91N1jnLbfbcBCEPlXA7Fm+n8/6jGDVBut1NFivwCDlumABI6xqmQ8qhCU8c0NVB2u1uqEuCNCuYKHuj4OP99LVsS+u0+Wxny6PXrNgNfOJoPr586z1rDP9TbP2YLHWhPjLLVYX0t3d1r/hGeu++17b+YVrfV4r5pxqPeM0m/Out9msq183xlIWQgiQrBPixSNF7xhjcNtz3k2w96vfsu77HnQLFqpbmq02WJsu7EYPWVUQZo3L42zudYsXWd3MDreCPRxTDISlTzUQlj5xaBBACMtCFwfdHd71Eda7e4OA7bShnbusd/2T1v/Msz7WpX7RwmBVn2Ctp51sLUGYMYUBb7iVwzxXA1u22cEf/cTHs3Tf/3CwjJut43WvsdnXvDEIwlM9bUIIkZCsE+KlQYreMYLP79Q/YAdvvs32fet678bA+ixQVeWv8yNEGFiM0Gs95yxrY4DyujUu8F7Mx7kZ3MxgY8bIMG9Vz0OP+Pn5pBAWbsdrL7OOYPG2nnmGW9D+MfDcQGYfzxIs5j3/8w3b/eWv+hgbPiU045KLbd7PvNdnmq/WJ4WEmPZI1gnx0lLzsUC2LqYwWKD9T26wfd+53t86Y9yKTxOQQRcBFuasq66wOT/1NpsbHBN51gcLt6a5eUxXw/OF47FMG1Yst5aT1lrTCcf7pKLDnd1u/Q5s2mIDTCa6e28450Ify8KbbQUQzo2N3q1S2zHDreXB53bY8MFgLS+Y7+NsaoMlLoSY3kjWCfHSIkXvGAALEQtz79e/7VYugoa3y4AxH4w/ab/gXJv9pqviHFKnnmQNS5f4+BIs36oXYd0WCMLLBaB/Rqg9fvMxWNOcG+uUiUSxYv2zQUGgMUeVv2nGgOhwfj4LxBIhzeeI+NQQA5gHt++0QwP9HrZx+TIf6KxPCAkxPZGsE+KlR4reMcDIgYPW++h62/mZ/7K+YOkeGhp2fwQf0wq0nnaKzb7mDTbn7dfEt9CCcEJYvVxgvXIOPurtVvSM9mB1d/pYFgYgM2t8VVW1z0/FNyV9hvgsPd7lwliZIEQRllzP4JZtQYgG4bdqRRDYY6cxEEJMDyTrhHjpkaJ3DNDz4CP+2n7XPff51AIJLEwGBy/48M9a+3nnxLmkgpV4NKlubvJ5rJrXrg0bVT7fFcIa65V1Pv7tAjA3JqU6WL5MNTAcroVJT338TRDoDBdtXn2cW+dCiOnHsSLrqpB1QXZJ1oljASl6U5jCoOQf32L7vvNdFyYMCGagMZZi24Xn2ey3vNHazj3bpxI42oIPsEh5kw0Bx+BoBNfQ3r02sv+AL5mvqra9zd9aw9L1rorgojAM23bI+jds9IlHEYCNa1aPEZZCiMrmWJN1TKxc3YKs2ydZJ6Y8UvSmMMzgPrRjl1u4B75/k3/M2wVHEDZNx6202W9+g3dj1L0C1m0eBBrdFPUL5/v3JhFkWK4MQGaKBMa50FVBuvPpRDHkDbnehx+zgRAOq7dh2ZL4KaLghBDTg2NS1i1ZJFknjgmk6E1hmBwUC/fgLXdY/8Zn4qDkYOHWz5/vr+nPeNWFcS6n4DclCEKQwcdMd8Cnh/qffsatXZ95PqS9adVKt84TWMh0gfgcViGcW/EDA3HOqhNPyEIJISodyTohXj6k6E1VgrAY2r3H9n3tW9bz4MOxuT+AJdl61uk255o3upDhNf6pAtZuVW1NHHcShBpTIvRv2mrDB/YHoTbo6fVvSgZrN4W3ar452RgHNj/xpL+hxvcrm1Yf510aL8lbdEKIqYtknWSdeFlRyZqijPYP2PCevdb7yGM2uGMnksIdluKMiy+whhXLXJBMOUIaEVqtp59qs954lXe7HOrt90lH+Rj5wJatWcAI35RsOeXkbLzKDH87DeuYSUbJAyFEZSNZJ1knXl6k6E1Rhnbvtr4nn7LBIAwKQiBYfI3B+mu76IIp/7ZWTXubp7XjdZcFwXZ8sHQ7/YPkPQ8/6gOvC7iwrLfm41dZ6zln+ptt/c9usq6774vfmxRCVDSSdZJ14uVFit4UhVf2mU9qtCcIgEOHfDLOxiWLfbZ2XnioYr6mKQwDketmzrQZr7rIWk5eF9Jb55Of9q1/yi1YxqcUCAIQq51uGmaZZxqC3iAkGc/iY3WEEBWLZJ1knXh5kaI3RWGwbu/jT/jngKCmscGtxcZlS93CfSnHc/jnjpneYHjY337Dqi586Lur2wUwfkx3UGKhHgEs1pZT1lnzuhOtYeGCcC193lXR98hjNpJdV6J+0QJrPmmtT0jKZKR9G54OywPx7TshRMUiWSdZJ15epOhNUfjMDnMuIYyguqnJWk892eqXLvLtl5Qg9IaDgGMQ9MCOXTawOVijT27wMTPdDzwUhPB6G3h2kw3t2esCzN8smyzB2mVW+bYLzglCuzVYuput694HxnRVMHt83YJ5/hYa14rQ5XuSw/v2ZSGEEJWIZJ1knXh5qQoWjtqLpxCHRkbcutz+8U/Z9n/5VGHMSuOKZbb0D3/H2s4/xz+MfSTSBKQImeEQ32hPsFiDgBsJS6zWke5uP49bswg0rNvBIReEad0nLA3x8BkgfyussdEtVz4JxKSl/v3HkJb6+fP8I935z/kQPx/9ZqqEvsefdCF68Kabw54qH88y+y1vcIu9bu5sa1i10icaHdy5y7b/0yd9mgU+ZD7/Q++3jtdeFizlk2KkQoiKQbJOsk4cHaToTTEYzzGwZZtt/8Snbed/fN79+IxO09o1tvJv/sya161xQXQk6AahS4CJPJm6AAsVi3Fo735fDoflULYc7e93y9W7SIKLy/jmm7sgkA8Nj/gSaoKga1i8yBpPOM6aQ7qa15xgDcuXxlneg7VaFdKH0Ou570HrvO1O/0j5YDg/ljJClY+FM6UA345kctGOyy+xphOO97j3fu1btu9b11tvsLJnveHKICTfZDNefaHvE0JUDpJ1knXi6CBFb4pBM37PAw/brs990fZ89Zvu5995POsMW/Ynf+iv8LtAOgK82r/tb/7RZ2If2rffhRsWNFbsKN9aHAkuCDQXesRXW+PzVDEJKHM9sawKSwQhk5kiJEcOHvTwdFG45YvVyzGtLT6xaVMQzHx0vOnEE2z/d2+03dd+LVxPVxx7Es5XGIMSzlfd2OBCHUHads6ZNudtb7bWc8+yzptvs91f+p8gNO+y9gvOsbnvfWcQglfF44QQFYNknWSdODpI0ZtiMDj34A9/bHu+8nXbf+MP3Y/JN9tffZEt/n9+xSfYnAyDW7fZtr/7uHUHS5PvMda0NvtbXnyfkRnb43q2bA4CLwijqrp6q66vC4IwCLb6ehdwWL10iyCU+WwPg4b55A8OoTq8P1jJYR/h6ubOtYali61u/jzrXf+EC96qhvogsFf5NSQQwnSp9G181oZ27vRjeGOt6aS1Pl6m6467rO+JDVYf/Oe+8602++3XWMPC+VP+7TshxOSRrJOsE0cHKXpTDLod9n3927b3m9d5VwC0nn6Kdbzucpv3gfdMaswKMBnnvu/c4G+zIbBqZ820uuBqZ81yqzlus+zw7zMiAA/L6Kh3kQxs3xEE63PBit5iA5u3xeW27T7hqY+F6ekrDGJmHAvnmf3Gq2zmVa/NIgpRDfJdy522//ob7UAQ9FVB8PrYl5CW4f0HPQ8Qtgi7jisus7nvuMa7NGpmzMhiEEIc60jWSdaJo4MUvSnG0M5dtvu/vuITbnbf94D7tV14ns1+89U2+y1vnPQHsBE+I8EqHfExKSP+uZ6qmtq4DEKJuZ98Gba9eyJYqUfCpxsYGrJR3MCgD2BmyeDngSAQmQ+KNDMzPN0fFCyE9fyf+4DN/8C7YyQBBl33b9ri43L2fPl//NzMnUVaUheLd71UVUUL/6ILbPFHf3XSFr4QYuojWSdZJ44O+tbtFAPrruuue6zvqad92gFoXn28f2bHv4nYNLnvPSJQ4ltjbVbbMcOXjC9hcLCPN2mI3RUuBCcxDgbi9x1jVwef82EKAY97Zke0mufO9Tmi6ufNdUt3aMcuF2r1c2b5krE0OAQfc0zxXcvBzVvdymWAMuNWeOus+cTVPg4Gaxfqg8Bvf9VFfi4hRGUgWSdZJ44OatGbAvj0AFiLvb3+SZxdn/uSd2Uwqzp0XHGpzXnHW6zj8ktd0LwQ3HJMA5ODBXloZNSqOC/r2dInEg3+ad2QiZQOBGl9sELrG+LAYqYfYDsIznL8TbrN22zHv33Gdn3hSy4smeE+P26FN9qY/qD/Gcat7PL5pGZdfaXNeO1lLlCxmvsef8K2/eMnfEA1QnH5/+/3fUZ5IcSxi2SdZJ04+kjRmwIwv1Pfho3eFdB1xz3WeefdNrx7jzEVALRfcK7NeuPrfT4m5nOimf/5gOBjglCsxqE9e9ySdtfZ5cvRbuadyvxw2fgT/yRPTbXVBMua6QH4yHjDcSutMbiGZUusNggqBGMeBCdzVu367H/Zzk9/3r9jSXqxjItUeTjGrzBYuuM1l9isa662jldf7PFxDN9/3PLnf+ODo9uC8Fsm4SfEMY9knWSdOPpI0XsFcAERLFqa8rH0+jducut24Jmw3LQlCozRcFuqq3yMR/3CBf4af9uZpwXBs8oaVyy1+mXM5TTDrc5ysJZ5S4x5pfiWIp8YGtq524YPHnTBhCXKZ3lYEj9CdjRbd7/gDjGhKEUjpIGuCM5VO3e2d1V4twUzuweBiBBkPAndGMwp5YI5CNvu+x8Klvod1v/khihgh4PlXAZdM4xrab/oPGs++SRrXL7U/Qd37AwPgbtty///r0I+9bnwW/6xP5DwE+IYQ7IuIlknXkmk6B1NRkfdoh3ct8/f5uoOlhxjVHoeetSG9u+3asaEMA1AW6s361dV17ggHD7YFSzCAR9z0hyEYGsQgq1nnm71Sxa5UCoMNA4WIoOGEXQI1Z5H11vvY4/76/u8mcat9jmhaphKIAgpxqy4C5ZqVXVxHcs1OB/PEo5xi5QByUlYhnMQD1Zvy6knW8vpp1jLyWtdKFaT9paWKAOD0PNvWHZ2hvQHYVoG41CYnqBx5YqS8Th0cSD8Nv/pX7rwaz3nTFvxx38o4SfEsYJkXQmSdeKVRIreUQQLk0G5vGZ/8ObbbXjXLhvuDBYggq2pyWeEbw8VvfXsM6123pwgPUas+94HrPP2O405opjE0wcIByFINwCzs9d0dGRTCXT4Z3t4A4zvNzLjvFuvQXj4532CMKubO8e/sViHdYyQyoSsD1z27WwQczaQGQk2GixWzjsQrG8GTeNYp1sE65fBzrUcG9LQvG6ttZ19RhBWZ/hYFOJgmgJ/g22cYoagraoljsw6zkD4dWLlZsKv7dwzg5Ur4SfEsYJkXSmSdeKVRIreUQLLkw9m88mbrnvuDwJqq1d6ugMYB4Kl18hA3lXLg99SF0Q2OmL9dHk8/Yw7F2rBOh7cFtz2ncHaHAwCpDYIq2YXiMy+zuScw8Gq5NX9+oXzvZuhftEi7xLhW4vMz8RbZAwyRnAxyaevByvTBx6HNPl2iAuBdCikAQFK9wjXwCeG6G6gi8S7Y0KaWKcLpG7OHO+SaFgZriMIqobly/wbj7WzZ0ZBGCxdn6ZgcNC7POJ28VuTfHeSQdSco++Jpwqz5fu4lY/9QekgZyHElESyTrJOTC2k6B0luoPA2/ed79ruL3/VBwvXBau06aR1/umb9vPPdQuxuq3FpwoYDwRQ39Mbref+h6z7rnut6977XehgOYN3PQQLGAuVt9UQfM1rT7Tmk9eFuE+0puNX+T7vqniRYD0P79nnFjvWd8/Dj7pV7eNigvBFEDYsmO/TCLScdXoQiMu86yJZ3f5h8bDO2Bm23T/4uesN/l1dNhgEIN+LrA1WfNt5Z9vSP/o9F6hCiKmNZJ1knZhaSNE7Suz576/brs9+MQiMR1wQtJ59hs3/0Pv9kznVQShhZY73Cn8Cy3B4916foLPr7iD87rzHpyTAIgS6FphgtP3C86z94gus5YxTvbvDuz74piNdBi+B4HNCkeHtNgZZI7wQ5ulNOrpfeh9b72Nc+MxQTUuTT1XAG20+jQEDrylyYf3Qobjt3R1sZ/sZJ3NoOE5QitBuv+QiW/xrH/EB0UKIqY1knWSdmFpI0TtK7L/hB7bn2q/awR/f4ts0+Xdc8iofR0L3AgKC+Zr8+4vgAmYkWIADwZKNUwHweR+6Mbw7Y+tz/q1Ibl/jqhXBojzOmk9cEyzbNda4+jhrWBIEBQOXc+NBXi7oiqC7gy6a/mc22cCmzZnbYv3B+j2EkAwCjWkH6CbhOi0s03p1EJI+oalv579BWReubaW1nHaKtZ1/ttW2t2dnFEJMVSTrJOvE1EKK3lGCN7IQfHv++xs2uHmLN+UzRsRnc2egsX9wuzm+kYXA4u2vwSFv2vePamffRASf6T1YrnXhuPqFC601CIYZF53vM8rzJttLZs2+EIKlOhyENW+/9TzwkHd58KFxGxmN42SaGqLV7a4xLoO/+/EQ8PUQLuQNDwWmJMD5R76PgiAXQrw4JOsk68TUQoreUYI3spg+oPPOe+zgTbdY1513+2d/sGSrs+kC/LV/pgJwGBxMEz9N+yMuDGnmp8uCgb98/LslCLvmdWusdvbs+NmfV1rwZXh3BNY51i1jVEg/xSykzcflcI1pPV1zYV+2HfwRdli6WL8SfEIcG0jWSdaJqYUUvaMIY094nb5/w0Z/dZ8JPhlg7PM1DTBxZ3wry6s59Z8Pc9PcH6w9H3/CNAMzZ/qM8Q1LF7tj3Wdil3AQQkwRJOuEmDpI0XuFYKwHE3sO82keBGBPTyYI+4sWYbDueFW/pqM9Cr1ZM70LwK0+IYQ4BpCsE+KVRYreK4Rn+3D86HZ6+8oO0X1xyK1cvylYughBrF26PHhTjW1ZtEKIYwTJOiFeWaToCSGEEEJUKK/8aFYhhBBCCPGyIEVPCCGEEKJCkaInhBBCCFGhSNETQgghhKhQpOgJIYQQQlQoUvSEEEIIISoUKXpCCCGEEBWKFD0hhBBCiApFip4QQgghRIUiRU8IIYQQokKRoieEEEIIUaFI0RNCCCGEqFCk6AkhhBBCVChS9IQQQgghKhQpekIIIYQQFYoUPSGEEEKICkWKnhBCCCFEhSJFTwghhBCiQpGiJ4QQQghRoUjRE0IIIYSoUKoOBbJ1cRTZt2+fffvb37aWlhZbs2aNHX/88dbY2JjtNXv22Wftsccec7dy5Uo766yzbNGiRVZfX5+FMLvrrrvs9ttvt+7ubjv77LPtwgsv9Piqq4v6+3PPPWdPPPGE3X///TZz5kxbu3atnXLKKR4uz8DAgG3ZssXDcc5yOG9bW5stXrzY1q1bZ6tXry45z+E4cOCAbdq0ye644w4/N+kUQkwPJOuEeGWp+VggWxdHka1bt9qf/dmf2ebNm62jo8NWrFhhTU1N2V6zO++80770pS/ZZz7zGevs7LSFCxe64MkLyK997Wv293//93bdddf5sSeffLILqNra2iyE2YMPPmjf+MY37F//9V/9XOw/8cQTxwi/3t5ee+CBB+wLX/iCffrTn7ann37aHn/8cXvkkUfs0Ucfdbd+/XoXyhy7dOlSa2homJQA3L59u1/PP/3TP/m1XnTRRdkeIUSlI1knxCvL5MwU8ZJDQ2py44FVeN9999no6KhbqqwjoMpJcSBMH3roIevr68v2RPBHAJb7TwTCbNmyZYb+/4lPfMLdv/zLv9gf/MEf2Gte8xoXgjfeeGPBup4sR7peIURlcqS6L1knxMuLFL1XmCQM0nJ4eNh27NjhXQsIlwsuuMCtSgTbwYMHbWRkxMMBx2DRzp071/ch5JKAZB8CD+H3zDPPuHXb2tpa2Dce+FdVVfn5TjrpJO9CSe7iiy8upGX//v22bds2Gxoasv7+freesbg//vGP21/91V/ZP/7jP9r111/vFvHg4OCE5+O4H/zgB/Zv//ZvfsynPvUp+973vueCXwhRWSQ5kJaSdZJ14uggRW+KgTB58sknbefOnTZjxgy76qqrvCtj48aN7ldu6TKehK4QhAwWaFdXl1vGCNE9e/bYrl273A8BSXyTAUuXrgq6SOg+YTlr1iwfN0McCFyEMEINQc14lNT18rnPfc4+//nP29e//nW77bbbXFDmBTaQPrpo6D756le/al/84hf9+K985Su+fe+99/pYl/LjhBCVg2SdZJ04OkjRm2Ig3O655x4XZgw6xrJkjAhCkTEkWJd5EExYpAgprEqEHXFg4T788MO+jnCcPXu2C7TJgHBCYCKAcAhRzn3zzTe7Bdrc3OwDqhG8t9xyi1uppOucc86xj3zkI3bFFVe4df3v//7vPvaFuPJgvSMwGW/DIOvTTjvN3vrWt9qrX/1qt+axkH/yk588r+4SIcSxhWSdZJ04OkjRm0JgNSIoeBsMEH5Ylgg/rFSsWLo58qTujPnz57sg3LBhg1ueCD0ECZYiwpGujMkMJkbwMaAYgfYXf/EX9pd/+ZfeRcHYFYQVcaxatcodgpFBywg6Bh1jkV9++eX2hje8wd+e42079mOd5+np6XELGKGKEL3ssstcYBIHg6fJAyxdwgkhKg/JOsk6cfSQojeFwJLdvXt3wTJkjAiCjK4JhBdTATDWI9/MjzDC6uQtNQQl0wsgIBEcWKbs5zV/BONkQPgh1H70ox/Zt771LXcIvZtuusnThaWMsG1vb/e0ISjhyiuvtEsuucSFF1MKJIHLmBks7zwIZroy6NIg3XSRYDHX1dX5NtMf0KXDUghReUjWSdaJo4cUvSkEb5zRBcFYj/SK/kc/+lGfAoDBx1itCD+a+RFSeZYsWeLzPSE0mC4AC5N1hMqpp546aeFXU1Pjb6L98R//sX3yk5/0N9H++Z//2X7/93/fXve61/lAaIQwFjfpZZAywmvevHku7BKsM5cV3SoI9TxpTA1v1zHFwS/+4i/au971Lvvwhz/s14qVzzVq3IoQlYlknWSdOHpI0ZtCINiwTBljwjxRvAGG1Xjeeed5Uz9jUxA4WLLlAgXr8IQTTnCrE+GBoAQsUgY4Y0FOhvQmGhOFnnnmmZ4GulWYboAuB+aGwjrFwiU9CFcEIMI4/8YZFippZGAzb8GVg/W9YMECj//1r3+9vfnNb7a3vOUtLgTf8Y53+PmwpIUQlYdknWSdOHpI0ZsCIDQQHgz+ZZwH1urVV19t733ve+0973mPve9977O3v/3tPtAY6xDhRpdAHsatMAYEgYNFzNxP6e0xhAjW62QhLF0kWKo4jidNCEMEFtYnAhDBimBD0KU33rgO0oCVTRjG3MyZMyeLOcJYGyxj0ksXyK/8yq/Y7/7u79pv/MZv2Lvf/W4f93L++ee7EBZCVA6SdZJ14ugjRW8KgMCg+R7hx2BfhAxW7emnn15wZ5xxhvvTFTCe8ENYIYwYGIwFyhtiy5cv926OlwqEFsKOJWnGekYYYhnz5hjdHKSLsSqMnWH9uOOO866OPIx9QfDxth2CGoHO9XPtTFfA9AO8qaYBykJUFpJ1knXi6CNF7xUGwYFVSBcFXRUIFroSsGiTlYmji4NX8+mWICwDmfMDeOkeQDAxMBirlPEirNPNMVlIS96Vg/WL5Yk1S9cL0IVC1wtTBzDFQJpElG6V9CYdgjkfH+nk7TOuEYH/H//xH/a3f/u3/vYb3TB0k9CNw1IIURkgAyTrJOvE0UeK3isElh6VHysUgULzP0KCt8boOmBwbx4GGDPQGKuR8FiICBFe/ce6ZT/Hp3EmCD6EJVYoAhOLFEGIEEXAlpOEJ90PxEn6ymGMCvuIAyuXbhg+HH7ppZd6FwdzYjF5KBYvApi300gb6WW8C5YtXRsIc2afZy4qujWwaL/zne/4NATsw6LnbTaOE0Ic20jWSdaJV5aqUIDH/2aLeFlBeGEJpjEiWIE03zPYF8uwXPggbLBceUsNqxhhxjYWJ0ILoYGQY5u3xYgHwYdQ5Fi6DLjVxIsgKh/HQhi6HziWtCEoEXZ5iBPrmv0IUMbKpDEsXAvnIA7GyyD0cAjBFPfevXtd2CE8OY5rYbwL1j0WO2njvHR/jJdGIcSxh2SdZJ14ZZGiJ140FCHG0yDgEIxYpwiyyQgvjkvTCxAeQS6hJ4SYikjWiWMRKXpCCCGEEBWKxugJIYQQQlQoUvSEEEIIISoUKXpCCCGEEBWKFD0hhBBCiApFip4QQgghRIUiRU8IIYQQokKRoieEEEIIUaFI0RNCCCGEqFCk6AkhhBBCVChS9IQQQgghKhQpekIIIYQQFYoUPSGEEEKICkWKnhBCCCFEhSJFTwghhBCiQpGiJ4QQQghRoUjRE0IIIYSoUKToCSGEEEJUKFL0hBBCCCEqFCl6QgghhBAVihQ9IYQQQogKRYqeEEIIIUSFIkVPCCGEEKJCkaInhBBCCFGhSNETQgghhKhQpOgJIYQQQlQoUvSEEEIIISoUKXpCCCGEEBWKFD0hhBBCiApFip4QQgghRIUiRU8IIYQQokKRoieEEEIIUaFI0RNCCCGEqFCk6AkhhBBCVChS9IQQQgghKhQpekIIIYQQFYoUPSGEEEKICkWKnhBCCCFEhSJFTwghhBCiQpGiJ4QQQghRkZj9f1CsJ/1XF4HeAAAAAElFTkSuQmCC" vertex="1" parent="1">
          <mxGeometry x="260" y="110" width="270" height="300" as="geometry" />
        </mxCell>
        <mxCell id="kzYyy0ZkJ250GvS2o3Kc-7" value="" style="endArrow=classic;html=1;rounded=0;" edge="1" parent="1">
          <mxGeometry width="50" height="50" relative="1" as="geometry">
            <mxPoint x="500" y="260" as="sourcePoint" />
            <mxPoint x="560" y="260" as="targetPoint" />
          </mxGeometry>
        </mxCell>
        <mxCell id="kzYyy0ZkJ250GvS2o3Kc-13" value="" style="edgeStyle=orthogonalEdgeStyle;rounded=0;orthogonalLoop=1;jettySize=auto;html=1;" edge="1" parent="1" source="kzYyy0ZkJ250GvS2o3Kc-8" target="kzYyy0ZkJ250GvS2o3Kc-12">
          <mxGeometry relative="1" as="geometry" />
        </mxCell>
        <mxCell id="kzYyy0ZkJ250GvS2o3Kc-8" value="AWS Lambda &lt;br&gt;triggered by Kinesis" style="outlineConnect=0;dashed=0;verticalLabelPosition=bottom;verticalAlign=top;align=center;html=1;shape=mxgraph.aws3.glue;fillColor=#F58534;gradientColor=none;" vertex="1" parent="1">
          <mxGeometry x="660" y="210.5" width="82.5" height="99" as="geometry" />
        </mxCell>
        <mxCell id="kzYyy0ZkJ250GvS2o3Kc-10" style="edgeStyle=orthogonalEdgeStyle;rounded=0;orthogonalLoop=1;jettySize=auto;html=1;" edge="1" parent="1" source="kzYyy0ZkJ250GvS2o3Kc-9">
          <mxGeometry relative="1" as="geometry">
            <mxPoint x="530" y="260" as="targetPoint" />
          </mxGeometry>
        </mxCell>
        <mxCell id="kzYyy0ZkJ250GvS2o3Kc-11" value="" style="edgeStyle=orthogonalEdgeStyle;rounded=0;orthogonalLoop=1;jettySize=auto;html=1;" edge="1" parent="1" source="kzYyy0ZkJ250GvS2o3Kc-9" target="kzYyy0ZkJ250GvS2o3Kc-8">
          <mxGeometry relative="1" as="geometry" />
        </mxCell>
        <mxCell id="kzYyy0ZkJ250GvS2o3Kc-9" value="SQS as FIFO &lt;br&gt;for Kinesis strimming data&lt;br&gt;&amp;nbsp;" style="outlineConnect=0;dashed=0;verticalLabelPosition=bottom;verticalAlign=top;align=center;html=1;shape=mxgraph.aws3.sqs;fillColor=#D9A741;gradientColor=none;" vertex="1" parent="1">
          <mxGeometry x="540" y="213.5" width="76.5" height="93" as="geometry" />
        </mxCell>
        <mxCell id="kzYyy0ZkJ250GvS2o3Kc-17" value="" style="edgeStyle=orthogonalEdgeStyle;rounded=0;orthogonalLoop=1;jettySize=auto;html=1;" edge="1" parent="1" source="kzYyy0ZkJ250GvS2o3Kc-12" target="kzYyy0ZkJ250GvS2o3Kc-14">
          <mxGeometry relative="1" as="geometry" />
        </mxCell>
        <mxCell id="kzYyy0ZkJ250GvS2o3Kc-12" value="S3 for transformed data&lt;br&gt;&amp;nbsp;under date partition folder" style="sketch=0;outlineConnect=0;fontColor=#232F3E;gradientColor=none;fillColor=#3F8624;strokeColor=none;dashed=0;verticalLabelPosition=bottom;verticalAlign=top;align=center;html=1;fontSize=12;fontStyle=0;aspect=fixed;pointerEvents=1;shape=mxgraph.aws4.file_cache_s3_linked_datasets;" vertex="1" parent="1">
          <mxGeometry x="662.25" y="90" width="78" height="78" as="geometry" />
        </mxCell>
        <mxCell id="kzYyy0ZkJ250GvS2o3Kc-14" value="Loan Decision Lambda gets triggered on s3 put event" style="sketch=0;points=[[0,0,0],[0.25,0,0],[0.5,0,0],[0.75,0,0],[1,0,0],[0,1,0],[0.25,1,0],[0.5,1,0],[0.75,1,0],[1,1,0],[0,0.25,0],[0,0.5,0],[0,0.75,0],[1,0.25,0],[1,0.5,0],[1,0.75,0]];outlineConnect=0;fontColor=#232F3E;gradientColor=#F78E04;gradientDirection=north;fillColor=#D05C17;strokeColor=#ffffff;dashed=0;verticalLabelPosition=bottom;verticalAlign=top;align=center;html=1;fontSize=12;fontStyle=0;aspect=fixed;shape=mxgraph.aws4.resourceIcon;resIcon=mxgraph.aws4.lambda;" vertex="1" parent="1">
          <mxGeometry x="662.25" y="-40" width="78" height="78" as="geometry" />
        </mxCell>
        <mxCell id="kzYyy0ZkJ250GvS2o3Kc-19" value="" style="endArrow=none;html=1;rounded=0;" edge="1" parent="1">
          <mxGeometry width="50" height="50" relative="1" as="geometry">
            <mxPoint x="330" y="10" as="sourcePoint" />
            <mxPoint x="660" y="10" as="targetPoint" />
          </mxGeometry>
        </mxCell>
        <mxCell id="kzYyy0ZkJ250GvS2o3Kc-20" value="" style="endArrow=classic;html=1;rounded=0;" edge="1" parent="1">
          <mxGeometry width="50" height="50" relative="1" as="geometry">
            <mxPoint x="330" y="10" as="sourcePoint" />
            <mxPoint x="330" y="100" as="targetPoint" />
          </mxGeometry>
        </mxCell>
        <mxCell id="kzYyy0ZkJ250GvS2o3Kc-21" value="Response back to user(API Gateway PoST method)" style="text;html=1;strokeColor=none;fillColor=none;align=center;verticalAlign=middle;whiteSpace=wrap;rounded=0;" vertex="1" parent="1">
          <mxGeometry x="430" y="-30" width="170" height="30" as="geometry" />
        </mxCell>
      </root>
    </mxGraphModel>
  </diagram>
</mxfile>
